<?xml version="1.0" encoding="UTF-8"?>
<!DOCTYPE svg PUBLIC "-//W3C//DTD SVG 1.1//EN" "http://www.w3.org/Graphics/SVG/1.1/DTD/svg11.dtd">
<!-- Creator: CorelDRAW -->
<svg xmlns="http://www.w3.org/2000/svg" xml:space="preserve" width="18.3485mm" height="2.7622mm" version="1.1" style="shape-rendering:geometricPrecision; text-rendering:geometricPrecision; image-rendering:optimizeQuality; fill-rule:evenodd; clip-rule:evenodd"
viewBox="0 0 362.05 54.5"
 xmlns:xlink="http://www.w3.org/1999/xlink"
 xmlns:xodm="http://www.corel.com/coreldraw/odm/2003">
 <defs>
  <style type="text/css">
   <![CDATA[
    .fil1 {fill:black}
    .fil0 {fill:black;fill-rule:nonzero}
   ]]>
  </style>
 </defs>
 <g id="Camada_x0020_1">
  <metadata id="CorelCorpID_0Corel-Layer"/>
  <g id="_1734998261120">
   <path class="fil0" d="M92.97 49.03c-2.7,0 -5.02,-0.57 -6.96,-1.71 -1.94,-1.14 -3.42,-2.88 -4.45,-5.22 -1.03,-2.34 -1.54,-5.3 -1.54,-8.87 0,-3.61 0.54,-6.58 1.63,-8.9 1.08,-2.32 2.6,-4.05 4.54,-5.19 1.94,-1.14 4.2,-1.71 6.79,-1.71 2.89,0 5.49,0.65 7.79,1.94 2.3,1.29 4.13,3.12 5.48,5.48 1.35,2.36 2.02,5.16 2.02,8.39 0,3.19 -0.67,5.97 -2.02,8.33 -1.35,2.36 -3.18,4.2 -5.48,5.51 -2.3,1.31 -4.9,1.97 -7.79,1.97zm-18.15 -0.46l0 -42.35 8.9 0 0 17.86 -0.57 9.07 0.17 9.13 0 6.28 -8.5 0zm16.61 -6.85c1.48,0 2.81,-0.34 3.97,-1.03 1.16,-0.68 2.09,-1.67 2.8,-2.94 0.7,-1.27 1.06,-2.79 1.06,-4.54 0,-1.79 -0.35,-3.31 -1.06,-4.57 -0.7,-1.25 -1.64,-2.23 -2.8,-2.91 -1.16,-0.68 -2.48,-1.03 -3.97,-1.03 -1.48,0 -2.82,0.34 -4,1.03 -1.18,0.68 -2.11,1.66 -2.8,2.91 -0.68,1.25 -1.03,2.78 -1.03,4.57 0,1.75 0.34,3.26 1.03,4.54 0.68,1.27 1.62,2.26 2.8,2.94 1.18,0.68 2.51,1.03 4,1.03z"/>
   <path id="_1" class="fil0" d="M129.43 49.03c-3.5,0 -6.57,-0.68 -9.22,-2.05 -2.64,-1.37 -4.69,-3.24 -6.13,-5.62 -1.45,-2.38 -2.17,-5.09 -2.17,-8.13 0,-3.08 0.71,-5.81 2.14,-8.19 1.43,-2.38 3.38,-4.24 5.85,-5.59 2.47,-1.35 5.27,-2.03 8.39,-2.03 3.01,0 5.72,0.64 8.13,1.91 2.42,1.27 4.33,3.1 5.74,5.48 1.41,2.38 2.11,5.22 2.11,8.53 0,0.34 -0.02,0.73 -0.06,1.17 -0.04,0.44 -0.08,0.85 -0.11,1.23l-24.94 0 0 -5.19 20.26 0 -3.42 1.54c0,-1.6 -0.32,-2.99 -0.97,-4.17 -0.65,-1.18 -1.54,-2.1 -2.68,-2.77 -1.14,-0.66 -2.47,-1 -4,-1 -1.52,0 -2.86,0.33 -4.02,1 -1.16,0.67 -2.06,1.6 -2.71,2.8 -0.65,1.2 -0.97,2.62 -0.97,4.25l0 1.37c0,1.68 0.37,3.15 1.11,4.42 0.74,1.27 1.79,2.24 3.14,2.91 1.35,0.66 2.94,1 4.77,1 1.64,0 3.07,-0.25 4.31,-0.74 1.24,-0.5 2.37,-1.24 3.4,-2.23l4.74 5.14c-1.41,1.6 -3.18,2.83 -5.31,3.68 -2.13,0.85 -4.59,1.28 -7.36,1.28z"/>
   <path id="_2" class="fil0" d="M168.36 49.03c-2.7,0 -5.02,-0.57 -6.96,-1.71 -1.94,-1.14 -3.42,-2.88 -4.45,-5.22 -1.03,-2.34 -1.54,-5.3 -1.54,-8.87 0,-3.61 0.54,-6.58 1.63,-8.9 1.08,-2.32 2.6,-4.05 4.54,-5.19 1.94,-1.14 4.2,-1.71 6.79,-1.71 2.89,0 5.49,0.65 7.79,1.94 2.3,1.29 4.13,3.12 5.48,5.48 1.35,2.36 2.02,5.16 2.02,8.39 0,3.19 -0.67,5.97 -2.02,8.33 -1.35,2.36 -3.18,4.2 -5.48,5.51 -2.3,1.31 -4.9,1.97 -7.79,1.97zm-18.15 -0.46l0 -42.35 8.9 0 0 17.86 -0.57 9.07 0.17 9.13 0 6.28 -8.5 0zm16.61 -6.85c1.48,0 2.81,-0.34 3.97,-1.03 1.16,-0.68 2.09,-1.67 2.8,-2.94 0.7,-1.27 1.06,-2.79 1.06,-4.54 0,-1.79 -0.35,-3.31 -1.06,-4.57 -0.7,-1.25 -1.64,-2.23 -2.8,-2.91 -1.16,-0.68 -2.48,-1.03 -3.97,-1.03 -1.48,0 -2.82,0.34 -4,1.03 -1.18,0.68 -2.11,1.66 -2.8,2.91 -0.68,1.25 -1.03,2.78 -1.03,4.57 0,1.75 0.34,3.26 1.03,4.54 0.68,1.27 1.62,2.26 2.8,2.94 1.18,0.68 2.51,1.03 4,1.03z"/>
   <path id="_3" class="fil0" d="M204.83 49.03c-3.5,0 -6.57,-0.68 -9.22,-2.05 -2.64,-1.37 -4.69,-3.24 -6.13,-5.62 -1.45,-2.38 -2.17,-5.09 -2.17,-8.13 0,-3.08 0.71,-5.81 2.14,-8.19 1.43,-2.38 3.38,-4.24 5.85,-5.59 2.47,-1.35 5.27,-2.03 8.39,-2.03 3.01,0 5.72,0.64 8.13,1.91 2.42,1.27 4.33,3.1 5.74,5.48 1.41,2.38 2.11,5.22 2.11,8.53 0,0.34 -0.02,0.73 -0.06,1.17 -0.04,0.44 -0.08,0.85 -0.11,1.23l-24.94 0 0 -5.19 20.26 0 -3.42 1.54c0,-1.6 -0.32,-2.99 -0.97,-4.17 -0.65,-1.18 -1.54,-2.1 -2.68,-2.77 -1.14,-0.66 -2.47,-1 -4,-1 -1.52,0 -2.86,0.33 -4.02,1 -1.16,0.67 -2.06,1.6 -2.71,2.8 -0.65,1.2 -0.97,2.62 -0.97,4.25l0 1.37c0,1.68 0.37,3.15 1.11,4.42 0.74,1.27 1.79,2.24 3.14,2.91 1.35,0.66 2.94,1 4.77,1 1.64,0 3.07,-0.25 4.31,-0.74 1.24,-0.5 2.37,-1.24 3.4,-2.23l4.74 5.14c-1.41,1.6 -3.18,2.83 -5.31,3.68 -2.13,0.85 -4.59,1.28 -7.36,1.28z"/>
   <path id="_4" class="fil0" d="M244.26 17.41c2.43,0 4.61,0.49 6.54,1.46 1.92,0.97 3.43,2.45 4.54,4.45 1.1,2 1.66,4.56 1.66,7.68l0 17.58 -8.9 0 0 -16.21c0,-2.47 -0.54,-4.3 -1.63,-5.48 -1.09,-1.18 -2.62,-1.77 -4.59,-1.77 -1.41,0 -2.67,0.29 -3.8,0.88 -1.12,0.59 -2,1.49 -2.62,2.71 -0.63,1.22 -0.94,2.78 -0.94,4.68l0 15.18 -8.9 0 0 -30.71 8.5 0 0 8.5 -1.6 -2.57c1.1,-2.05 2.68,-3.63 4.74,-4.74 2.05,-1.1 4.39,-1.66 7.02,-1.66z"/>
   <path id="_5" class="fil0" d="M279.87 49.03c-3.31,-0.04 -6.22,-0.73 -8.73,-2.08 -2.51,-1.35 -4.49,-3.21 -5.94,-5.56 -1.45,-2.36 -2.17,-5.08 -2.17,-8.16 -0.04,-3.08 0.69,-5.81 2.17,-8.19 1.48,-2.38 3.48,-4.24 5.99,-5.59 2.51,-1.35 5.38,-2.01 8.62,-1.97 3.27,-0.04 6.18,0.62 8.73,1.97 2.55,1.35 4.54,3.21 5.96,5.59 1.43,2.38 2.14,5.11 2.14,8.19 0.04,3.04 -0.66,5.75 -2.11,8.13 -1.45,2.38 -3.44,4.24 -5.99,5.59 -2.55,1.35 -5.44,2.04 -8.67,2.08zm0 -7.3c1.48,0 2.82,-0.34 3.99,-1.03 1.18,-0.68 2.11,-1.67 2.8,-2.94 0.68,-1.27 1.03,-2.79 1.03,-4.54 0,-1.79 -0.34,-3.31 -1.03,-4.57 -0.68,-1.25 -1.62,-2.23 -2.8,-2.91 -1.18,-0.68 -2.53,-1.03 -4.05,-1.03 -1.45,0 -2.76,0.34 -3.94,1.03 -1.18,0.68 -2.12,1.66 -2.83,2.91 -0.7,1.25 -1.06,2.78 -1.06,4.57 0,1.75 0.35,3.26 1.06,4.54 0.7,1.27 1.64,2.26 2.8,2.97 1.16,0.7 2.5,1.04 4.02,1z"/>
   <polygon id="_6" class="fil0" points="310.12,48.57 297.22,17.87 306.41,17.87 317.14,44.29 312.57,44.29 323.7,17.87 332.26,17.87 319.31,48.57 "/>
   <path id="_7" class="fil0" d="M353.72 48.57l0 -5.99 -0.57 -1.31 0 -10.73c0,-1.9 -0.58,-3.39 -1.74,-4.45 -1.16,-1.07 -2.94,-1.6 -5.34,-1.6 -1.64,0 -3.24,0.26 -4.82,0.77 -1.58,0.51 -2.92,1.21 -4.02,2.08l-3.19 -6.22c1.67,-1.18 3.69,-2.09 6.05,-2.74 2.36,-0.65 4.76,-0.97 7.19,-0.97 4.68,0 8.31,1.1 10.9,3.31 2.59,2.21 3.88,5.65 3.88,10.33l0 17.52 -8.33 0zm-9.36 0.46c-2.4,0 -4.45,-0.41 -6.16,-1.23 -1.71,-0.82 -3.02,-1.93 -3.94,-3.34 -0.91,-1.41 -1.37,-2.99 -1.37,-4.74 0,-1.83 0.45,-3.42 1.34,-4.79 0.89,-1.37 2.31,-2.44 4.25,-3.22 1.94,-0.78 4.47,-1.17 7.59,-1.17l8.16 0 0 5.19 -7.19 0c-2.09,0 -3.53,0.34 -4.31,1.03 -0.78,0.68 -1.17,1.54 -1.17,2.57 0,1.14 0.45,2.05 1.34,2.71 0.89,0.67 2.12,1 3.68,1 1.48,0 2.82,-0.35 3.99,-1.06 1.18,-0.7 2.04,-1.74 2.57,-3.11l1.37 4.11c-0.65,1.98 -1.83,3.48 -3.54,4.51 -1.71,1.03 -3.92,1.54 -6.62,1.54z"/>
   <path class="fil1" d="M26.13 0c15.05,0 27.25,12.2 27.25,27.25 0,15.05 -12.2,27.25 -27.25,27.25 -5.68,0 -10.95,-1.74 -15.31,-4.71 0.47,-0.26 0.95,-0.51 1.49,-0.76 1.66,-0.76 3.9,-1.56 5.39,-2.17 1.49,-0.61 2.22,-1.04 2.73,-1.38 0.51,-0.34 0.81,-0.58 0.96,-0.72 0.15,-0.14 0.16,-0.16 0.14,-0.22 -0.02,-0.06 -0.08,-0.14 -0.19,-0.35 -0.11,-0.2 -0.28,-0.52 -0.99,-1.57 -0.71,-1.06 -1.95,-2.86 -2.73,-4.04 -0.78,-1.18 -1.1,-1.74 -1.15,-1.96 -0.06,-0.22 0.14,-0.11 0.55,0.09 0.41,0.19 1.02,0.46 1.95,0.81 0.92,0.34 2.15,0.76 3.76,0.97 1.61,0.22 3.6,0.23 5.24,0.07 1.64,-0.17 2.95,-0.51 4.37,-1.27 1.42,-0.76 2.97,-1.93 4.31,-3.37 1.34,-1.44 2.47,-3.14 3.2,-4.74 0.73,-1.6 1.06,-3.1 1.14,-4.61 0.08,-1.5 -0.09,-3 -0.43,-4.5 -0.34,-1.5 -0.84,-3.01 -1.53,-4.31 -0.69,-1.3 -1.58,-2.4 -2.02,-2.99 -0.44,-0.59 -0.44,-0.66 -0.52,-0.64 -0.07,0.02 -0.21,0.14 -0.76,0.56 -0.54,0.42 -1.49,1.15 -2.6,1.98 -1.11,0.83 -2.38,1.76 -3.01,2.24 -0.63,0.48 -0.62,0.51 -0.41,0.7 0.2,0.19 0.59,0.55 1.14,1.28 0.56,0.73 1.29,1.83 1.59,2.8 0.3,0.97 0.17,1.82 -0.19,2.6 -0.36,0.79 -0.94,1.52 -1.9,1.99 -0.96,0.48 -2.29,0.71 -3.34,0.5 -1.05,-0.21 -1.82,-0.85 -2.67,-1.78 -0.85,-0.93 -1.78,-2.14 -2.68,-3.33 -0.89,-1.19 -1.75,-2.35 -3.09,-3.55 -1.34,-1.21 -3.15,-2.47 -5.09,-3.05 -1.94,-0.58 -4,-0.48 -5.9,0.07 -1.9,0.55 -3.65,1.55 -5.49,2.82 -0.68,0.47 -1.38,0.97 -2.07,1.52 3.34,-11.27 13.77,-19.5 26.13,-19.5zm-14.8 26.06c1.8,0 3.27,1.46 3.27,3.26 0,1.8 -1.46,3.27 -3.27,3.27 -1.8,0 -3.26,-1.46 -3.26,-3.27 0,-1.8 1.46,-3.26 3.26,-3.26z"/>
  </g>
 </g>
</svg>
