<?xml version="1.0" encoding="UTF-8"?>
<!DOCTYPE svg PUBLIC "-//W3C//DTD SVG 1.1//EN" "http://www.w3.org/Graphics/SVG/1.1/DTD/svg11.dtd">
<!-- Creator: CorelDRAW -->
<svg xmlns="http://www.w3.org/2000/svg" xml:space="preserve" width="16.86mm" height="3.3169mm" version="1.1" style="shape-rendering:geometricPrecision; text-rendering:geometricPrecision; image-rendering:optimizeQuality; fill-rule:evenodd; clip-rule:evenodd"
viewBox="0 0 10664.8 2098.11"
 xmlns:xlink="http://www.w3.org/1999/xlink"
 xmlns:xodm="http://www.corel.com/coreldraw/odm/2003">
 <defs>
  <style type="text/css">
   <![CDATA[
    .fil2 {fill:black}
    .fil0 {fill:black}
    .fil4 {fill:#2B1B00}
    .fil1 {fill:#FDFDFD}
    .fil3 {fill:white}
   ]]>
  </style>
 </defs>
 <g id="Camada_x0020_1">
  <metadata id="CorelCorpID_0Corel-Layer"/>
  <path class="fil0" d="M3741.47 1132.52l-208.99 0 0 -411.16c126.32,0 264.6,-17.27 353.66,44.09 118.92,81.92 79.39,367.07 -144.66,367.07zm-438.23 680.88c0,15.56 4.68,20.24 20.24,20.24l208.99 0 0 -525.84c223.73,0 240.5,31.44 354.54,205.01l148.4 235.88c12.14,18.03 45.29,68 49.84,84.95l262.89 0c-5.76,-24.8 -217.72,-341.39 -255.11,-392.05 -122.59,-166.17 -180.02,-178.63 -196.53,-201.15 85.46,-1.9 195.84,-86.79 241.51,-156.24 143.84,-218.55 9.74,-538.11 -342.65,-538.11l-492.12 0 0 1267.31z"/>
  <path class="fil0" d="M5426.78 748.31c0.95,1.45 1.77,2.21 2.02,4.68 0.38,3.29 3.1,8.03 3.67,9.87 50.6,168.38 94.31,263.52 146.88,419.38 11.77,34.85 47.25,116.71 49.66,145.8l-404.45 0 155.86 -430.64c25.05,-75.4 25.3,-58.76 46.37,-149.09zm-620.22 1085.33l242.71 0 85.65 -244.67c11.58,-29.29 21.76,-54.91 28.97,-85.65l525.78 0c12.02,22.65 23.78,57.94 32.7,81.92 11.32,30.43 18.79,52.31 30.87,83.75 21.51,56.04 38.97,116.26 64.52,164.65l242.71 0c-2.15,-25.68 -110.38,-292.93 -122.27,-322.6l-363.53 -930.86c-6.33,-18.47 -4.05,-34.09 -26.57,-34.09l-229.17 0c-23.78,0 -25.11,27.58 -39.66,68.19 -56.93,158.58 -160.16,406.41 -223.35,565.37 -42.89,108.1 -84.51,218.23 -127.02,324.62 -21.7,54.21 -40.93,105.7 -62.62,159.91 -13.6,33.97 -58.83,131.76 -59.71,169.46z"/>
  <path class="fil0" d="M7941.29 1833.64l249.41 0 122.15 -316.02c38.9,-107.34 80.84,-213.8 121.58,-323.36l241.7 -648.17 -235.94 0 -370.8 1071.86c-6.96,-83.62 -58.13,-197.17 -83.5,-273.83l-181.98 -532.54c-16.13,-45.92 -29.54,-88.81 -43.77,-131.57 -14.04,-42.13 -29.41,-98.68 -48.01,-133.91l-242.71 0 115.63 322.54c18.66,50.03 40.1,107.34 58.64,157.06 20.75,55.79 37.83,106.84 59.71,162.76l208.05 560.44c11.2,29.1 23.34,56.74 29.86,84.76z"/>
  <path class="fil0" d="M2083.05 1186.47c0,206.91 41.12,353.47 183.69,497.25 204.19,205.96 602.82,210.32 841.04,96.02l0 -202.29c-67.94,35.99 -151.31,76.35 -249.54,80.84 -113.67,5.12 -197.67,6.07 -287.62,-35.8 -243.85,-113.48 -301.66,-410.08 -216.08,-622.94 67.75,-168.38 226.45,-284.96 422.92,-284.96 141,0 215.95,13.66 330.32,74.13l0 -215.7c-78.94,-18.41 -54.15,-24.35 -174.08,-41.69l-148.02 -10.06c-148.71,8.16 -280.98,31.75 -388.58,102.85 -51.74,34.22 -77.55,52.75 -120.25,95.52 -121.45,121.64 -193.81,268.52 -193.81,466.82z"/>
  <path class="fil1" d="M530.33 706.31c1.64,-77.74 27.58,-125.37 87.36,-149.28 20.56,-8.29 27.83,-8.35 48.45,-12.21 69.71,-13.09 27.58,-47.82 89.38,-79.39 63.19,-32.32 137.77,1.39 160.29,47.69 18.28,37.45 15.24,166.36 15.94,214.94 1.64,115.19 -12.52,879.12 5.31,917.77 18.22,-9.3 13.47,-8.22 16,-37.76 1.14,-13.6 1.27,-29.92 1.71,-43.77 7.21,-213.3 -2.53,-478.71 -4.05,-694.67 -0.63,-87.23 -16.13,-319.63 29.29,-374.91 30.05,-36.56 86.28,-59.97 144.85,-28.53 57.63,30.93 41.31,61.8 72.74,74.32 5.63,2.28 123.54,6.45 148.33,102.35 18.91,73 -14.99,38.78 25.43,75.65 69.01,62.88 60.79,72.43 45.99,133.22 -11.32,46.37 1.01,47.25 14.36,82.93 28.59,76.35 -21.51,120.12 -40.17,147.07 -22.71,32.96 20.87,98.68 -22.46,165.79 -34.92,54.08 -95.89,40.04 -124.61,71.16 -15.56,16.89 -20.87,41.05 -39.91,61.1 -79.83,84.07 -164.27,26.5 -210.77,5 -8.29,65.22 -2.59,158.26 -2.72,226.64 -0.19,60.66 8.73,47.57 21.25,92.54 9.43,33.78 2.66,66.04 7.02,100.83 103.3,7.15 77.68,-44.72 129.29,-197.67 60.35,-178.7 350.12,-170.28 403.95,-568.47 51.81,-383.52 -232.4,-692.45 -582.52,-706.5 -367.32,-14.74 -664.75,282.88 -645.33,652.16 20.49,388.45 325.07,467.52 393.07,583.34 41.43,70.47 39.98,164.84 86.34,237.21l61.04 3.1c5.06,-181.92 25.24,-92.54 27.33,-196.72 1.45,-75.4 0,-150.86 -0.95,-226.26 -20.18,6.83 -148.4,101.08 -231.7,-29.03 -15.81,-24.67 -10.31,-34.73 -33.78,-47.44 -16.45,-8.86 -42.51,-10.56 -61.86,-18.79 -28.97,-12.27 -61.86,-52.82 -69.83,-91.78 -16.26,-79.76 31.25,-68.57 -18.72,-136.57 -24.92,-34.03 -44.15,-69.83 -23.15,-123.47 43.46,-111.2 -46.11,-166.99 77.8,-231.58z"/>
  <path class="fil0" d="M5979.56 728.07l384.27 0 0 1105.57 208.99 0c15.5,0 20.18,-4.68 20.18,-20.24l0 -1085.33 384.27 0 0 -181.98 -997.72 0 0 181.98z"/>
  <path class="fil0" d="M9235.62 701.12l13.47 0c1.39,62.18 214.24,547.16 236,640.39l-485.42 0c17.4,-74.51 230.44,-574.17 235.94,-640.39zm-566.26 1132.52l141.56 0c11.01,-47.13 138.66,-348.85 141.56,-384.27l579.8 0c7.02,30.17 23.4,69.01 35.55,99.25 13.79,34.22 25.74,63.76 38.65,96.21l56.61 145.61c20.3,53.77 -1.77,43.2 138.78,43.2 32.26,0 12.46,-23.02 -5.76,-68.38l-456.51 -1147.95c-34.85,-87.42 -2.66,-71.23 -144.41,-71.23 -23.59,0 -23.09,23.91 -40.48,67.37l-485.36 1220.19z"/>
  <path class="fil2" d="M985.7 1813.84l-87.61 1.14c-2.47,-50.73 -15.24,-125.88 39.53,-131.44 64.2,-6.45 49.66,78.88 48.07,130.31zm233.73 -534.25c-12.59,53.89 -32.01,91.21 -81.73,107.6 -56.23,18.53 -109.43,-8.86 -131.32,-41.05 -40.55,-59.65 -26.95,-641.28 -23.28,-746.41 2.28,-63.82 16,-108.29 75.65,-115.31 87.54,-10.31 77.49,45.48 108.61,88.62 53.07,9.17 89.57,2.47 121.64,32.32 31.56,29.41 30.43,69.2 33.02,123.92 67.37,22.77 84.7,57.56 59.14,133.4 -17.84,53.13 60.6,97.35 10.82,171.99 -18.22,27.39 -49.28,32.7 -46.94,61.55 3.1,37.45 84,156.94 -125.62,183.38zm-426.97 -131.51c-34.41,-23.97 -81.09,5.69 -102.79,26.95 -26.25,25.62 -40.36,56.42 -46.68,102.47 -124.49,-11.77 -126.51,-80.21 -104.88,-192.17 -24.16,-23.47 -58.95,-50.29 -61.61,-100.96 -8.1,-150.93 182.17,-155.99 219.87,-56.04 11.07,29.35 2.66,41.31 24.92,54.34 31.5,-45.54 -33.46,-111.08 -59.65,-127.33 -91.97,-56.99 -173.82,50.29 -175.79,-39.66 -0.25,-14.99 3.86,-30.49 10.88,-42.38 11.2,-18.98 38.08,-34.09 64.08,-43.08 2.21,-95.33 26.19,-165.98 130.12,-153.77 7.59,11.77 54.4,138.02 130.37,97.73l-14.36 -11.7c-9.99,-5.63 -120.44,-34.73 -76.03,-126.7 32.07,-66.48 126.51,-70.34 155.73,-6.45 26.57,57.88 13.22,391.42 13.28,481.88 0,135.43 45.8,373.77 -111.9,381.43 -72.17,3.48 -124.11,-52.56 -122.08,-125.24 2.53,-90.14 81.41,-79.57 126.51,-119.3zm-262.13 -441.77c-123.92,64.58 -34.35,120.37 -77.8,231.58 -21,53.64 -1.77,89.44 23.15,123.47 49.97,68 2.47,56.8 18.72,136.57 7.97,38.97 40.86,79.51 69.83,91.78 19.36,8.22 45.42,9.93 61.86,18.79 23.47,12.71 17.96,22.77 33.78,47.44 83.31,130.12 211.52,35.87 231.7,29.03 0.95,75.4 2.4,150.86 0.95,226.26 -2.09,104.18 -22.27,14.8 -27.33,196.72l-61.04 -3.1c-46.37,-72.36 -44.91,-166.74 -86.34,-237.21 -68,-115.82 -372.57,-194.89 -393.07,-583.34 -19.42,-369.28 278.01,-666.9 645.33,-652.16 350.12,14.04 634.32,322.98 582.52,706.5 -53.83,398.19 -343.6,389.78 -403.95,568.47 -51.62,152.95 -26,204.82 -129.29,197.67 -4.36,-34.79 2.4,-67.05 -7.02,-100.83 -12.52,-44.97 -21.44,-31.88 -21.25,-92.54 0.13,-68.38 -5.57,-161.43 2.72,-226.64 46.49,21.51 130.94,79.07 210.77,-5 19.04,-20.05 24.35,-44.22 39.91,-61.1 28.72,-31.12 89.7,-17.08 124.61,-71.16 43.33,-67.11 -0.25,-132.84 22.46,-165.79 18.66,-26.95 68.76,-70.72 40.17,-147.07 -13.35,-35.68 -25.68,-36.56 -14.36,-82.93 14.8,-60.79 23.02,-70.34 -45.99,-133.22 -40.42,-36.88 -6.52,-2.66 -25.43,-75.65 -24.8,-95.89 -142.7,-100.07 -148.33,-102.35 -31.44,-12.52 -15.12,-43.39 -72.74,-74.32 -58.57,-31.44 -114.81,-8.03 -144.85,28.53 -45.42,55.28 -29.92,287.68 -29.29,374.91 1.52,215.95 11.26,481.37 4.05,694.67 -0.44,13.85 -0.57,30.17 -1.71,43.77 -2.53,29.54 2.21,28.46 -16,37.76 -17.84,-38.65 -3.67,-802.58 -5.31,-917.77 -0.7,-48.58 2.34,-177.49 -15.94,-214.94 -22.52,-46.3 -97.1,-80.02 -160.29,-47.69 -61.8,31.56 -19.67,66.29 -89.38,79.39 -20.62,3.86 -27.9,3.92 -48.45,12.21 -59.78,23.91 -85.71,71.54 -87.36,149.28zm-247.2 230.75c0,219.94 84.13,374.28 230.82,510.72 31.37,29.22 71.67,51.43 106.27,75.78 43.46,30.62 58.95,45.61 78.5,103.55 15.94,47.5 25.11,98.68 41.69,140.3 11.07,27.71 20.37,35.55 30.05,57.56 33.02,74.89 -40.29,89.57 166.61,89.57 37.32,0 62.18,-1.39 89.51,-4.81 42,-5.31 65.66,11.2 76.54,-24.61 11.01,-36.18 1.71,-36.69 20.3,-74.07 13.66,-27.39 20.81,-39.79 30.3,-70.85 15.69,-51.36 22.58,-103.68 45.92,-149.53 49.66,-97.6 164.97,-84.13 302.42,-297.55 142.07,-220.57 126.51,-519.32 -31.37,-734.64 -185.21,-252.51 -509.46,-334.68 -798.53,-209.88 -223.29,96.4 -389.02,337.09 -389.02,588.46z"/>
  <path class="fil0" d="M9970.45 1813.4c0,15.56 4.68,20.24 20.24,20.24l674.11 0 0 -114.62 -559.55 0 0 -485.36 492.12 0 0 -107.85 -492.12 0 0 -465.18 525.84 0 0 -114.55 -660.64 0 0 1267.31z"/>
  <path class="fil0" d="M7112.14 1813.4c0,15.56 4.68,20.24 20.18,20.24l215.76 0 0 -1287.56 -235.94 0 0 1267.31z"/>
  <polygon class="fil0" points="4449.3,1833.64 4678.47,1833.64 4678.47,546.08 4449.3,546.08 "/>
  <path class="fil3" d="M485.86 815.67c1.96,89.95 83.81,-17.33 175.79,39.66 26.19,16.26 91.15,81.79 59.65,127.33 -22.27,-13.03 -13.85,-24.99 -24.92,-54.34 -37.7,-99.94 -227.97,-94.88 -219.87,56.04 2.66,50.67 37.45,77.49 61.61,100.96 -21.63,111.96 -19.61,180.4 104.88,192.17 6.33,-46.05 20.43,-76.85 46.68,-102.47 21.7,-21.25 68.38,-50.92 102.79,-26.95 -45.1,39.72 -123.98,29.16 -126.51,119.3 -2.02,72.68 49.91,128.72 122.08,125.24 157.69,-7.65 111.9,-246 111.9,-381.43 -0.06,-90.45 13.28,-424 -13.28,-481.88 -29.22,-63.89 -123.66,-60.03 -155.73,6.45 -44.41,91.97 66.04,121.07 76.03,126.7l14.36 11.7c-75.97,40.29 -122.78,-85.96 -130.37,-97.73 -103.93,-12.21 -127.9,58.45 -130.12,153.77 -26,8.98 -52.88,24.1 -64.08,43.08 -7.02,11.89 -11.13,27.39 -10.88,42.38z"/>
  <path class="fil3" d="M1286.42 877.73c57.63,88.49 -111.33,136.95 -108.04,32.51 1.39,-42.57 21.95,-22.58 -5.57,-74.58 -20.43,-38.59 -39.79,-92.61 -69.52,-113.73l-0.76 107.28c-0.06,88.05 13.16,124.36 -30.68,125.75 -22.08,-29.86 -12.21,-131.06 -10.88,-173 1.52,-48.2 8.03,-50.03 -16.76,-80.4 -12.78,-15.56 -27.39,-36.94 -18.91,-65.53 13.28,-44.59 99.06,-56.04 113.99,18.91 7.65,38.52 1.77,41.43 21.06,72.49 14.42,23.28 52.88,101.84 67.68,114.24 22.14,18.6 45.16,15.75 58.38,36.06zm-66.99 401.86c209.63,-26.44 128.72,-145.93 125.62,-183.38 -2.34,-28.84 28.72,-34.16 46.94,-61.55 49.78,-74.64 -28.65,-118.86 -10.82,-171.99 25.56,-75.84 8.22,-110.63 -59.14,-133.4 -2.59,-54.72 -1.45,-94.5 -33.02,-123.92 -32.07,-29.86 -68.57,-23.15 -121.64,-32.32 -31.12,-43.14 -21.06,-98.93 -108.61,-88.62 -59.65,7.02 -73.38,51.49 -75.65,115.31 -3.67,105.13 -17.27,686.76 23.28,746.41 21.89,32.2 75.08,59.59 131.32,41.05 49.72,-16.38 69.14,-53.7 81.73,-107.6z"/>
  <path class="fil0" d="M10064.83 444.94l94.38 0c16,-23.91 132.46,-193.88 155.04,-208.99 8.1,30.36 132.9,176.54 141.56,208.99l101.14 0c-8.6,-32.2 -144.16,-215.26 -180.53,-271.11 -25.49,-39.15 -13.54,-32.26 -95.89,-32.26 -14.55,0 -5.63,-7.97 -32.01,28.65l-183.69 274.72z"/>
  <path class="fil4" d="M1071.86 954.96c43.84,-1.39 30.62,-37.7 30.68,-125.75l0.76 -107.28c29.73,21.13 49.09,75.15 69.52,113.73 27.52,52 6.96,32.01 5.57,74.58 -3.29,104.43 165.66,55.98 108.04,-32.51 -13.22,-20.3 -36.25,-17.46 -58.38,-36.06 -14.8,-12.4 -53.26,-90.96 -67.68,-114.24 -19.29,-31.06 -13.41,-33.97 -21.06,-72.49 -14.93,-74.96 -100.7,-63.51 -113.99,-18.91 -8.48,28.59 6.14,49.97 18.91,65.53 24.8,30.36 18.28,32.2 16.76,80.4 -1.33,41.94 -11.2,143.15 10.88,173z"/>
  <path class="fil2" d="M782.02 2035.86c44.41,10.37 35.61,-3.04 59.97,27.71 35.8,45.04 55.03,33.02 148.97,33.02 35.61,0 34.79,-15.24 50.79,-36.88 27.14,-36.69 2.15,2.09 63.82,-30.55 -28.59,-54.08 -75.91,-31.63 -155.86,-29.73 -76.29,1.77 -166.17,-31.5 -167.69,36.43z"/>
  <path class="fil2" d="M782.02 1934.78c0,27.33 -3.8,40.42 20.18,40.42 74.7,0 240.18,7.97 303.37,-6.71l0 -27.01c-86.53,-20.12 -227.4,-6.71 -323.55,-6.71z"/>
  <path class="fil3" d="M985.7 1813.84c1.58,-51.43 16.13,-136.76 -48.07,-130.31 -54.78,5.57 -42,80.71 -39.53,131.44l87.61 -1.14z"/>
  <path class="fil2" d="M916.82 40.48c0,41.75 -3.86,91.91 13.47,128.09 45.48,-10.63 33.71,-14.3 33.71,-134.86 0,-18.22 -3.23,-18.6 -6.71,-33.71 -31.69,0.7 -40.48,9.61 -40.48,40.48z"/>
  <path class="fil2" d="M1719.02 957.3c67.81,15.75 113.42,4.55 168.57,0 -12.27,-52.69 -26.44,-40.48 -128.09,-40.48 -30.81,0 -39.72,8.79 -40.48,40.48z"/>
  <path class="fil2" d="M-0 923.59l0 33.71c48.52,1.08 135.75,28.78 168.51,-20.24 -35.74,-37.7 -120.5,-18.53 -168.51,-13.47z"/>
  <path class="fil2" d="M377.51 397.75c62.18,0 -53.26,-125.12 -90.33,-125.56 -50.48,-0.51 12.9,58.45 21.19,66.61 14.55,14.23 48.83,58.95 69.14,58.95z"/>
  <path class="fil2" d="M269.66 1590.99c0,70.09 126.76,-68.82 126.57,-89.38 -0.63,-65.41 -126.57,70.47 -126.57,89.38z"/>
  <path class="fil2" d="M1489.85 1503.32c0,28.15 120.18,148.97 119.74,89.44 -0.13,-16.19 -39.47,-59.21 -52.19,-69.33 -10.18,-8.1 -67.56,-73.38 -67.56,-20.12z"/>
  <path class="fil2" d="M1503.32 397.75c17.58,0 74.2,-63.13 96.78,-85.71 20.43,-20.49 17.65,-14.23 11.07,-42.38 -37.89,0.82 -35.8,12.27 -79.2,55.6 -7.46,7.46 -86.79,72.49 -28.65,72.49z"/>
 </g>
</svg>
