<?xml version="1.0" encoding="UTF-8"?>
<!DOCTYPE svg PUBLIC "-//W3C//DTD SVG 1.1//EN" "http://www.w3.org/Graphics/SVG/1.1/DTD/svg11.dtd">
<!-- Creator: CorelDRAW -->
<svg xmlns="http://www.w3.org/2000/svg" xml:space="preserve" width="14.8501mm" height="3.0653mm" version="1.1" style="shape-rendering:geometricPrecision; text-rendering:geometricPrecision; image-rendering:optimizeQuality; fill-rule:evenodd; clip-rule:evenodd"
viewBox="0 0 228.56 47.18"
 xmlns:xlink="http://www.w3.org/1999/xlink"
 xmlns:xodm="http://www.corel.com/coreldraw/odm/2003">
 <defs>
  <style type="text/css">
   <![CDATA[
    .fil0 {fill:black}
   ]]>
  </style>
 </defs>
 <g id="Camada_x0020_1">
  <metadata id="CorelCorpID_0Corel-Layer"/>
  <g id="_1735559060736">
   <path class="fil0" d="M30.79 0l-13.55 0.01c0.05,3.3 0.05,7.62 0,12.85 -1.63,-0.02 -3.7,0 -6.21,0.08 -4.83,0.46 -8.08,2.76 -9.76,6.9 -1.02,1.86 -1.43,4.99 -1.21,9.4 0,1.26 0,3.37 0,6.35 1,6.34 4.63,10.02 10.89,11.05 8,1.03 14.72,-0.13 20.16,-3.49 -0.23,-12.92 -0.33,-27.19 -0.31,-43.16zm-13.43 24.66l-2.46 0c-0.59,0 -1.07,0.48 -1.07,1.07l0 8.1c0,0.8 0.66,1.46 1.46,1.46l2.08 0 0 -10.63z"/>
   <path class="fil0" d="M47.73 33.32c6.1,0.07 12.32,0.1 18.67,0.09 0.02,-3.1 0.05,-5.74 0.08,-7.93 -0.24,-5.65 -3.41,-9.61 -9.49,-11.9 -8.18,-1.92 -14.49,-0.86 -18.92,3.2 -2.9,2.71 -4.2,6.66 -3.88,11.86 -0.03,0.86 -0.02,2.69 0.02,5.51 0.46,6.63 4.16,10.85 11.1,12.65 10.41,1.41 17.05,-1.06 19.92,-7.39 -3.6,-1.43 -7.15,-2.91 -10.65,-4.42 -1.6,2.24 -3.55,2.87 -5.86,1.89 -0.93,-0.81 -1.27,-1.99 -1.01,-3.55zm0.1 -8.25l0 -1.57c0,-0.86 0.71,-1.57 1.57,-1.57l1.75 0c0.86,0 1.57,0.71 1.57,1.57l0 1.57 -4.89 0z"/>
   <path class="fil0" d="M80.24 12.87c-5.96,0.69 -9.85,3.4 -11.68,8.11 3.6,1.59 7.18,3.12 10.76,4.57 0.81,-1.67 1.68,-2.65 2.62,-2.93 1.56,-0.38 2.64,-0.04 3.24,1.02 -0.03,0.67 -0.03,1.52 -0,2.56 -1.65,-0.08 -3.6,-0.07 -5.87,0.02 -2.86,0.06 -5.32,0.7 -7.36,1.92 -2.16,1.39 -3.37,3.63 -3.62,6.71 -0.37,4.67 0.82,7.84 3.6,9.51 3.06,2.3 9.16,3.1 18.3,2.4 2.74,-0.16 5.61,-1.09 8.6,-2.8 0.01,-5.71 -0,-11.9 -0.05,-18.57 -0.26,-5.24 -2.45,-8.94 -6.55,-11.12 -2.52,-1.34 -6.52,-1.81 -11.99,-1.41zm4.98 25.58l-1.9 0c-1.04,0 -1.9,-0.85 -1.9,-1.9l0 -0.18c0,-1.04 0.85,-1.9 1.9,-1.9l1.9 0 0 3.98z"/>
   <rect class="fil0" x="102.2" y="0.02" width="13.93" height="46.17"/>
   <path class="fil0" d="M119.85 0.02l13.93 0 0 12.9c1.5,-0.05 3.19,-0.06 5.06,-0.04 3.78,0.1 6.93,1.62 9.45,4.56 2.18,2.81 3.07,7.03 2.68,12.66 -0,0.8 -0.08,2.44 -0.22,4.93 -1.2,7.9 -6.19,11.9 -14.96,12 -7.51,0.1 -12.82,-1.27 -15.93,-4.11l0 -1.07 0 -0.02 0 -0.09 0 -0.09 0 -0.09 0 -0.09 0 -0.09 0 -0.09 0 -0.09 0 -0.09 0 -0.09 0 -0.09 0 -0.09 0 -0.09 0 -0.09 0 -0.09 0 -0.09 0 -0.09 0 -0.09 0 -0.09 0 -0.09 0 -0.09 0 -0.09 0 -0.09 0 -0.09 0 -0.09 0 -0.09 0 -0.09 0 -0.09 0 -0.09 0 -0.09 0 -0.09 0 -0.09 0 -0.09 0 -0.09 0 -0.09 0 -0.09 0 -0.09 0 -0.09 0 -0.09 0 -0.09 0 -0.09 0 -0.09 0 -0.09 0 -0.09 0 -0.09 0 -0.09 0 -0.09 0 -0.09 0 -0.09 0 -0.09 0 -0.09 0 -0.09 0 -0.09 0 -37.14zm13.82 24.64l2.46 0c0.59,0 1.07,0.48 1.07,1.07l0 8.1c0,0.8 -0.66,1.46 -1.46,1.46l-2.08 0 0 -10.63z"/>
   <polygon class="fil0" points="155.13,16.93 169.06,16.93 169.06,32.26 184.39,32.26 184.39,46.19 169.06,46.19 155.13,46.19 155.13,32.26 "/>
   <rect class="fil0" x="172.73" y="13.69" width="14.57" height="14.57"/>
   <polygon class="fil0" points="190.94,13.69 205.51,13.69 209.75,19.65 213.99,13.69 228.56,13.69 217.03,29.9 228.56,46.12 213.99,46.12 209.75,40.16 205.51,46.12 190.94,46.12 202.46,29.9 "/>
  </g>
 </g>
</svg>
