<?xml version="1.0" encoding="UTF-8"?>
<!DOCTYPE svg PUBLIC "-//W3C//DTD SVG 1.1//EN" "http://www.w3.org/Graphics/SVG/1.1/DTD/svg11.dtd">
<!-- Creator: CorelDRAW -->
<svg xmlns="http://www.w3.org/2000/svg" xml:space="preserve" width="9.539mm" height="4.1572mm" version="1.1" style="shape-rendering:geometricPrecision; text-rendering:geometricPrecision; image-rendering:optimizeQuality; fill-rule:evenodd; clip-rule:evenodd"
viewBox="0 0 911.16 397.1"
 xmlns:xlink="http://www.w3.org/1999/xlink"
 xmlns:xodm="http://www.corel.com/coreldraw/odm/2003">
 <defs>
  <style type="text/css">
   <![CDATA[
    .fil0 {fill:black}
   ]]>
  </style>
 </defs>
 <g id="Camada_x0020_1">
  <metadata id="CorelCorpID_0Corel-Layer"/>
  <g id="_1735425653984">
   <path class="fil0" d="M655.31 101.9l-6.17 0 -14.5 1.09 -13.78 2.54 -12.88 4.36 -12.33 5.98 0 -34.82 -59.47 0 0 237.54 59.47 0 0 -104.08 2 -14.15 5.26 -12.69 8.34 -10.7 10.7 -8.34 12.88 -5.25 14.32 -1.81 6.17 0 0 -45.7 0 -13.97zm78.52 29.38l-2.9 -12.33 -7.62 -9.79 -11.41 -6.72 -13.78 -2.35 -13.97 2.35 -11.24 6.72 -7.61 9.79 -2.72 12.33 2.72 11.97 7.61 9.97 11.24 6.71 13.97 2.54 13.78 -2.54 11.41 -6.71 7.62 -9.97 2.9 -11.97zm177.33 -91.21l-8.88 0 -13.97 0.91 -13.24 2.36 -12.88 3.98 -12.32 5.26 -11.42 6.71 -10.52 7.99 -9.61 9.06 -8.35 10.15 -7.07 11.06 -5.8 11.97 -4.36 12.69 -2.54 13.59 -0.91 14.15 0 136.72 -2 13.78 -5.25 12.15 -8.16 10.15 -10.7 7.79 -12.88 5.08 -14.51 1.62 -8.16 0 0 -148.14 -59.47 0 0 207.8 59.47 0 0 -0.36 8.16 0 13.78 -0.91 13.42 -2.36 12.88 -3.98 12.14 -5.26 11.42 -6.71 10.7 -7.99 9.43 -9.06 8.35 -10.15 7.25 -11.06 5.8 -11.97 4.17 -12.69 2.72 -13.6 0.91 -14.15 0 -136.72 1.81 -13.78 5.25 -12.15 8.34 -10.15 10.7 -7.79 12.88 -5.08 14.51 -1.62 8.88 0 0 -59.3z"/>
   <path class="fil0" d="M515.3 396.16l-12.65 0 -9.5 -14.76 -2.95 3.59 0 11.17 -10.86 0 0 -46.95 10.86 0 0 28.03 11.7 -14.96 12.52 0 -12.19 14.6 13.07 19.28zm25.31 0l-10.86 0 0 -33.88 10.86 0 0 33.88zm0.31 -38.71l-11.47 0 0 -8.23 11.47 0 0 8.23zm52.17 38.71l-10.86 0 0 -3.52c-1.87,1.53 -3.62,2.65 -5.25,3.37 -1.62,0.73 -3.51,1.09 -5.64,1.09 -4.13,0 -7.43,-1.59 -9.91,-4.77 -2.47,-3.18 -3.71,-7.46 -3.71,-12.86 0,-2.88 0.42,-5.43 1.25,-7.65 0.83,-2.22 1.98,-4.13 3.42,-5.71 1.38,-1.51 3.03,-2.68 4.99,-3.52 1.95,-0.84 3.9,-1.25 5.86,-1.25 2.03,0 3.69,0.21 4.99,0.65 1.3,0.43 2.64,0.97 4,1.64l0 -14.42 10.86 0 0 46.95zm-10.86 -9.35l0 -16.63c-0.76,-0.32 -1.57,-0.55 -2.42,-0.69 -0.84,-0.14 -1.61,-0.22 -2.32,-0.22 -2.86,0 -5,0.9 -6.43,2.67 -1.42,1.78 -2.14,4.25 -2.14,7.41 0,3.31 0.57,5.72 1.72,7.22 1.15,1.5 2.99,2.24 5.52,2.24 0.98,0 2.03,-0.18 3.14,-0.55 1.1,-0.37 2.07,-0.86 2.92,-1.46zm59.53 -1.39c0,3.5 -1.57,6.31 -4.71,8.46 -3.13,2.14 -7.43,3.21 -12.88,3.21 -3.02,0 -5.76,-0.28 -8.21,-0.84 -2.45,-0.56 -4.42,-1.19 -5.91,-1.87l0 -8.93 0.99 0c0.54,0.38 1.17,0.79 1.89,1.25 0.72,0.45 1.72,0.94 3.03,1.46 1.13,0.46 2.41,0.86 3.83,1.19 1.43,0.33 2.96,0.5 4.59,0.5 2.13,0 3.71,-0.24 4.74,-0.71 1.02,-0.48 1.54,-1.17 1.54,-2.1 0,-0.82 -0.31,-1.42 -0.91,-1.8 -0.6,-0.37 -1.75,-0.73 -3.44,-1.07 -0.8,-0.18 -1.9,-0.38 -3.28,-0.59 -1.38,-0.21 -2.63,-0.47 -3.75,-0.76 -3.08,-0.8 -5.36,-2.06 -6.85,-3.75 -1.49,-1.7 -2.24,-3.82 -2.24,-6.35 0,-3.27 1.55,-5.97 4.63,-8.14 3.09,-2.16 7.31,-3.24 12.66,-3.24 2.53,0 4.97,0.26 7.29,0.76 2.32,0.52 4.14,1.06 5.44,1.64l0 8.58 -0.94 0c-1.6,-1.11 -3.44,-2.02 -5.5,-2.7 -2.06,-0.7 -4.16,-1.04 -6.27,-1.04 -1.75,0 -3.22,0.24 -4.42,0.73 -1.19,0.48 -1.8,1.17 -1.8,2.04 0,0.81 0.28,1.42 0.82,1.84 0.54,0.42 1.81,0.85 3.83,1.27 1.11,0.22 2.29,0.44 3.57,0.65 1.28,0.21 2.56,0.48 3.85,0.79 2.86,0.75 4.97,1.92 6.33,3.52 1.38,1.6 2.05,3.6 2.05,6z"/>
   <path class="fil0" d="M337.27 336.55l-95.93 0 48.06 48.05 47.87 -48.05zm-192.93 -252.41l-13.42 0.54 -13.06 1.81 -12.69 3.09 -12.33 3.98 -11.79 5.08 -11.05 5.98 -10.53 6.9 -9.97 7.98 -9.06 8.52 -8.34 9.43 -7.43 10.15 -6.72 10.88 -5.62 11.24 -4.72 11.97 -3.62 12.51 -2.54 12.88 -1.27 13.23 -0.18 13.6 1.09 13.42 2.36 13.24 3.44 12.69 4.72 12.33 5.62 11.79 6.72 11.24 7.79 10.52 8.52 9.79 9.43 9.06 10.15 8.17 10.88 7.07 11.61 6.34 12.15 5.08 12.69 4.16 13.24 2.72 15.23 1.81 15.05 0 14.69 -1.27 14.14 -2.9 13.78 -4.16 13.06 -5.44 12.51 -6.52 11.6 -7.79 10.88 -8.7 95.93 0 5.07 -5.08 -24.48 -24.48 -8.52 -9.97 -160.29 0 -13.6 -0.36 -12.69 -2.9 -11.61 -5.07 -10.52 -7.07 -8.71 -8.89 -7.07 -10.34 -5.07 -11.6 -2.9 -12.69 -0.54 -13.6 2.54 -14.15 5.07 -12.88 7.61 -11.6 9.8 -9.8 11.42 -7.79 13.05 -5.25 13.97 -2.36 149.59 0 0 -58.75 -76.34 0 -12.51 -6.16 -13.05 -5.08 -13.6 -3.62 -14.51 -2.18 -15.04 -0.73zm145.06 76.52l-149.59 0 13.6 0.36 12.69 2.9 11.78 5.25 10.34 7.07 8.89 8.89 7.25 10.52 5.07 11.79 2.9 12.69 0.54 13.42 -2.54 14.15 -5.25 12.88 -7.61 11.6 -9.8 9.62 -11.6 7.61 -13.06 5.25 -13.97 2.36 160.29 0 -1.45 -1.63 -7.98 -13.05 -5.8 -14.15 -3.63 -14.69 -1.09 -15.41 0 -77.43zm0 -160.65l-76.34 0 0 101.9 76.34 0 0 -101.9z"/>
   <path class="fil0" d="M407.44 109.7l-13.06 0.73 -12.69 2.17 -12.15 3.63 -11.6 4.9 -10.88 6.16 -9.97 7.25 -9.26 8.17 -8.34 9.25 -7.07 10.15 -6.17 10.88 -4.89 11.61 -3.45 12.15 -2.18 12.69 -0.91 13.24 0.91 14.15 2.54 13.6 4.17 13.05 5.62 12.15 6.9 11.42 8.34 10.52 9.43 9.25 10.34 8.35 11.42 6.89 12.33 5.62 12.88 4.17 13.59 2.54 14.15 0.91 13.24 -0.73 12.69 -2.36 12.14 -3.45 11.61 -4.89 10.88 -6.17 10.15 -7.07 9.25 -8.34 8.17 -9.06 7.25 -10.16 4.17 -7.25 -99.55 0 -14.15 -2 -12.69 -5.25 -10.7 -8.34 -8.34 -10.7 -5.25 -12.69 -1.81 -14.15 1.81 -14.33 5.25 -12.69 8.34 -10.88 10.7 -8.35 12.69 -5.25 14.15 -2 99.37 0 -3.99 -7.07 -7.25 -10.15 -8.17 -9.25 -9.25 -8.17 -10.15 -7.25 -10.88 -6.16 -11.61 -4.9 -12.14 -3.63 -12.69 -2.17 -13.24 -0.73zm99.37 59.47l-99.37 0 14.33 2 12.69 5.25 10.88 8.35 8.35 10.88 5.44 12.69 1.81 14.33 -1.81 14.15 -5.44 12.69 -8.35 10.7 -10.88 8.34 -12.69 5.25 -14.33 2 99.55 0 1.99 -3.63 4.9 -11.41 3.63 -12.33 2.17 -12.69 0.73 -13.06 -0.73 -13.24 -2.17 -12.69 -3.63 -12.15 -4.9 -11.61 -2.17 -3.81z"/>
  </g>
 </g>
</svg>
