<?xml version="1.0" encoding="UTF-8"?>
<!DOCTYPE svg PUBLIC "-//W3C//DTD SVG 1.1//EN" "http://www.w3.org/Graphics/SVG/1.1/DTD/svg11.dtd">
<!-- Creator: CorelDRAW -->
<svg xmlns="http://www.w3.org/2000/svg" xml:space="preserve" width="18.098mm" height="4.2422mm" version="1.1" style="shape-rendering:geometricPrecision; text-rendering:geometricPrecision; image-rendering:optimizeQuality; fill-rule:evenodd; clip-rule:evenodd"
viewBox="0 0 22946.45 5378.68"
 xmlns:xlink="http://www.w3.org/1999/xlink"
 xmlns:xodm="http://www.corel.com/coreldraw/odm/2003">
 <defs>
  <style type="text/css">
   <![CDATA[
    .fil0 {fill:black}
   ]]>
  </style>
 </defs>
 <g id="Camada_x0020_1">
  <metadata id="CorelCorpID_0Corel-Layer"/>
  <g id="_1735354300592">
   <path class="fil0" d="M11494.91 3477.34c166.35,0 703.18,-33.09 824.77,-7.86 165.59,34.36 133,50.72 134.52,255.86 1.01,143.02 -4.94,293.77 -4.94,438.82 639.91,149.11 1315.45,185.75 1707.23,-414.1 62.63,-95.98 -0.89,-23.58 71.13,-106.38l86.85 390.39c4.82,-219.98 85.46,-328.77 130.09,-520.6 -509.19,118.68 -192.59,-358.44 -51.6,-529.09 175.98,-212.88 432.35,-318.88 702.29,-381.76 0,-767.08 195.13,-607.32 -1084.43,-607.32 -1064.4,0 -910.99,-209.58 -910.99,824.13l1089.89 0c-127.8,495.62 -815.64,618.48 -1253.45,554.2 -506.91,-74.43 -892.47,-372.89 -922.4,-943.57 -85.08,-1623.17 1940.27,-1318.74 2083.67,-781.79l954.35 0c-122.48,-1471.78 -3309.85,-1970.95 -3833.49,70.5 -169.26,659.43 -31.57,1361.34 276.53,1758.58z"/>
   <path class="fil0" d="M21167.97 1908.57c1164.82,0 893.87,1188.28 699.5,1393.55 -204.77,216.18 -708.12,265.5 -1032.58,160.9 -13.44,-4.44 -51.98,-18 -65.04,-23.08 -668.94,-260.43 -640.54,-1531.37 398.12,-1531.37zm954.35 -303.66c-285.78,-76.33 -256.37,-433.75 -1214.65,-433.75 -391.65,0 -756.94,141.75 -966.14,335.11 -509.44,470.77 -479.01,1259.53 -335.11,1877.13 194.24,-142.39 197.54,-520.6 520.47,-520.6 454.42,0 -186.25,883.35 -216.81,997.71 72.4,108.15 153.92,145.68 260.17,216.94 126.03,-84.44 58.32,-87.74 216.94,-130.21 59.46,106 43.36,80.26 43.36,260.3 370.23,8.24 865.21,167.74 1403.69,-158.74 148.6,-90.02 207.94,-246.48 267.02,-122.86 161.66,337.77 -455.43,324.96 845.18,324.96l0 -3947.23 -824.13 0 0 1301.25z"/>
   <path class="fil0" d="M16873.72 3470.11c-353.24,0 -711.8,-102.95 -837.45,-420.44 -122.61,-310 -78.99,-711.29 138.96,-928.74 312.41,-311.52 1525.54,-420.94 1550.13,573.85 11.79,480.91 -340.18,775.32 -851.65,775.32zm-1301.63 -173.45l-43.11 173.45c246.61,0 493.47,1.78 739.95,-2.54 413.21,-7.23 344.49,1.9 343.98,391.02l173.96 -41.21c229.87,14.07 389.88,-246.73 675.54,104.98 4.06,4.94 11.79,17.12 18.51,24.85 -118.04,223.15 -107.64,55.03 -130.09,260.3 568.15,-132.37 281.98,-230.25 712.81,-414.98 284.9,-122.1 392.8,-377.45 469.76,-701.4 364.14,-1534.16 -1208.69,-2340.29 -2448.06,-1840.86 -326.1,131.35 -437.43,227.84 -654.74,473.18 -166.09,187.52 -292,535.56 -292,879.16 146.32,70.24 260.3,65.17 356.28,208.06 148.22,220.49 13.82,296.56 77.22,485.99z"/>
   <path class="fil0" d="M7027.08 4424.46c46.15,-46.15 164.57,68.85 48.31,22.44 -1.01,-0.38 -120.96,50.21 -48.31,-22.44zm303.66 -43.36c-81.15,51.35 96.87,48.69 -86.72,35.75 -92.68,-6.59 -38.8,-5.33 -86.85,-35.75l173.58 0zm0 0c46.53,-29.67 0.89,-24.85 90.53,-39.69 39.3,-6.47 86.09,-3.8 126.28,-3.8l0 43.49 -216.81 0zm347.02 -43.49c159.25,-151.01 73.03,-184.73 3.17,-523.64 -77.85,-377.58 -20.41,-420.69 -220.11,-473.94 14.83,178.27 43.36,96.87 43.36,260.17 0,328.13 -607.2,184.1 -607.2,347.02 0,258.14 81.4,326.61 86.72,563.96 -243.56,56.8 -435.27,185.24 -990.23,-180.93 -586.66,-387.22 -455.05,-521.61 -701.53,-686.57 -118.04,176.24 -191.58,333.96 -433.75,390.39 74.68,279.57 548.37,682.51 782.55,822.36 685.43,409.4 919.48,392.16 1689.98,392.16 567.77,0 1256.36,-406.87 1551.15,-704.45 340.56,-343.98 740.45,-854.94 791.17,-1464.42 -205.02,-98.39 -177.89,27.26 -607.32,-260.3 -58.45,251.3 -58.07,344.49 -154.18,583.23 -89.77,222.64 -130.72,300.24 -268.79,468.62 -122.73,149.74 -211.11,247.24 -376.06,361.86 -254.09,176.75 -235.83,104.47 -588.94,104.47z"/>
   <path class="fil0" d="M6246.31 3513.48c190.57,-4.18 135.03,-29.29 303.66,-43.36 -43.74,38.04 -56.42,66.44 -141.12,78.99 -186.76,27.89 -131.86,-15.34 -162.54,-35.63zm0 0zm347.02 -86.72l-347.02 86.72zm347.02 -86.72l-43.36 43.36 43.36 -43.36zm-477.24 0zm563.96 -43.36l-563.96 43.36zm563.96 -43.36l-86.72 43.36 86.72 -43.36zm0 -303.66c6.09,9.51 9.76,15.34 11.54,31.82 1.65,16.74 8.62,24.98 11.03,32.33 80.26,252.69 22.19,239.51 497.9,239.51 -52.62,33.35 -0.13,17.37 -96.36,35.75 -38.67,7.35 -122.35,12.93 -161.4,11.66 -131.61,-4.56 -161.78,-23.96 -262.71,-47.42l0 -303.66zm650.69 0c-15.6,-82.03 54.65,-154.3 27.39,-27.39 -0.63,2.92 1.27,178.77 -27.39,27.39zm-650.69 0c-51.48,-81.15 -48.81,96.87 -35.75,-86.72 6.47,-92.56 5.33,-38.8 35.75,-86.72l0 173.45zm1214.52 -86.72c-44,-58.2 -43.36,91.16 -43.36,-130.21 40.19,53.12 28.15,-48.69 43.36,130.21zm-1778.48 433.75c-476.98,-319.51 -244.96,399.64 192.85,504.75 131.1,31.44 1024.84,-204.39 1108.52,-244.45 0,-231.01 4.18,-285.28 -216.94,-303.66 147.58,-128.31 132.5,-63.14 173.58,-216.94 202.61,213.64 417.14,27.64 520.47,0l0 -173.45c6.09,8.75 12.68,13.44 15.34,28.02l114.87 145.43c200.84,-106.25 308.99,-170.53 237.73,-494.35 -158.61,-722.07 -196.27,-993.91 -605.93,-966.01 -186.63,12.68 -143.4,-26.12 -294.53,-48.69 -245.47,-36.64 -189.55,50.84 -336.25,55.28 -106.25,3.3 -160.9,-70.5 -298.84,-59.21 -129.96,10.52 -149.23,85.2 -255.99,132.62 -287.94,127.93 -826.04,-217.06 -459.87,1312.02 42.22,176.62 71.89,186.25 104.98,328.64z"/>
   <path class="fil0" d="M4511.19 1951.93c102.83,49.32 210.34,63.78 317.36,116.39 134.4,66.18 131.23,110.05 246.61,187.27 248,-516.92 84.7,-537.72 639.15,-1095.97 709.14,-713.95 2126.14,-721.43 2878.51,180.8 76.83,92.18 31.06,97.37 169.39,134.4 46.91,-201.47 149.99,-381.26 347.02,-433.75 -35.63,-427.54 -1163.42,-1041.07 -1952.06,-1041.07 -1272.46,0 -2358.17,716.49 -2645.98,1951.93z"/>
   <path class="fil0" d="M18999.1 3947.23l6.21 228.86 167.36 -43.36c86.85,-8.62 48.69,27.51 163.81,-62.63 196.78,-154.05 140.48,-432.23 139.85,-686.69l1.52 -2690.86c4.31,-250.54 174.97,-486.37 -700.01,-393.3 -234.82,24.85 -175.22,123.49 -170.66,393.3l1.52 3298.06c248.76,-166.48 30.94,-245.34 242.04,-332.82 257.89,-106.88 158.74,165.59 148.34,289.46z"/>
   <path class="fil0" d="M4467.82 2949.64c0,583.99 -142.39,520.47 -867.5,520.47 50.34,605.8 1344.48,881.95 1626.72,69.23 81.27,-234.05 -101.69,-125.78 473.81,-311.78 222.01,-71.76 202.74,-55.15 216.94,-139.47 1.9,-10.9 -48.94,-313.17 -49.57,-317.1 -24.47,-165.46 -24.72,-208.7 -55.66,-341.95 -267.4,62.38 -312.03,86.85 -650.69,86.85l-119.69 -140.61c-163.43,-178.65 -167.74,-199.57 -336.37,-270.95 -659.31,-279.19 -1108.65,282.23 -1084.31,464.05 33.35,249.65 846.32,-185.62 846.32,381.26z"/>
   <path class="fil0" d="M8848.93 1517.93c-99.53,49.45 37.53,-79.24 -46.15,49.45 -22.44,34.74 -30.43,57.94 -55.53,106.25 -55.79,107.9 -59.08,107.64 -115.25,191.58 0,236.97 -20.41,497.14 20.41,654.24l-323.82 -39.81c9.64,10.52 22.82,24.72 28.53,31.95l52.11 73.79c1.39,-4.06 3.93,11.54 6.09,17.24 207.68,-3.3 394.19,-89.77 564.47,-1.9 48.05,24.72 617.21,731.7 1257.25,175.35 -620.13,0 -563.96,122.61 -563.96,-477.11 -49.96,-104.22 -98.64,-220.87 -89.26,-388.86 5.33,-96.99 12.43,-123.11 40.45,-179.91 47.55,-96.36 15.98,-126.03 308.61,-173.07 75.82,-12.17 138.71,-15.21 160.52,-16.23 84.06,-3.8 170.15,20.67 360.46,20.67 -9,-404.59 -431.72,-584.25 -823.88,-607.32l0 390.39c-127.68,0.89 -268.16,-7.23 -392.67,-4.44 -356.41,7.73 -104.98,13.31 -388.36,177.76z"/>
   <path class="fil0" d="M18174.96 4511.19c-37.53,140.48 -321.92,598.45 -438.57,481.93 -67.96,-67.96 75.82,-187.27 143.78,-255.48 131.73,-131.86 129.45,-138.96 294.79,-226.45zm-1301.25 -303.66c46.15,-198.05 108.15,-298.34 346.9,-303.66 -39.56,54.14 -284.52,261.82 -346.9,303.66zm2949.64 -650.69l12.93 12.93c-0.89,-0.76 -17.24,-8.62 -12.93,-12.93zm86.72 -130.09l-23.84 93.32 23.84 -93.32zm43.36 -86.72l-43.36 86.72 43.36 -86.72zm43.36 -43.36l-43.36 43.36 43.36 -43.36zm0 0l23.84 -93.32 -23.84 93.32zm-1084.43 650.56c-240.01,20.03 -510.71,347.02 -694.05,347.02 -121.21,0 -207.3,-140.1 -207.81,-227.08 -1.27,-191.96 101.69,-80.77 294.53,-76.58 -121.34,-454.67 -619.24,303.66 -910.86,303.66l-130.09 0c0,-436.92 -15.98,-162.04 61.11,-285.78 90.91,-145.81 -2.16,92.05 68.97,-104.6 -453.65,-240.01 -619.24,68.72 -901.22,356.79 -47.04,47.93 -242.55,199.06 -311.4,217.95 -256.62,70.5 -45.26,-144.03 -45.26,-271.08 0,-179.79 5.71,-15.21 -66.31,-110.05 -170.28,-224.29 -76.2,-248.38 -280.71,-150.25 14.71,176.87 22.32,176.62 173.45,216.94 -72.9,151.89 -90.65,433.75 130.09,433.75 272.34,0 394.82,-233.67 563.96,-347.02 40.45,151.64 16.48,97.37 130.09,173.58l82.29 -47.93c53.38,-34.36 14.2,-5.45 77.34,-52.74 72.52,-54.14 66.56,-64.41 144.03,-116.27 108.15,464.18 588.43,85.46 780.77,-43.36 74.05,110.56 74.43,135.41 216.94,173.45 -69.86,261.82 -477.11,289.72 -477.11,650.69 0,131.35 125.52,179.79 241.28,157.47 183.21,-35.12 367.06,-241.03 438.95,-434.38 68.21,-183.59 18.64,-110.18 13.69,-330.29 133,-35.5 258.52,-147.2 390.51,-216.94 116.27,499.55 583.11,146.7 737.41,43.36 -4.69,56.04 -191.83,780.77 86.72,780.77 346.26,0 813.36,-751.36 867.5,-954.22 -177.25,47.29 -144.67,84.82 -235.83,241.15 -81.91,140.23 -293.52,458.6 -412.83,546.59 -450.99,332.82 -272.73,-519.97 66.06,-979.96 170.41,-231.26 409.15,-528.71 409.15,-892.22 -209.46,-44.38 -268.16,10.27 -405.98,288.07 -101.69,204.64 -171.29,357.04 -248.64,575.5 -56.68,160.14 -19.53,130.47 -134.02,256.37 -78.86,86.85 -144.41,133.26 -252.82,185.49 -392.92,189.04 -265.62,-49.07 -259.92,-307.85z"/>
   <path class="fil0" d="M14054.16 5248.6c-548.11,0 -118.93,-896.41 260.3,-997.71 0,251.68 27.77,334.22 43.36,520.6l130.09 0c-41.33,-497.4 -156.08,-589.83 152.66,-758.33 247.11,-134.78 369.21,-206.92 606.18,-44.5 610.11,417.9 -690.88,1279.94 -1192.59,1279.94zm183.47 130.09l-203.24 0c-458.98,-73.03 -511.34,-671.99 194.88,-1213 343.85,-263.34 245.34,-1116.89 779.25,-1259.4 115.51,240.9 1.39,107.64 -269.81,510.96 -98.01,145.68 -233.42,364.77 -250.79,573.34 137.57,-72.65 258.91,-96.49 347.02,-216.81 -201.47,-16.74 -75.82,46.53 -173.45,-86.72 17.75,-7.35 822.87,-61.11 650.56,-780.77 -498.66,-239.38 -920.11,153.16 -954.22,563.83l-130.21 0c26.37,-315.45 489.54,-780.77 824.26,-780.77 605.93,0 462.66,541.52 268.92,789.52l-240.9 192.85c-59.97,44.63 -37.02,28.78 -71.38,58.7 353.11,-7.86 628.5,-158.61 693.92,86.72 -219.85,0 -236.34,-43.36 -477.11,-43.36 7.73,6.72 19.15,15.47 23.96,19.4 4.82,4.06 17.88,14.71 23.71,19.65 5.96,4.82 17.24,14.07 23.84,19.53 462.4,384.05 107.14,855.45 -280.97,1163.3 -298.72,236.97 -564.6,353.87 -778.24,383.03z"/>
   <path class="fil0" d="M-0 2602.62c121.21,165.33 391.02,72.27 825.53,85.33l2687.95 131.48c-42.22,-181.31 -81.65,-119.18 -86.72,-347.02 -1170.65,0 -2242.41,130.21 -3426.75,130.21z"/>
   <path class="fil0" d="M1344.73 1734.99l2617.33 191.2c432.86,-97.76 517.94,-32.33 549.13,-408.01 -485.86,40.45 -1206.28,100.16 -1566.24,125.01 -140.23,9.76 -266.01,1.52 -404.59,16.86l-1195.63 74.93z"/>
   <path class="fil0" d="M16786.86 3817.39l-173.96 41.21c0.51,-389.12 69.23,-398.25 -343.98,-391.02 -246.48,4.31 -493.34,2.54 -739.95,2.54l43.11 -173.45c-118.55,74.43 -36.64,-10.52 -140.74,120.83 -37.53,47.29 -50.97,92.18 -75.95,139.34 187.52,90.02 508.17,49.07 390.51,303.66 102.07,-23.71 128.06,-40.45 260.17,-43.36 205.65,388.74 331.43,575.75 716.36,100.42 76.33,-94.33 -11.16,72.14 64.41,-100.16z"/>
   <path class="fil0" d="M2776.19 867.5l0 43.36c283.63,0 726.38,62.13 1000.88,83.43 344.74,26.88 680.48,64.03 994.41,90.15 93.57,-139.72 241.79,-276.66 347.02,-433.75 -542.91,0 -1836.55,216.81 -2342.32,216.81z"/>
   <path class="fil0" d="M2776.19 4424.46c260.81,0 2246.72,170.91 2342.32,216.81 -34.11,-127.55 -252.69,-384.93 -325.22,-414.22l-1360.08 73.66c-402.18,42.98 -507.41,-6.47 -657.03,123.75z"/>
   <path class="fil0" d="M12449.25 4164.16c0,-145.05 5.96,-295.8 4.94,-438.82 -1.52,-205.15 31.06,-221.5 -134.52,-255.86 -121.59,-25.23 -658.42,7.86 -824.77,7.86 124.38,211.87 199.44,269.94 401.54,415.36 192.09,138.2 347.53,172.94 552.8,271.46z"/>
   <path class="fil0" d="M1344.73 3556.84c669.83,0 1439.07,76.71 2082.02,130.21l0 -303.66c-216.05,0 -1852.27,73.03 -2024.33,144.54l-57.69 28.91z"/>
   <path class="fil0" d="M10237.02 2776.07c105.74,-77.47 202.36,-216.43 216.81,-390.39 -314.95,0 -567.13,15.72 -780.77,-86.72 0,599.72 -56.17,477.11 563.96,477.11z"/>
   <path class="fil0" d="M8415.3 2602.62c-2.16,-5.71 -4.69,-21.3 -6.09,-17.24l-52.11 -73.79c-5.71,-7.23 -18.89,-21.43 -28.53,-31.95l323.82 39.81c-40.83,-157.09 -20.41,-417.27 -20.41,-654.24 -166.22,13.82 -310.89,72.9 -477.11,86.72 33.85,145.55 64.79,258.78 112.84,408.52 38.67,120.58 69.35,333.2 147.58,242.17z"/>
   <path class="fil0" d="M8848.93 1517.93c283.38,-164.45 31.95,-170.03 388.36,-177.76 124.51,-2.79 264.99,5.33 392.67,4.44l0 -390.39c-409.4,0 -724.86,207.56 -781.03,563.71z"/>
   <path class="fil0" d="M18869.01 3903.86c38.54,-21.68 86.72,-28.15 86.72,-86.72 0,-165.84 13.31,-15.72 -43.36,-130.09 -144.92,96.99 -195.64,105.24 -43.36,216.81z"/>
   <path class="fil0" d="M19172.67 4132.72l-167.36 43.36 -6.21 -228.86c-39.81,62.89 -43.36,-101.31 -43.36,303.66 160.39,-13.31 129.33,3.93 216.94,-118.17z"/>
  </g>
 </g>
</svg>
