<?xml version="1.0" encoding="UTF-8"?>
<!DOCTYPE svg PUBLIC "-//W3C//DTD SVG 1.1//EN" "http://www.w3.org/Graphics/SVG/1.1/DTD/svg11.dtd">
<!-- Creator: CorelDRAW -->
<svg xmlns="http://www.w3.org/2000/svg" xml:space="preserve" width="6.1514mm" height="4.917mm" version="1.1" style="shape-rendering:geometricPrecision; text-rendering:geometricPrecision; image-rendering:optimizeQuality; fill-rule:evenodd; clip-rule:evenodd"
viewBox="0 0 63.83 51.02"
 xmlns:xlink="http://www.w3.org/1999/xlink"
 xmlns:xodm="http://www.corel.com/coreldraw/odm/2003">
 <defs>
  <style type="text/css">
   <![CDATA[
    .fil0 {fill:black}
    .fil1 {fill:black;fill-rule:nonzero}
   ]]>
  </style>
 </defs>
 <g id="Camada_x0020_1">
  <metadata id="CorelCorpID_0Corel-Layer"/>
  <g id="_1735555161104">
   <path class="fil0" d="M32.5 21.43l7.74 0c5.25,0.65 5.12,6.85 0,7.42l-11 0 12.96 14.95 11.3 0 -6.91 -7.82c-1.95,0.47 -3.9,0.52 -5.85,0.27 17.74,-2.27 15.61,-21.2 0,-22.24l-1.87 -0.03 -6.37 7.45z"/>
   <polygon class="fil0" points="10.34,13.54 19.73,13.54 10.34,23.96 "/>
   <polygon class="fil0" points="23.49,43.53 34.89,43.53 22.03,28.54 34.89,13.54 23.49,13.54 10.63,28.54 10.63,28.54 10.63,28.54 10.63,28.54 10.63,28.54 "/>
   <path class="fil1" d="M-0 50.95l1.35 0 0 -2.85 1.77 2.85 0.75 0 1.77 -2.85 0 2.85 1.39 0 0 -4.12 -1.92 0 -1.56 2.56 -1.55 -2.56 -2 0 0 4.12zm12.08 -4.14l0 1.9c0,0.15 -0.02,0.28 -0.06,0.41 -0.04,0.13 -0.12,0.25 -0.22,0.37 -0.1,0.12 -0.25,0.22 -0.46,0.29 -0.2,0.07 -0.45,0.11 -0.73,0.11 -0.29,0 -0.53,-0.04 -0.74,-0.11 -0.21,-0.07 -0.36,-0.17 -0.46,-0.29 -0.1,-0.12 -0.17,-0.25 -0.21,-0.37 -0.04,-0.13 -0.06,-0.26 -0.06,-0.41l0 -1.9 -1.41 0 0 1.98c0,0.12 0.01,0.24 0.03,0.36 0.02,0.12 0.05,0.25 0.11,0.4 0.05,0.15 0.12,0.28 0.21,0.41 0.09,0.13 0.2,0.25 0.34,0.38 0.15,0.12 0.31,0.23 0.5,0.32 0.19,0.09 0.42,0.16 0.69,0.21 0.27,0.05 0.58,0.08 0.91,0.08l0.22 0c0.44,0 0.82,-0.05 1.16,-0.15 0.34,-0.1 0.6,-0.23 0.8,-0.38 0.19,-0.15 0.35,-0.33 0.48,-0.54 0.12,-0.2 0.21,-0.39 0.25,-0.57 0.04,-0.18 0.06,-0.35 0.06,-0.52l0 -1.98 -1.4 0zm2.1 0.03l0 4.12 4.52 0 0 -1.02 -3.12 0 0 -3.09 -1.41 0zm5.74 4.12l1.42 0 0 -3.14 1.94 0 0 -0.97 -5.28 0 0 0.97 1.93 0 0 3.14zm5.17 -4.11l-1.4 0 0 4.11 1.4 0 0 -4.11zm0.7 4.11l1.35 0 0 -2.85 1.77 2.85 0.75 0 1.77 -2.85 0 2.85 1.39 0 0 -4.12 -1.92 0 -1.56 2.56 -1.55 -2.56 -2 0 0 4.12zm11.64 -4.08l-2.09 0 -2.19 4.07 1.38 0 0.38 -0.74 2.93 0 0.38 0.74 1.38 0 -2.19 -4.07zm-2.04 2.41l0.77 -1.49 0.44 0 0.77 1.49 -1.99 0zm9.42 -0.05c-0.14,-0.15 -0.33,-0.26 -0.56,-0.33 0.5,-0.16 0.75,-0.46 0.75,-0.89l0 -0.07c0,-0.7 -0.59,-1.05 -1.77,-1.05l-3.28 0 0 4.05 1.27 0 0 -1.44 1.66 0c0.31,0 0.53,0.06 0.66,0.17 0.13,0.11 0.19,0.29 0.19,0.54l0 0.72 1.28 0 0 -1.12c0,-0.25 -0.07,-0.45 -0.21,-0.6zm-1.13 -1.01c0,0.12 -0.04,0.22 -0.13,0.29 -0.08,0.07 -0.21,0.11 -0.39,0.11l-1.93 0 0 -0.79 1.93 0c0.18,0 0.3,0.04 0.39,0.11 0.08,0.07 0.13,0.17 0.13,0.28l0 0.01zm4.81 2.8l0.25 0c0.49,0 0.92,-0.04 1.3,-0.13 0.38,-0.09 0.67,-0.19 0.88,-0.31 0.21,-0.12 0.38,-0.26 0.51,-0.42 0.13,-0.16 0.22,-0.31 0.26,-0.43 0.04,-0.13 0.06,-0.26 0.06,-0.38l0 -0.06 -1.49 0c0,0 -0,0.01 -0.01,0.02 -0.16,0.48 -0.71,0.71 -1.63,0.71 -0.31,0 -0.58,-0.04 -0.81,-0.1 -0.23,-0.07 -0.4,-0.16 -0.52,-0.28 -0.12,-0.12 -0.2,-0.24 -0.26,-0.36 -0.05,-0.12 -0.08,-0.25 -0.08,-0.39l0 -0.07c0,-0.14 0.02,-0.27 0.07,-0.39 0.05,-0.12 0.13,-0.23 0.24,-0.34 0.12,-0.11 0.29,-0.19 0.51,-0.25 0.23,-0.06 0.5,-0.09 0.82,-0.09 0.27,0 0.51,0.02 0.72,0.06 0.21,0.04 0.37,0.09 0.47,0.14 0.11,0.05 0.2,0.12 0.27,0.19 0.07,0.08 0.12,0.13 0.14,0.17 0.02,0.03 0.03,0.07 0.05,0.12l1.49 0 0 -0.06c0,-0.11 -0.02,-0.23 -0.06,-0.36 -0.04,-0.12 -0.12,-0.26 -0.25,-0.42 -0.13,-0.16 -0.3,-0.29 -0.51,-0.42 -0.21,-0.12 -0.5,-0.22 -0.88,-0.31 -0.38,-0.08 -0.82,-0.12 -1.31,-0.12l-0.25 0c-0.51,0 -0.95,0.05 -1.33,0.14 -0.38,0.1 -0.67,0.21 -0.88,0.35 -0.21,0.14 -0.37,0.31 -0.5,0.5 -0.13,0.2 -0.21,0.37 -0.24,0.53 -0.04,0.16 -0.05,0.33 -0.05,0.51l0 0.16c0,0.12 0.01,0.23 0.03,0.34 0.02,0.11 0.06,0.24 0.12,0.38 0.06,0.14 0.13,0.27 0.22,0.39 0.09,0.12 0.21,0.24 0.37,0.36 0.16,0.12 0.34,0.22 0.54,0.3 0.2,0.08 0.46,0.15 0.75,0.2 0.3,0.05 0.63,0.08 0.99,0.08zm7.46 -4.15l-2.09 0 -2.19 4.07 1.38 0 0.38 -0.74 2.93 0 0.38 0.74 1.38 0 -2.19 -4.07zm-2.04 2.41l0.78 -1.49 0.44 0 0.77 1.49 -1.99 0zm6.86 1.74l0.42 0c0.43,0 0.81,-0.03 1.14,-0.08 0.32,-0.05 0.58,-0.12 0.77,-0.21 0.19,-0.09 0.34,-0.19 0.45,-0.32 0.11,-0.13 0.19,-0.25 0.22,-0.37 0.04,-0.12 0.05,-0.26 0.05,-0.41l0 -0.08c0,-0.41 -0.19,-0.71 -0.56,-0.91 -0.37,-0.19 -0.98,-0.3 -1.81,-0.31l-0.42 -0.01 -0.33 -0c-0.29,-0 -0.51,-0.02 -0.67,-0.06 -0.16,-0.04 -0.26,-0.08 -0.3,-0.12 -0.04,-0.04 -0.06,-0.1 -0.06,-0.17 0,-0.07 0.02,-0.13 0.06,-0.18 0.04,-0.04 0.15,-0.08 0.33,-0.12 0.18,-0.04 0.39,-0.06 0.73,-0.06l0.21 0c0.22,0 0.35,0.01 0.52,0.04 0.17,0.03 0.29,0.06 0.38,0.09 0.09,0.03 0.15,0.08 0.21,0.13 0.05,0.05 0.09,0.09 0.1,0.12 0.01,0.03 0.02,0.07 0.03,0.11l1.46 0 0 -0.06c0,-0.13 -0.02,-0.26 -0.07,-0.37 -0.04,-0.12 -0.13,-0.23 -0.24,-0.35 -0.12,-0.12 -0.27,-0.22 -0.46,-0.3 -0.19,-0.08 -0.44,-0.15 -0.75,-0.2 -0.31,-0.05 -0.68,-0.08 -1.09,-0.08l-0.42 0c-0.39,0 -0.74,0.03 -1.04,0.07 -0.3,0.05 -0.53,0.11 -0.71,0.19 -0.18,0.08 -0.32,0.17 -0.43,0.29 -0.11,0.11 -0.18,0.22 -0.22,0.34 -0.04,0.11 -0.05,0.24 -0.05,0.37l0 0.05c0,0.77 0.73,1.17 2.19,1.21l0.33 0.01 0.44 0.01c0.33,0.01 0.59,0.03 0.77,0.07 0.18,0.04 0.29,0.08 0.34,0.13 0.05,0.05 0.07,0.12 0.07,0.21 0,0.06 -0.01,0.12 -0.04,0.16 -0.03,0.05 -0.08,0.09 -0.17,0.14 -0.08,0.04 -0.22,0.08 -0.4,0.1 -0.18,0.02 -0.3,0.04 -0.59,0.04l-0.33 0c-0.86,0 -1.17,-0.22 -1.2,-0.65l-1.47 0 0 0.06c0,0.13 0.01,0.25 0.05,0.37 0.03,0.11 0.1,0.24 0.2,0.38 0.11,0.14 0.25,0.26 0.43,0.36 0.18,0.1 0.44,0.18 0.77,0.25 0.33,0.07 0.72,0.1 1.17,0.1z"/>
   <path class="fil0" d="M26.47 4.1c-0.89,-0.22 -1.71,-0.61 -2.43,-1.3l1.96 6.76c3.52,1.16 8.32,1.16 11.83,0l1.96 -6.76c-0.71,0.69 -1.54,1.08 -2.43,1.3 1.3,2.59 -1.59,4.14 -3.27,3.47 -1.15,-0.47 -2.66,-2.83 -0.27,-5.24 -0.86,-0.42 -1.49,-1.2 -1.91,-2.33l0 -0 0 0 0 0 0 0c-0.42,1.13 -1.05,1.91 -1.91,2.33 2.38,2.42 0.88,4.78 -0.27,5.24 -1.68,0.68 -4.57,-0.88 -3.27,-3.47z"/>
   <path class="fil0" d="M37.66 10.53c-3.79,0.92 -7.6,1.1 -11.46,-0.22l0.27 0.73c5.33,1.18 8.54,0.58 11.18,-0.51z"/>
  </g>
 </g>
</svg>
