<?xml version="1.0" encoding="UTF-8"?>
<!DOCTYPE svg PUBLIC "-//W3C//DTD SVG 1.1//EN" "http://www.w3.org/Graphics/SVG/1.1/DTD/svg11.dtd">
<!-- Creator: CorelDRAW -->
<svg xmlns="http://www.w3.org/2000/svg" xml:space="preserve" width="12.4152mm" height="5.1425mm" version="1.1" style="shape-rendering:geometricPrecision; text-rendering:geometricPrecision; image-rendering:optimizeQuality; fill-rule:evenodd; clip-rule:evenodd"
viewBox="0 0 155.82 64.54"
 xmlns:xlink="http://www.w3.org/1999/xlink"
 xmlns:xodm="http://www.corel.com/coreldraw/odm/2003">
 <defs>
  <style type="text/css">
   <![CDATA[
    .fil0 {fill:black;fill-rule:nonzero}
   ]]>
  </style>
 </defs>
 <g id="Camada_x0020_1">
  <metadata id="CorelCorpID_0Corel-Layer"/>
  <g id="_1735428838000">
   <path class="fil0" d="M36.6 12.79l7.09 24.57 -10.68 4.46c0.74,-1.01 1.33,-2.05 1.75,-3.12 1.31,-3.34 0.92,-6.97 -1.01,-9.47 -1.77,-2.29 -4.77,-3.47 -7.63,-3 -1.37,0.22 -2.65,0.81 -3.71,1.67 -0.5,-1.27 -1.31,-2.42 -2.39,-3.29 -2.25,-1.82 -5.44,-2.29 -8.12,-1.19 -0.01,0 -0.02,0.01 -0.03,0.01 -2.91,1.21 -5.04,4.16 -5.56,7.7 -0,0.02 -0,0.04 -0.01,0.06l-2.65 -4.71c-0.59,-1.06 -0.69,-2.27 -0.29,-3.41 0.4,-1.14 1.23,-2.03 2.35,-2.49l25.24 -10.5c1.12,-0.46 2.33,-0.43 3.42,0.09 1.09,0.52 1.88,1.45 2.21,2.61zm-19.73 35.96c-2.65,-2.92 -4.95,-6.52 -6.24,-9.82 -1.11,-2.84 -1.5,-5.24 -1.19,-7.34 0.36,-2.42 1.79,-4.48 3.66,-5.26 0.01,-0 0.01,-0 0.02,-0.01 1.61,-0.66 3.59,-0.37 4.94,0.72 1.35,1.09 2.04,2.97 1.73,4.68 -0,0.01 -0,0.03 -0,0.04 -0.01,0.06 -0.01,0.11 -0.02,0.17 -0,0.05 -0.01,0.1 -0.01,0.14 0,0.05 0.01,0.1 0.02,0.16 0.01,0.05 0.01,0.1 0.02,0.15 0.01,0.05 0.03,0.09 0.05,0.14 0.02,0.05 0.03,0.1 0.05,0.14 0.02,0.05 0.05,0.09 0.07,0.13 0.03,0.04 0.05,0.09 0.08,0.13 0.03,0.04 0.07,0.08 0.1,0.12 0.03,0.04 0.06,0.08 0.1,0.11 0.04,0.03 0.08,0.06 0.11,0.09 0.04,0.03 0.08,0.07 0.13,0.1 0.04,0.03 0.08,0.04 0.12,0.07 0.05,0.03 0.1,0.05 0.16,0.07 0.01,0 0.02,0.01 0.03,0.02 0.04,0.01 0.08,0.02 0.12,0.03 0.04,0.01 0.08,0.03 0.12,0.03 0.01,0 0.02,0 0.04,0 0.06,0.01 0.12,0.01 0.18,0.02 0.04,0 0.09,0.01 0.13,0.01 0.06,-0 0.12,-0.01 0.18,-0.02 0.04,-0.01 0.08,-0.01 0.13,-0.02 0.06,-0.01 0.11,-0.03 0.17,-0.05 0.04,-0.02 0.08,-0.03 0.12,-0.04 0.05,-0.02 0.1,-0.06 0.15,-0.09 0.04,-0.02 0.07,-0.04 0.11,-0.07 0.05,-0.03 0.09,-0.07 0.13,-0.11 0.03,-0.03 0.07,-0.06 0.1,-0.09 0.04,-0.04 0.07,-0.08 0.1,-0.12 0.03,-0.04 0.06,-0.08 0.09,-0.12 0.02,-0.04 0.04,-0.08 0.07,-0.13 0.03,-0.05 0.05,-0.1 0.07,-0.16 0,-0.01 0.01,-0.02 0.02,-0.03 0.57,-1.64 2.11,-2.93 3.83,-3.2 1.71,-0.28 3.58,0.46 4.64,1.83 1.24,1.6 1.46,4.11 0.57,6.39 -0.78,1.97 -2.31,3.86 -4.68,5.78 -2.75,2.22 -6.55,4.2 -10.29,5.42zm-2.77 -43.61c4.33,-1.8 9.24,-0.13 11.65,3.71l-17.23 7.17c-1.03,-4.42 1.25,-9.08 5.58,-10.88zm21.64 2.2c-1.88,-0.9 -4.06,-0.96 -5.99,-0.16l-1.07 0.44c-3.11,-5.44 -9.86,-7.86 -15.79,-5.39 -5.93,2.47 -8.97,8.96 -7.3,15l-1.07 0.45c-1.93,0.8 -3.42,2.39 -4.11,4.36 -0.69,1.97 -0.5,4.15 0.52,5.98l6.75 11.98c0.01,0.03 0.02,0.05 0.03,0.08 1.54,3.93 4.36,8.25 7.56,11.56 0.01,0.01 0.03,0.02 0.04,0.03 0.1,0.1 0.21,0.19 0.34,0.26 0.01,0.01 0.02,0.01 0.03,0.01 0.11,0.06 0.24,0.1 0.36,0.13 0.03,0.01 0.06,0.02 0.09,0.02 0.13,0.02 0.27,0.03 0.41,0.02 0.02,-0 0.03,-0.01 0.05,-0.01 0.08,-0.01 0.17,-0.02 0.25,-0.05 1.26,-0.37 2.54,-0.82 3.8,-1.35 1.47,-0.61 2.92,-1.32 4.28,-2.1l22.58 -9.44 -7.87 -27.27c-0.58,-2 -1.99,-3.67 -3.87,-4.57z"/>
   <polygon class="fil0" points="51.52,48.19 82.46,48.19 82.46,46.78 57.02,46.78 57.02,0 51.52,0 "/>
   <path id="_1" class="fil0" d="M83.26 48.19l5.5 0 0 -34.43 -5.5 0 0 34.43zm0 -42.69l5.5 0 0 -5.5 -5.5 0 0 5.5z"/>
   <path id="_2" class="fil0" d="M122.86 24.5c0,-6.91 -2.35,-11.41 -7.99,-11.41 -6.38,0 -11.88,5.71 -15.44,14.5l0 -13.83 -5.5 0 0 34.43 5.5 0 0 -16.71c3.42,-9.46 8.12,-16.04 12.95,-16.04 3.96,0 4.97,4.63 4.97,10.81l0 21.95 5.5 0 0 -23.69z"/>
   <path id="_3" class="fil0" d="M131.72 30.94l0 -0.67c0,-9.33 3.76,-15.77 9.73,-15.77 6.04,0 8.86,6.58 8.86,16.44l-18.59 0zm9.87 -17.79c-9.2,0 -15.37,6.98 -15.37,17.45 0,11.21 7.18,18.26 16.51,18.26 4.77,0 9.2,-1.75 12.42,-4.9l-2.82 -2.82c-2.22,4.03 -5.77,6.38 -9.46,6.38 -5.77,0 -10.54,-5.71 -11.07,-15.24l24.03 0 0 -1.34c0,-10.61 -5.03,-17.79 -14.23,-17.79z"/>
   <path class="fil0" d="M84.77 55.67l2.26 0c0.47,0 0.85,0.05 1.16,0.15 0.3,0.1 0.58,0.27 0.83,0.5 0.24,0.22 0.43,0.49 0.55,0.79 0.13,0.3 0.19,0.63 0.19,0.97 0,0.34 -0.06,0.64 -0.19,0.9 -0.13,0.26 -0.33,0.51 -0.6,0.74 0.45,0.28 0.78,0.58 0.99,0.92 0.21,0.34 0.31,0.74 0.31,1.21 0,0.37 -0.08,0.72 -0.23,1.06 -0.15,0.33 -0.37,0.62 -0.64,0.85 -0.25,0.22 -0.54,0.37 -0.86,0.47 -0.33,0.1 -0.71,0.14 -1.16,0.14l-2.6 0 0 -8.7zm2.65 7.53c0.29,0 0.53,-0.04 0.72,-0.11 0.19,-0.07 0.35,-0.2 0.5,-0.37 0.23,-0.26 0.35,-0.55 0.35,-0.87 0,-0.2 -0.05,-0.4 -0.14,-0.59 -0.09,-0.19 -0.21,-0.35 -0.36,-0.47 -0.15,-0.12 -0.31,-0.21 -0.49,-0.25 -0.18,-0.05 -0.43,-0.07 -0.75,-0.07l-1.22 0 0 2.74 1.38 0zm-0.34 -3.91c0.47,0 0.81,-0.1 1.03,-0.31 0.25,-0.23 0.38,-0.54 0.38,-0.91 0,-0.23 -0.05,-0.45 -0.16,-0.64 -0.11,-0.2 -0.26,-0.34 -0.45,-0.44 -0.11,-0.06 -0.24,-0.1 -0.37,-0.12 -0.13,-0.02 -0.3,-0.03 -0.5,-0.03l-0.96 0 0 2.45 1.04 0z"/>
   <path id="_1_0" class="fil0" d="M101.51 55.5c0.64,0 1.23,0.12 1.78,0.35 0.55,0.23 1.03,0.56 1.44,0.97 0.41,0.41 0.73,0.9 0.96,1.45 0.23,0.56 0.35,1.16 0.35,1.81 0,0.61 -0.12,1.18 -0.36,1.72 -0.24,0.54 -0.56,1.01 -0.97,1.42 -0.41,0.4 -0.89,0.72 -1.44,0.96 -0.55,0.24 -1.14,0.36 -1.76,0.36 -0.62,0 -1.21,-0.12 -1.76,-0.36 -0.55,-0.24 -1.03,-0.56 -1.44,-0.97 -0.41,-0.41 -0.73,-0.88 -0.97,-1.43 -0.24,-0.55 -0.36,-1.14 -0.36,-1.76 0,-0.62 0.12,-1.21 0.35,-1.76 0.23,-0.55 0.56,-1.03 0.97,-1.44 0.41,-0.41 0.89,-0.73 1.44,-0.97 0.55,-0.23 1.14,-0.35 1.76,-0.35zm0 1.17c-0.98,0 -1.78,0.37 -2.42,1.1 -0.27,0.31 -0.47,0.66 -0.62,1.05 -0.14,0.39 -0.21,0.79 -0.21,1.19 0,0.44 0.09,0.88 0.26,1.31 0.17,0.43 0.41,0.8 0.71,1.11 0.61,0.62 1.37,0.94 2.29,0.94 0.91,0 1.67,-0.31 2.27,-0.94 0.3,-0.3 0.54,-0.67 0.71,-1.1 0.17,-0.43 0.26,-0.86 0.26,-1.27 0,-0.43 -0.07,-0.84 -0.21,-1.23 -0.14,-0.39 -0.35,-0.74 -0.62,-1.05 -0.63,-0.74 -1.44,-1.1 -2.43,-1.1z"/>
   <polygon id="_2_1" class="fil0" points="113.27,64.37 113.27,55.67 114.54,55.67 114.54,63.2 117.55,63.2 117.55,64.37 "/>
   <path id="_3_2" class="fil0" d="M127.82 57.92c-0.03,-0.38 -0.15,-0.68 -0.36,-0.91 -0.22,-0.22 -0.49,-0.34 -0.82,-0.34 -0.16,0 -0.3,0.03 -0.45,0.1 -0.14,0.07 -0.27,0.15 -0.37,0.26 -0.1,0.11 -0.19,0.24 -0.25,0.38 -0.07,0.15 -0.1,0.3 -0.1,0.45 0,0.17 0.04,0.34 0.12,0.5 0.08,0.16 0.19,0.29 0.33,0.38 0.1,0.07 0.21,0.13 0.35,0.18 0.14,0.05 0.35,0.12 0.64,0.21 0.23,0.07 0.43,0.13 0.6,0.19 0.16,0.06 0.31,0.12 0.44,0.18 0.13,0.06 0.24,0.13 0.33,0.2 0.1,0.07 0.19,0.16 0.28,0.27 0.47,0.49 0.7,1.1 0.7,1.81 0,0.39 -0.07,0.75 -0.21,1.09 -0.14,0.34 -0.33,0.63 -0.57,0.88 -0.24,0.25 -0.53,0.44 -0.86,0.58 -0.33,0.14 -0.68,0.21 -1.06,0.21 -0.42,0 -0.82,-0.09 -1.2,-0.27 -0.38,-0.18 -0.69,-0.44 -0.94,-0.77 -0.1,-0.13 -0.19,-0.26 -0.26,-0.38 -0.07,-0.12 -0.13,-0.25 -0.17,-0.38 -0.04,-0.13 -0.08,-0.28 -0.1,-0.43 -0.02,-0.15 -0.03,-0.32 -0.03,-0.51l1.26 0c0.02,0.23 0.05,0.42 0.09,0.55 0.04,0.13 0.09,0.25 0.16,0.38 0.12,0.2 0.29,0.36 0.51,0.47 0.22,0.12 0.46,0.17 0.71,0.17 0.2,0 0.38,-0.04 0.55,-0.11 0.17,-0.07 0.32,-0.17 0.44,-0.3 0.13,-0.13 0.23,-0.28 0.3,-0.46 0.07,-0.18 0.11,-0.37 0.11,-0.56 0,-0.52 -0.23,-0.9 -0.69,-1.13 -0.04,-0.03 -0.15,-0.07 -0.33,-0.13 -0.18,-0.06 -0.42,-0.15 -0.73,-0.26 -0.23,-0.08 -0.43,-0.14 -0.58,-0.2 -0.15,-0.06 -0.28,-0.11 -0.38,-0.16 -0.1,-0.05 -0.19,-0.11 -0.26,-0.17 -0.07,-0.06 -0.15,-0.13 -0.23,-0.22 -0.19,-0.2 -0.34,-0.44 -0.44,-0.72 -0.1,-0.28 -0.15,-0.58 -0.15,-0.89 0,-0.36 0.06,-0.7 0.19,-1.01 0.13,-0.31 0.3,-0.58 0.53,-0.81 0.23,-0.23 0.49,-0.41 0.8,-0.53 0.31,-0.13 0.64,-0.19 1.01,-0.19 0.85,0 1.51,0.36 1.99,1.09 0.13,0.2 0.22,0.4 0.28,0.6 0.06,0.2 0.1,0.44 0.1,0.73l-1.27 0z"/>
   <path id="_4" class="fil0" d="M141.8 64.37l-0.97 -2.57 -3.13 0 -0.96 2.57 -1.35 0 3.31 -8.7 1.13 0 3.31 8.7 -1.34 0zm-2.53 -7.05l-1.12 3.31 2.23 0 -1.12 -3.31z"/>
   <path id="_5" class="fil0" d="M153.11 57.92c-0.03,-0.38 -0.15,-0.68 -0.36,-0.91 -0.22,-0.22 -0.49,-0.34 -0.82,-0.34 -0.16,0 -0.3,0.03 -0.45,0.1 -0.14,0.07 -0.27,0.15 -0.37,0.26 -0.1,0.11 -0.19,0.24 -0.25,0.38 -0.07,0.15 -0.1,0.3 -0.1,0.45 0,0.17 0.04,0.34 0.12,0.5 0.08,0.16 0.19,0.29 0.33,0.38 0.1,0.07 0.21,0.13 0.35,0.18 0.14,0.05 0.35,0.12 0.64,0.21 0.23,0.07 0.43,0.13 0.6,0.19 0.16,0.06 0.31,0.12 0.44,0.18 0.13,0.06 0.24,0.13 0.33,0.2 0.1,0.07 0.19,0.16 0.28,0.27 0.47,0.49 0.7,1.1 0.7,1.81 0,0.39 -0.07,0.75 -0.21,1.09 -0.14,0.34 -0.33,0.63 -0.57,0.88 -0.24,0.25 -0.53,0.44 -0.86,0.58 -0.33,0.14 -0.68,0.21 -1.06,0.21 -0.42,0 -0.82,-0.09 -1.2,-0.27 -0.38,-0.18 -0.69,-0.44 -0.94,-0.77 -0.1,-0.13 -0.19,-0.26 -0.26,-0.38 -0.07,-0.12 -0.13,-0.25 -0.17,-0.38 -0.04,-0.13 -0.08,-0.28 -0.1,-0.43 -0.02,-0.15 -0.03,-0.32 -0.03,-0.51l1.26 0c0.02,0.23 0.05,0.42 0.09,0.55 0.04,0.13 0.09,0.25 0.16,0.38 0.12,0.2 0.29,0.36 0.51,0.47 0.22,0.12 0.46,0.17 0.71,0.17 0.2,0 0.38,-0.04 0.55,-0.11 0.17,-0.07 0.32,-0.17 0.44,-0.3 0.13,-0.13 0.23,-0.28 0.3,-0.46 0.07,-0.18 0.11,-0.37 0.11,-0.56 0,-0.52 -0.23,-0.9 -0.69,-1.13 -0.04,-0.03 -0.15,-0.07 -0.33,-0.13 -0.18,-0.06 -0.42,-0.15 -0.73,-0.26 -0.23,-0.08 -0.43,-0.14 -0.58,-0.2 -0.15,-0.06 -0.28,-0.11 -0.38,-0.16 -0.1,-0.05 -0.19,-0.11 -0.26,-0.17 -0.07,-0.06 -0.15,-0.13 -0.23,-0.22 -0.19,-0.2 -0.34,-0.44 -0.44,-0.72 -0.1,-0.28 -0.15,-0.58 -0.15,-0.89 0,-0.36 0.06,-0.7 0.19,-1.01 0.13,-0.31 0.3,-0.58 0.53,-0.81 0.23,-0.23 0.49,-0.41 0.8,-0.53 0.31,-0.13 0.64,-0.19 1.01,-0.19 0.85,0 1.51,0.36 1.99,1.09 0.13,0.2 0.22,0.4 0.28,0.6 0.06,0.2 0.1,0.44 0.1,0.73l-1.27 0z"/>
  </g>
 </g>
</svg>
