<?xml version="1.0" encoding="UTF-8"?>
<!DOCTYPE svg PUBLIC "-//W3C//DTD SVG 1.1//EN" "http://www.w3.org/Graphics/SVG/1.1/DTD/svg11.dtd">
<!-- Creator: CorelDRAW -->
<svg xmlns="http://www.w3.org/2000/svg" xml:space="preserve" width="15.5608mm" height="4.3503mm" version="1.1" style="shape-rendering:geometricPrecision; text-rendering:geometricPrecision; image-rendering:optimizeQuality; fill-rule:evenodd; clip-rule:evenodd"
viewBox="0 0 6107.51 1707.46"
 xmlns:xlink="http://www.w3.org/1999/xlink"
 xmlns:xodm="http://www.corel.com/coreldraw/odm/2003">
 <defs>
  <style type="text/css">
   <![CDATA[
    .fil0 {fill:black}
    .fil1 {fill:white;fill-rule:nonzero}
   ]]>
  </style>
 </defs>
 <g id="Camada_x0020_1">
  <metadata id="CorelCorpID_0Corel-Layer"/>
  <g id="_1735345994400">
   <path class="fil0" d="M827.45 1703.74c2280.58,0 4040.6,0 5280.06,0 -222.31,-433.04 -415.73,-815.88 -580.26,-1148.48l-0.67 0c-31.12,-49.34 -107.27,-84.19 -196.29,-84.19 -91.14,0 -168.81,36.54 -198.41,87.8l-1.61 0.04c-29.59,-51.26 -107.23,-87.84 -198.44,-87.84 -91.96,0 -170.19,37.21 -199.19,89.21 -29.01,-52.01 -107.27,-89.21 -199.27,-89.21 -91.96,0 -170.19,37.21 -199.19,89.21 -29.04,-52.01 -107.27,-89.21 -199.27,-89.21 -91.96,0 -170.19,37.21 -199.19,89.21 -29.01,-52.01 -107.27,-89.21 -199.23,-89.21 -92,0 -170.22,37.21 -199.23,89.17 -29.04,-51.97 -107.27,-89.17 -199.23,-89.17 -92,0 -170.22,37.21 -199.23,89.21 -29.01,-52.01 -107.27,-89.21 -199.23,-89.21 -92,0 -170.22,37.21 -199.23,89.21 -29.01,-52.01 -107.27,-89.21 -199.23,-89.21 -92,0 -170.22,37.21 -199.23,89.21 -29.01,-52.01 -107.27,-89.21 -199.23,-89.21 -92,0 -170.22,37.21 -199.23,89.21 -29.01,-52.01 -107.27,-89.21 -199.23,-89.21 -100.05,0 -183.8,44.04 -205.71,103.19 -78.69,158.02 -199.58,381.31 -362.66,669.91 -178.15,270.07 -426.68,346.69 -745.58,229.84 -480.61,-236.52 -217.99,-932.8 286.99,-719.52 153.86,92.16 259.79,300.06 83.72,427.31 -153.39,110.84 -366.98,-106.92 -155.55,-286.13 -361.25,-7.69 -301.2,567.94 167.4,497.96 252.57,-37.72 379.35,-333.7 479,-534.14 57.19,-105.07 123.64,-224.31 199.39,-357.72 82.11,-170.5 67.86,-314.11 -42.74,-430.84 -122.22,-103.62 -282.01,-93.69 -479.39,29.75 -132.39,97.89 -306.58,221.96 -522.61,372.2 244.88,-35.25 436.34,44.16 574.45,238.17 61.03,99.14 80.7,209.12 58.91,329.85 -33.95,-294.76 -191.5,-461.42 -472.68,-499.92 -681.53,-48.16 -878.68,925.19 -123.52,1142.67 83.6,22.14 198.21,28.81 343.82,20.1z"/>
   <path class="fil1" d="M1926.36 1059.42c-1.69,17.07 -2.51,35.6 -2.51,55.58 0,29.95 2.08,55.54 6.24,76.77l-319.65 0 0 -6.24 16.25 0c4.16,0 7.26,-1.65 9.34,-4.98 2.08,-3.34 3.14,-7.93 3.14,-13.74l0 -387.08c0,-5.81 -1.06,-10.4 -3.14,-13.74 -2.08,-3.34 -5.18,-4.98 -9.34,-4.98l-16.25 0 0 -6.24 179.17 0 0 6.24 -16.21 0c-7.5,0.39 -11.66,6.24 -12.52,17.47l0 389.59c0.86,11.23 5.02,17.03 12.52,17.47l39.33 0c14.13,0 30.58,-14.25 49.3,-42.78 18.72,-28.5 33.09,-56.28 43.1,-83.33l21.23 0z"/>
   <path id="_1" class="fil1" d="M2049.33 869.02c-15.39,0 -28.5,-5.53 -39.33,-16.56 -10.83,-11.03 -16.25,-24.26 -16.25,-39.64 0,-15.39 5.42,-28.61 16.25,-39.64 10.83,-11.03 23.94,-16.52 39.33,-16.52 15.39,0 28.61,5.49 39.64,16.52 11.03,11.03 16.52,24.26 16.52,39.64 0,15.39 -5.49,28.61 -16.52,39.64 -11.03,11.03 -24.26,16.56 -39.64,16.56zm56.17 298.41c0,11.66 4.2,17.66 12.52,18.09l15.58 0 0 6.24 -178.55 0 0 -6.24 15.62 0c8.32,0 12.48,-6.24 12.48,-18.72l0 -211.63c0,-8.75 -2.71,-14.99 -8.12,-18.76 -5.42,-3.73 -12.05,-5.38 -19.98,-4.98l0 -4.98c21.67,0 46.82,-4.79 75.56,-14.37 28.69,-9.58 52.83,-20.37 72.42,-32.46l2.47 3.14 0 284.68z"/>
   <path id="_2" class="fil1" d="M2533.15 1185.53l0 6.24 -178.55 0 0 -6.24 15.58 0c8.32,0 12.48,-6.24 12.48,-18.72l0 -202.92c0,-29.55 -7.46,-44.31 -22.45,-44.31 -7.93,0 -16.76,3.73 -26.53,11.23 -9.77,7.5 -18.02,15.82 -24.69,25l0 211.63c0,11.66 4.2,17.66 12.52,18.09l15.58 0 0 6.24 -178.55 0 0 -6.24 15.62 0c8.32,0 12.48,-6.24 12.48,-18.72l0 -211.63c0,-9.58 -2.71,-16.13 -8.12,-19.66 -5.42,-3.57 -12.05,-4.91 -19.98,-4.08l0 -4.98c22.49,-3.34 48.08,-9.58 76.81,-18.72 28.69,-9.18 52.44,-18.53 71.16,-28.1l2.47 3.14 0 61.78c8.75,-11.66 20.72,-23.31 35.91,-34.97 15.19,-11.62 30.69,-20.37 46.51,-26.22 10.01,-3.73 20.8,-5.61 32.46,-5.61 22.49,0 41.64,7.5 57.46,22.49 15.78,14.99 23.71,37.88 23.71,68.69l0 198.52c0,5.42 1.02,9.77 3.1,13.11 2.12,3.34 5.22,4.98 9.38,4.98l15.62 0z"/>
   <path id="_3" class="fil1" d="M2932.71 1185.53l0 6.24 -178.55 0 0 -6.24 15.58 0c8.32,0 12.48,-6.24 12.48,-18.72l0 -202.92c0,-29.55 -7.46,-44.31 -22.45,-44.31 -7.93,0 -16.76,3.73 -26.53,11.23 -9.77,7.5 -18.02,15.82 -24.69,25l0 211.63c0,11.66 4.2,17.66 12.52,18.09l15.58 0 0 6.24 -178.55 0 0 -6.24 15.62 0c8.32,0 12.48,-6.24 12.48,-18.72l0 -211.63c0,-9.58 -2.71,-16.13 -8.12,-19.66 -5.42,-3.57 -12.05,-4.91 -19.98,-4.08l0 -4.98c22.49,-3.34 48.08,-9.58 76.81,-18.72 28.69,-9.18 52.44,-18.53 71.16,-28.1l2.47 3.14 0 61.78c8.75,-11.66 20.72,-23.31 35.91,-34.97 15.19,-11.62 30.69,-20.37 46.51,-26.22 10.01,-3.73 20.8,-5.61 32.46,-5.61 22.49,0 41.64,7.5 57.46,22.49 15.78,14.99 23.71,37.88 23.71,68.69l0 198.52c0,5.42 1.02,9.77 3.1,13.11 2.12,3.34 5.22,4.98 9.38,4.98l15.62 0z"/>
   <path id="_4" class="fil1" d="M3091.28 1000.11c9.58,32.03 24.45,55.97 44.63,71.79 20.21,15.82 42.35,23.71 66.49,23.71 22.06,0 42.27,-6.12 60.56,-18.41 18.33,-12.29 30.18,-28.18 35.6,-47.77 6.63,9.18 9.97,21.23 9.97,36.23 0,19.55 -5.61,39.52 -16.84,59.93 -11.23,20.41 -28.42,37.44 -51.5,51.18 -23.12,13.74 -51.53,20.61 -85.25,20.61 -37.44,0 -71.16,-9.46 -101.11,-28.42 -29.99,-18.92 -53.5,-44.82 -70.57,-77.71 -17.03,-32.89 -25.59,-69.28 -25.59,-109.23 0,-43.72 9.89,-83.56 29.67,-119.55 19.74,-36.03 46.59,-64.33 80.54,-84.94 33.91,-20.61 71.24,-30.89 112.06,-30.89 23.27,0 44.74,3.73 64.29,11.23 19.55,7.5 34.54,16.88 44.94,28.1 15.42,15.82 23.12,33.09 23.12,51.81 0,18.33 -7.38,34.03 -22.18,47.14 -14.76,13.11 -32.97,19.66 -54.64,19.66 -9.58,0 -19.98,-1.65 -31.2,-4.98 5.42,-17.47 8.12,-35.36 8.12,-53.69 0,-24.96 -5.1,-46.08 -15.31,-63.35 -10.2,-17.27 -23.39,-25.9 -39.64,-25.9 -4.59,0 -9.15,0.82 -13.74,2.47 -19.55,6.24 -35.29,23.75 -47.14,52.44 -11.85,28.73 -17.78,61.82 -17.78,99.26 0,31.63 4.16,61.39 12.48,89.29z"/>
   <path id="_5" class="fil1" d="M3530.79 871.49c32.03,0 62.01,7.38 89.88,22.18 27.91,14.76 50.04,34.66 66.49,59.62 16.45,24.96 24.69,52.24 24.69,81.8 0,30.38 -7.3,58.05 -21.86,83.01 -14.56,24.96 -35.6,44.74 -63.07,59.31 -27.44,14.56 -59.5,21.86 -96.12,21.86 -37.05,0 -69.31,-7.3 -96.79,-21.86 -27.44,-14.56 -48.36,-34.23 -62.72,-58.99 -14.37,-24.77 -21.55,-52.55 -21.55,-83.33 0,-29.99 7.61,-57.46 22.8,-82.42 15.19,-24.96 36.5,-44.74 63.98,-59.31 27.47,-14.56 58.91,-21.86 94.28,-21.86zm17.47 314.03c10.83,0 19.35,-9.26 25.59,-27.79 6.24,-18.53 9.38,-42.74 9.38,-72.73 0,-17.9 -1.26,-36.42 -3.73,-55.58 -3.34,-26.61 -8.56,-50.98 -15.62,-73.04 -7.06,-22.06 -15.11,-39.52 -24.06,-52.44 -8.91,-12.87 -17.78,-19.35 -26.53,-19.35 -10.79,0 -19.35,9.38 -25.59,28.1 -6.24,18.72 -9.34,43.1 -9.34,73.04 0,17.47 1.26,35.99 3.73,55.58 3.34,26.61 8.63,50.98 15.94,73.04 7.26,22.06 15.27,39.41 24.02,52.12 8.75,12.68 17.51,19.04 26.22,19.04z"/>
   <path id="_6" class="fil1" d="M4305.54 1185.53l0 6.24 -178.55 0 0 -6.24 15.62 0c8.32,0 12.48,-6.24 12.48,-18.72l0 -202.92c0,-29.55 -7.5,-44.31 -22.45,-44.31 -7.93,0 -16.45,3.53 -25.63,10.6 -9.15,7.1 -17.27,15.19 -24.33,24.37 0.43,2.9 0.63,7.69 0.63,14.37l0 198.52c0,5.42 1.02,9.77 3.1,13.11 2.12,3.34 5.22,4.98 9.38,4.98l15.62 0 0 6.24 -178.55 0 0 -6.24 15.58 0c8.32,0 12.48,-6.24 12.48,-18.72l0 -202.92c0,-29.55 -7.46,-44.31 -22.45,-44.31 -7.93,0 -16.76,3.73 -26.53,11.23 -9.77,7.5 -18.02,15.82 -24.69,25l0 211.63c0,11.66 4.2,17.66 12.52,18.09l15.58 0 0 6.24 -178.55 0 0 -6.24 15.62 0c8.32,0 12.48,-6.24 12.48,-18.72l0 -211.63c0,-9.58 -2.71,-16.13 -8.12,-19.66 -5.42,-3.57 -12.05,-4.91 -19.98,-4.08l0 -4.98c22.49,-3.34 48.08,-9.58 76.81,-18.72 28.69,-9.18 52.44,-18.53 71.16,-28.1l2.47 3.14 0 61.78c8.75,-11.66 20.72,-23.31 35.91,-34.97 15.19,-11.62 30.69,-20.37 46.51,-26.22 10.01,-3.73 20.8,-5.61 32.46,-5.61 19.15,0 36.11,5.61 50.91,16.88 14.76,11.23 24.22,28.3 28.38,51.18l0 -1.26c8.75,-11.66 20.72,-23.31 35.91,-34.97 15.19,-11.62 30.69,-20.37 46.51,-26.22 9.97,-3.73 20.8,-5.61 32.46,-5.61 22.49,0 41.6,7.5 57.42,22.49 15.82,14.99 23.75,37.88 23.75,68.69l0 198.52c0,5.42 1.02,9.77 3.1,13.11 2.08,3.34 5.22,4.98 9.38,4.98l15.58 0z"/>
   <path id="_7" class="fil1" d="M4529.06 879.62l0 6.87 -48.08 0 0 280.95c0,11.66 4.2,17.66 12.52,18.09l15.58 0 0 6.24 -178.55 0 0 -6.24 15.62 0c8.32,0 12.48,-6.24 12.48,-18.72l0 -280.32 -24.33 0 0 -6.87 24.33 0 0 -56.21c0,-29.95 7.26,-54.83 21.86,-74.57 14.56,-19.78 33.28,-34.15 56.17,-43.1 22.88,-8.95 47.26,-13.42 73.04,-13.42 25.39,0 48.9,4.59 70.57,13.74 21.63,9.15 37.01,22.25 46.2,39.33 5.81,11.26 8.71,22.06 8.71,32.46 0,16.25 -6.55,29.55 -19.66,39.96 -13.11,10.4 -28.42,15.62 -45.88,15.62 -14.56,0 -27.47,-3.53 -38.7,-10.6 7.06,-10.01 10.6,-25.2 10.6,-45.61 0,-17.47 -3.02,-33.09 -9.03,-46.82 -6.04,-13.7 -13.86,-20.57 -23.43,-20.57 -11.66,0 -19.23,7.46 -22.76,22.45 -3.53,14.99 -5.34,41.02 -5.34,78.03l0 69.31 48.08 0z"/>
   <path id="_8" class="fil1" d="M4723.23 871.49c32.03,0 62.01,7.38 89.88,22.18 27.91,14.76 50.04,34.66 66.49,59.62 16.45,24.96 24.69,52.24 24.69,81.8 0,30.38 -7.3,58.05 -21.86,83.01 -14.56,24.96 -35.6,44.74 -63.07,59.31 -27.44,14.56 -59.5,21.86 -96.12,21.86 -37.05,0 -69.31,-7.3 -96.79,-21.86 -27.44,-14.56 -48.36,-34.23 -62.72,-58.99 -14.37,-24.77 -21.55,-52.55 -21.55,-83.33 0,-29.99 7.61,-57.46 22.8,-82.42 15.19,-24.96 36.5,-44.74 63.98,-59.31 27.47,-14.56 58.91,-21.86 94.28,-21.86zm17.47 314.03c10.83,0 19.35,-9.26 25.59,-27.79 6.24,-18.53 9.38,-42.74 9.38,-72.73 0,-17.9 -1.26,-36.42 -3.73,-55.58 -3.34,-26.61 -8.56,-50.98 -15.62,-73.04 -7.06,-22.06 -15.11,-39.52 -24.06,-52.44 -8.91,-12.87 -17.78,-19.35 -26.53,-19.35 -10.79,0 -19.35,9.38 -25.59,28.1 -6.24,18.72 -9.34,43.1 -9.34,73.04 0,17.47 1.26,35.99 3.73,55.58 3.34,26.61 8.63,50.98 15.94,73.04 7.26,22.06 15.27,39.41 24.02,52.12 8.75,12.68 17.51,19.04 26.22,19.04z"/>
   <path id="_9" class="fil1" d="M5162.74 883.35c18.72,-6.63 35.6,-9.97 50.55,-9.97 19.59,0 36.11,4.79 49.65,14.37 13.54,9.58 22.37,23.71 26.53,42.43 1.26,6.67 1.88,12.91 1.88,18.76 0,19.98 -7.1,35.87 -21.23,47.73 -14.17,11.89 -30.38,17.82 -48.71,17.82 -15.82,0 -29.75,-4.71 -41.84,-14.05 -12.05,-9.38 -19.35,-23 -21.82,-40.9 -4.16,-28.3 -13.11,-42.47 -26.85,-42.47 -7.93,0 -16.45,3.96 -25.59,11.89 -9.18,7.89 -17.51,16.84 -25,26.85l0 211.63c0,11.66 4.16,17.66 12.48,18.09l15.62 0 0 6.24 -178.55 0 0 -6.24 15.62 0c8.32,0 12.48,-6.24 12.48,-18.72l0 -211.63c0,-16.25 -7.3,-24.37 -21.86,-24.37l-6.87 0.63 0 -4.98c72.42,-14.56 121.95,-30.18 148.6,-46.82l2.47 3.14 0 61.78c8.75,-11.23 20.61,-22.69 35.6,-34.34 14.99,-11.66 30.58,-20.61 46.82,-26.85z"/>
   <path id="_10" class="fil1" d="M5499.27 879.62l0 6.87 -34.97 0 0 280.95c0,11.66 3.96,17.66 11.85,18.09l16.25 0 0 6.24 -101.77 -0.63c-16.25,-0.43 -28.42,-4.04 -36.5,-10.91 -8.12,-6.87 -12.21,-20.53 -12.21,-40.9l0 -229.14c0,-9.15 -2.59,-15.39 -7.77,-18.72 -5.22,-3.34 -10.72,-4.98 -16.56,-4.98l-13.74 0 0 -6.87c35.8,0 66.92,-10.28 93.33,-30.89 26.41,-20.61 47.57,-51.93 63.39,-93.96l3.73 3.1 0 121.75 34.97 0z"/>
   <path class="fil1" d="M1634.58 1341.07l37.91 0c16.76,0 25.12,8.91 25.12,26.65l0 46.16c0,17.62 -8.28,26.41 -24.88,26.41l-17.35 0 0 56.32 -20.8 0 0 -155.55zm20.8 80.38l13.23 0c5.49,0 8.24,-3.02 8.24,-9.11l0 -43.33c0,-6.04 -3.14,-9.07 -9.34,-9.07l-12.13 0 0 61.5z"/>
   <path id="_1_0" class="fil1" d="M1771.44 1341.07l40.74 0c15.9,0 23.82,8.91 23.82,26.65l0 38.35c0,13.58 -4.12,22.18 -12.36,25.79l14.52 64.76 -19.7 0 -13.66 -62.84 -12.56 0 0 62.84 -20.8 0 0 -155.55zm20.8 74.97l13.66 0c6.2,0 9.3,-3.77 9.3,-11.26l0 -33.6c0,-7.5 -3.1,-11.23 -9.3,-11.23l-13.66 0 0 56.09z"/>
   <path id="_2_1" class="fil1" d="M1934.76 1496.62c-16.76,0 -25.12,-8.79 -25.12,-26.41l0 -102.48c0,-17.74 8.28,-26.65 24.88,-26.65l19.94 0c16.6,0 24.92,8.91 24.92,26.65l0 102.48c0,17.62 -8.4,26.41 -25.12,26.41l-19.51 0zm4.98 -18.84l10.6 0c5.49,0 8.24,-3.02 8.24,-9.11l0 -99.65c0,-6.04 -3.1,-9.07 -9.3,-9.07l-9.77 0c-6.04,0 -9.07,3.02 -9.07,9.07l0 99.65c0,6.08 3.1,9.11 9.3,9.11z"/>
   <polygon id="_3_2" class="fil1" points="2088.34,1359.95 2088.34,1496.62 2067.54,1496.62 2067.54,1359.95 2047.6,1359.95 2047.6,1341.07 2108.28,1341.07 2108.28,1359.95 "/>
   <polygon id="_4_3" class="fil1" points="2177.55,1496.62 2177.55,1341.07 2229.13,1341.07 2229.13,1359.95 2198.36,1359.95 2198.36,1407.17 2225.67,1407.17 2225.67,1426.01 2198.36,1426.01 2198.36,1477.78 2229.13,1477.78 2229.13,1496.62 "/>
   <path id="_5_4" class="fil1" d="M2293.85 1477.78l13.66 0c6.2,0 9.3,-3.77 9.3,-11.26l0 -125.44 20.8 0 0 129.33c0,17.47 -8.01,26.22 -24.06,26.22l-19.7 0 0 -18.84z"/>
   <path id="_6_5" class="fil1" d="M2434.21 1496.62l-20.8 0 0 -128.89c0,-17.74 8.28,-26.65 24.88,-26.65l15.62 0c16.6,0 24.88,8.91 24.88,26.65l0 128.89 -20.76 0 0 -56.95 -23.82 0 0 56.95zm23.82 -75.83l0 -51.77c0,-6.04 -3.06,-9.07 -9.11,-9.07l-5.65 0c-6.04,0 -9.07,3.02 -9.07,9.07l0 51.77 23.82 0z"/>
   <path id="_7_6" class="fil1" d="M2705.03 1496.62l-56.52 0c-16.76,0 -25.12,-8.75 -25.12,-26.22l0 -102.68c0,-17.74 8.28,-26.65 24.88,-26.65l19.94 0c16.6,0 24.92,8.91 24.92,26.65l0 110.06 11.89 0 0 18.84zm-32.69 -18.84l0 -108.76c0,-6.04 -3.1,-9.07 -9.3,-9.07l-9.77 0c-6.04,0 -9.07,3.02 -9.07,9.07l0 99.65c0,6.08 3.1,9.11 9.3,9.11l18.84 0z"/>
   <path id="_8_7" class="fil1" d="M2839.73 1341.07l0 126.07c0,19.66 -8.36,29.48 -25.12,29.48l-17.54 0c-16.6,0 -24.92,-9.89 -24.92,-29.67l0 -125.87 20.8 0 0 126.5c0,6.79 3.02,10.2 9.11,10.2l8.44 0c5.65,0 8.44,-3.41 8.44,-10.2l0 -126.5 20.8 0z"/>
   <polygon id="_9_8" class="fil1" points="2916.62,1496.62 2916.62,1341.07 2968.19,1341.07 2968.19,1359.95 2937.42,1359.95 2937.42,1407.17 2964.74,1407.17 2964.74,1426.01 2937.42,1426.01 2937.42,1477.78 2968.19,1477.78 2968.19,1496.62 "/>
   <polygon id="_10_9" class="fil1" points="3082.76,1432.48 3102.03,1341.07 3124.99,1341.07 3124.99,1496.62 3104.19,1496.62 3106.35,1394.8 3090.77,1468.48 3074.72,1468.48 3059.13,1394.8 3061.29,1496.62 3040.49,1496.62 3040.49,1341.07 3063.45,1341.07 "/>
   <path id="_11" class="fil1" d="M3311.59 1382.91l0 -13.66c0,-6.2 -3.02,-9.3 -9.11,-9.3l-3.26 0c-5.93,0 -8.87,3.1 -8.87,9.3l0 25.79c0,2.87 0.59,4.83 1.73,5.85 1.18,0.98 3.02,2.28 5.65,3.89l19.7 10.6c4.32,2.47 7.38,4.4 9.18,5.77 1.81,1.37 3.22,3.02 4.24,4.98 1.02,1.92 1.53,5.65 1.53,11.15l0 33.13c0,17.47 -8.4,26.22 -25.16,26.22l-12.76 0c-16.6,0 -24.92,-9.54 -24.92,-28.61l0 -7.77 20.8 0 0 8.44c0,6.08 3.1,9.11 9.3,9.11l3.69 0c5.49,0 8.24,-3.02 8.24,-9.11l0 -26.41c0,-2.9 -0.59,-4.87 -1.73,-5.85 -1.18,-1.02 -3.06,-2.32 -5.65,-3.92l-19.7 -11.03c-4.32,-2.32 -7.46,-4.28 -9.42,-5.85 -1.96,-1.61 -3.38,-3.65 -4.24,-6.16 -0.86,-2.55 -1.3,-5.81 -1.3,-9.89l0 -31.83c0,-17.74 8.32,-26.65 24.92,-26.65l12.99 0c16.6,0 24.92,8.91 24.92,26.65l0 15.19 -20.8 0z"/>
   <polygon id="_12" class="fil1" points="3407.08,1496.62 3407.08,1341.07 3458.65,1341.07 3458.65,1359.95 3427.88,1359.95 3427.88,1407.17 3455.2,1407.17 3455.2,1426.01 3427.88,1426.01 3427.88,1477.78 3458.65,1477.78 3458.65,1496.62 "/>
   <polygon id="_13" class="fil1" points="3573.22,1432.48 3592.49,1341.07 3615.45,1341.07 3615.45,1496.62 3594.65,1496.62 3596.81,1394.8 3581.23,1468.48 3565.18,1468.48 3549.59,1394.8 3551.75,1496.62 3530.95,1496.62 3530.95,1341.07 3553.91,1341.07 "/>
   <path id="_14" class="fil1" d="M3692.3 1341.07l37.91 0c16.76,0 25.12,8.91 25.12,26.65l0 46.16c0,17.62 -8.28,26.41 -24.88,26.41l-17.35 0 0 56.32 -20.8 0 0 -155.55zm20.8 80.38l13.23 0c5.49,0 8.24,-3.02 8.24,-9.11l0 -43.33c0,-6.04 -3.14,-9.07 -9.34,-9.07l-12.13 0 0 61.5z"/>
   <path id="_15" class="fil1" d="M3829.17 1341.07l40.74 0c15.9,0 23.82,8.91 23.82,26.65l0 38.35c0,13.58 -4.12,22.18 -12.36,25.79l14.52 64.76 -19.7 0 -13.66 -62.84 -12.56 0 0 62.84 -20.8 0 0 -155.55zm20.8 74.97l13.66 0c6.2,0 9.3,-3.77 9.3,-11.26l0 -33.6c0,-7.5 -3.1,-11.23 -9.3,-11.23l-13.66 0 0 56.09z"/>
   <polygon id="_16" class="fil1" points="3968.42,1496.62 3968.42,1341.07 4020,1341.07 4020,1359.95 3989.23,1359.95 3989.23,1407.17 4016.54,1407.17 4016.54,1426.01 3989.23,1426.01 3989.23,1477.78 4020,1477.78 4020,1496.62 "/>
   <polygon id="_17" class="fil1" points="4195.32,1359.95 4195.32,1496.62 4174.52,1496.62 4174.52,1359.95 4154.58,1359.95 4154.58,1341.07 4215.26,1341.07 4215.26,1359.95 "/>
   <polygon id="_18" class="fil1" points="4284.54,1496.62 4284.54,1341.07 4336.11,1341.07 4336.11,1359.95 4305.34,1359.95 4305.34,1407.17 4332.66,1407.17 4332.66,1426.01 4305.34,1426.01 4305.34,1477.78 4336.11,1477.78 4336.11,1496.62 "/>
   <path id="_19" class="fil1" d="M4478.27 1341.07l37.91 0c16.76,0 25.12,8.91 25.12,26.65l0 46.16c0,17.62 -8.28,26.41 -24.88,26.41l-17.35 0 0 56.32 -20.8 0 0 -155.55zm20.8 80.38l13.23 0c5.49,0 8.24,-3.02 8.24,-9.11l0 -43.33c0,-6.04 -3.14,-9.07 -9.34,-9.07l-12.13 0 0 61.5z"/>
   <path id="_20" class="fil1" d="M4615.14 1341.07l40.74 0c15.9,0 23.82,8.91 23.82,26.65l0 38.35c0,13.58 -4.12,22.18 -12.36,25.79l14.52 64.76 -19.7 0 -13.66 -62.84 -12.56 0 0 62.84 -20.8 0 0 -155.55zm20.8 74.97l13.66 0c6.2,0 9.3,-3.77 9.3,-11.26l0 -33.6c0,-7.5 -3.1,-11.23 -9.3,-11.23l-13.66 0 0 56.09z"/>
   <path id="_21" class="fil1" d="M4778.45 1496.62c-16.76,0 -25.12,-8.79 -25.12,-26.41l0 -102.48c0,-17.74 8.28,-26.65 24.88,-26.65l19.94 0c16.6,0 24.92,8.91 24.92,26.65l0 102.48c0,17.62 -8.4,26.41 -25.12,26.41l-19.51 0zm4.98 -18.84l10.6 0c5.49,0 8.24,-3.02 8.24,-9.11l0 -99.65c0,-6.04 -3.1,-9.07 -9.3,-9.07l-9.77 0c-6.04,0 -9.07,3.02 -9.07,9.07l0 99.65c0,6.08 3.1,9.11 9.3,9.11z"/>
   <polygon id="_22" class="fil1" points="4932.03,1359.95 4932.03,1496.62 4911.23,1496.62 4911.23,1359.95 4891.29,1359.95 4891.29,1341.07 4951.97,1341.07 4951.97,1359.95 "/>
   <polygon id="_23" class="fil1" points="5021.25,1496.62 5021.25,1341.07 5072.82,1341.07 5072.82,1359.95 5042.05,1359.95 5042.05,1407.17 5069.37,1407.17 5069.37,1426.01 5042.05,1426.01 5042.05,1477.78 5072.82,1477.78 5072.82,1496.62 "/>
   <path id="_24" class="fil1" d="M5177.19 1439.67l0 -18.88 31.63 0 0 75.83 -40.74 0c-16.01,0 -24.02,-8.75 -24.02,-26.22l0 -102.68c0,-17.74 8.01,-26.65 24.02,-26.65l14.33 0c17.62,0 26.41,9.03 26.41,27.08l0 16.92 -20.8 0 0 -13.89c0,-7.5 -2.94,-11.23 -8.87,-11.23l-5.22 0c-6.04,0 -9.07,3.73 -9.07,11.23l0 95.34c0,7.5 3.02,11.26 9.07,11.26l14.09 0 0 -38.11 -10.83 0z"/>
   <polygon id="_25" class="fil1" points="5283.08,1496.62 5283.08,1341.07 5334.65,1341.07 5334.65,1359.95 5303.88,1359.95 5303.88,1407.17 5331.2,1407.17 5331.2,1426.01 5303.88,1426.01 5303.88,1477.78 5334.65,1477.78 5334.65,1496.62 "/>
   <path id="_26" class="fil1" d="M5474.54 1341.07l0 126.07c0,19.66 -8.36,29.48 -25.12,29.48l-17.54 0c-16.6,0 -24.92,-9.89 -24.92,-29.67l0 -125.87 20.8 0 0 126.5c0,6.79 3.02,10.2 9.11,10.2l8.44 0c5.65,0 8.44,-3.41 8.44,-10.2l0 -126.5 20.8 0z"/>
  </g>
 </g>
</svg>
