<?xml version="1.0" encoding="UTF-8"?>
<!DOCTYPE svg PUBLIC "-//W3C//DTD SVG 1.1//EN" "http://www.w3.org/Graphics/SVG/1.1/DTD/svg11.dtd">
<!-- Creator: CorelDRAW -->
<svg xmlns="http://www.w3.org/2000/svg" xml:space="preserve" width="10.5575mm" height="4.9814mm" version="1.1" style="shape-rendering:geometricPrecision; text-rendering:geometricPrecision; image-rendering:optimizeQuality; fill-rule:evenodd; clip-rule:evenodd"
viewBox="0 0 1242.93 586.46"
 xmlns:xlink="http://www.w3.org/1999/xlink"
 xmlns:xodm="http://www.corel.com/coreldraw/odm/2003">
 <defs>
  <style type="text/css">
   <![CDATA[
    .fil0 {fill:black;fill-rule:nonzero}
   ]]>
  </style>
 </defs>
 <g id="Camada_x0020_1">
  <metadata id="CorelCorpID_0Corel-Layer"/>
  <g id="_1735426203952">
   <path class="fil0" d="M230.53 292.85l0 -177.58c0,-63.66 -51.6,-115.27 -115.26,-115.27l0 0c-63.67,0 -115.27,51.61 -115.27,115.27l0 182.26c0,107.18 86.88,194.08 194.07,194.08l121.12 0c10.94,0 19.81,-8.88 19.81,-19.81l0 0c0,-10.95 -8.88,-19.81 -19.81,-19.81l-103.86 0c-90.13,0 -163.2,-73.06 -163.2,-163.2l0 -174.85c0,-36.12 29.27,-65.39 65.39,-65.39l0 0c36.11,0 65.39,29.27 65.39,65.39l0 178.93c0,14.25 11.54,25.81 25.78,25.82l0 0c14.28,0.01 25.84,-11.55 25.84,-25.82z"/>
   <path class="fil0" d="M114.67 84.55l0 0c12.93,0 23.4,10.48 23.4,23.42l0 180.57c0,38.37 31.1,69.47 69.48,69.47l102.07 0c63.08,0 114.22,51.14 114.22,114.22l0 0c0,63.08 -51.14,114.22 -114.22,114.22l-121.12 0c0,0 -110.47,-1.2 -150.09,-109.28 0,0 58.84,61.24 150.09,61.24l123.67 0c37.79,0 68.44,-30.64 68.44,-68.44l0 0c0,-37.8 -30.64,-68.45 -68.44,-68.45l-113.03 0c-59.55,0 -107.82,-48.26 -107.84,-107.79l-0.06 -185.78c0,-12.93 10.48,-23.42 23.42,-23.42z"/>
   <path class="fil0" d="M260.31 87.19c0,-10.03 3.6,-18.74 10.89,-26.03 7.28,-7.28 16.22,-10.89 26.89,-10.89 10.67,0 19.6,3.61 26.89,10.89 7.28,7.29 10.89,16 10.89,26.03l0 134.39c0,8.54 2.92,15.71 8.71,21.5 5.85,5.85 12.73,8.77 20.7,8.77 7.97,0 14.85,-2.92 20.64,-8.77 5.85,-5.79 8.77,-12.96 8.77,-21.5l0 -134.39c0,-10.03 3.61,-18.74 10.9,-26.03 7.28,-7.28 16.22,-10.89 26.89,-10.89 10.61,0 19.6,3.61 26.83,10.89 7.28,7.29 10.95,16 10.95,26.03l0 134.39c0,28.67 -10.21,53.2 -30.56,73.56 -20.4,20.4 -45.17,30.61 -74.42,30.61 -29.23,0 -54.06,-10.21 -74.42,-30.61 -20.36,-20.36 -30.55,-44.89 -30.55,-73.56l0 -134.39z"/>
   <path id="_1" class="fil0" d="M571.05 124.17l0 127.68c14.45,0 27.87,-6.19 40.25,-18.58 12.37,-12.39 18.57,-27.45 18.57,-45.29 0,-17.78 -6.19,-32.91 -18.57,-45.23 -12.39,-12.39 -25.81,-18.58 -40.25,-18.58zm-4.19 201.58l-33.59 0c-10.67,0 -19.61,-3.66 -26.89,-10.95 -7.29,-7.28 -10.89,-15.94 -10.89,-26.03l0 -201.58c0,-10.03 3.6,-18.74 10.89,-26.03 7.28,-7.28 16.22,-10.89 26.89,-10.89l33.59 0c38.42,0 71.1,13.47 98.1,40.48 27,27.01 40.48,59.39 40.48,97.23 0,37.84 -13.48,70.3 -40.48,97.29 -27.01,26.95 -59.69,40.48 -98.1,40.48z"/>
   <path id="_2" class="fil0" d="M809.08 292.16l-8.42 16.79 -0.29 0c-0.92,1.32 -2.46,3.21 -4.7,5.69 -7.51,7.39 -16.56,11.11 -27.23,11.11 -10.67,0 -19.61,-3.66 -26.89,-10.95 -7.29,-7.28 -10.89,-15.94 -10.89,-26.03 0,-6.59 0.68,-11.07 2,-13.41l0.18 0 104.11 -208.29 0.34 0c0.92,-1.5 2.59,-3.39 5.05,-5.73 7.28,-7.41 16.22,-11.07 26.89,-11.07 10.61,0 19.6,3.61 26.89,10.89 2.46,2.58 4.12,4.53 4.99,5.91l0.34 0 104.17 208.29 0.18 0c1.32,2.34 2,6.82 2,13.41 0,10.09 -3.66,18.75 -10.95,26.03 -7.28,7.29 -16.22,10.95 -26.83,10.95 -10.67,0 -19.55,-3.6 -26.71,-10.77 -2.58,-2.7 -4.31,-4.71 -5.22,-6.03l-0.35 0 -8.37 -16.79 -120.28 0zm83.31 -73.91l-23.16 -46.37 -23.17 46.37 46.33 0z"/>
   <path id="_3" class="fil0" d="M1171.55 151.06c10.61,0 19.6,3.61 26.89,10.89 7.22,7.29 10.89,15.94 10.89,26.03 0,10.09 -3.67,18.75 -10.89,26.03 -7.29,7.28 -16.28,10.95 -26.89,10.95l-63.01 0 0 63.81c0,10.09 -3.61,18.75 -10.89,26.03 -7.29,7.29 -16.22,10.95 -26.89,10.95 -10.67,0 -19.61,-3.66 -26.89,-10.95 -7.29,-7.28 -10.89,-15.94 -10.89,-26.03l0 -201.58c0,-10.03 3.6,-18.74 10.89,-26.03 7.28,-7.28 16.22,-10.89 26.89,-10.89l134.39 0c10.61,0 19.6,3.61 26.83,10.89 7.28,7.29 10.95,16 10.95,26.03 0,10.09 -3.67,18.8 -10.95,26.09 -7.23,7.22 -16.22,10.89 -26.83,10.89l-96.61 0 0 26.89 63.01 0z"/>
   <path class="fil0" d="M500.71 417.55l32.09 0 0 9.87 -32.09 0 0 -9.87zm0.93 27.67l36.43 0 0 10.05 -48.42 0 0 -64.55 47.13 0 0 10.05 -35.13 0 0 44.44z"/>
   <polygon id="_1_0" class="fil0" points="592.38,455.27 619.59,417.83 619.59,426.86 593.67,390.72 607.24,390.72 626.51,417.46 620.98,417.55 640.06,390.72 653.07,390.72 627.33,426.23 627.33,417.55 654.73,455.27 640.9,455.27 620.6,426.86 626.05,426.86 606.04,455.27 "/>
   <path id="_2_1" class="fil0" d="M711.53 455.27l0 -64.55 26.56 0c5.72,0 10.62,0.92 14.72,2.77 4.09,1.85 7.23,4.49 9.44,7.93 2.21,3.44 3.32,7.52 3.32,12.26 0,4.73 -1.11,8.83 -3.32,12.27 -2.21,3.45 -5.36,6.09 -9.44,7.93 -4.1,1.84 -8.99,2.77 -14.72,2.77l-19.92 0 5.36 -5.63 0 24.25 -12 0zm12 -22.96l-5.36 -5.82 19.37 0c5.29,0 9.27,-1.12 11.95,-3.37 2.67,-2.24 4,-5.39 4,-9.45 0,-4.12 -1.33,-7.28 -4,-9.49 -2.68,-2.21 -6.66,-3.32 -11.95,-3.32l-19.37 0 5.36 -5.91 0 37.36z"/>
   <path id="_3_2" class="fil0" d="M827.08 455.27l0 -64.55 26.56 0c5.72,0 10.62,0.92 14.72,2.77 4.09,1.85 7.23,4.49 9.44,7.93 2.21,3.44 3.32,7.52 3.32,12.26 0,4.73 -1.11,8.81 -3.32,12.22 -2.21,3.41 -5.36,6.03 -9.44,7.84 -4.1,1.81 -8.99,2.72 -14.72,2.72l-19.92 0 5.36 -5.44 0 24.25 -12 0zm42.24 0l-16.33 -23.43 12.82 0 16.41 23.43 -12.9 0zm-30.24 -22.96l-5.36 -5.72 19.37 0c5.29,0 9.27,-1.14 11.95,-3.41 2.67,-2.27 4,-5.44 4,-9.5 0,-4.12 -1.33,-7.28 -4,-9.49 -2.68,-2.21 -6.66,-3.32 -11.95,-3.32l-19.37 0 5.36 -5.91 0 37.36z"/>
   <path id="_4" class="fil0" d="M955.09 417.55l32.09 0 0 9.87 -32.09 0 0 -9.87zm0.93 27.67l36.43 0 0 10.05 -48.42 0 0 -64.55 47.13 0 0 10.05 -35.13 0 0 44.44z"/>
   <path id="_5" class="fil0" d="M1075.35 456.19c-5.04,0 -9.87,-0.72 -14.48,-2.17 -4.6,-1.44 -8.26,-3.3 -10.97,-5.58l4.16 -9.31c2.58,2.04 5.78,3.72 9.58,5.07 3.81,1.35 7.72,2.02 11.71,2.02 3.38,0 6.12,-0.36 8.21,-1.11 2.1,-0.73 3.63,-1.73 4.61,-2.99 0.98,-1.26 1.47,-2.7 1.47,-4.29 0,-1.98 -0.71,-3.56 -2.12,-4.76 -1.41,-1.2 -3.24,-2.15 -5.49,-2.86 -2.25,-0.71 -4.73,-1.37 -7.48,-1.98 -2.73,-0.61 -5.46,-1.34 -8.21,-2.17 -2.73,-0.84 -5.23,-1.91 -7.46,-3.23 -2.25,-1.33 -4.07,-3.1 -5.49,-5.31 -1.41,-2.21 -2.12,-5.04 -2.12,-8.48 0,-3.51 0.93,-6.72 2.81,-9.64 1.87,-2.92 4.73,-5.25 8.57,-7 3.84,-1.75 8.71,-2.63 14.62,-2.63 3.87,0 7.71,0.48 11.53,1.47 3.8,0.98 7.12,2.4 9.96,4.24l-3.79 9.31c-2.88,-1.72 -5.86,-2.99 -8.94,-3.83 -3.07,-0.82 -6.03,-1.24 -8.85,-1.24 -3.32,0 -6.02,0.39 -8.08,1.19 -2.06,0.8 -3.57,1.85 -4.51,3.14 -0.95,1.28 -1.44,2.77 -1.44,4.43 0,1.97 0.69,3.54 2.07,4.74 1.39,1.2 3.2,2.14 5.44,2.81 2.25,0.67 4.76,1.34 7.52,1.98 2.77,0.65 5.52,1.38 8.25,2.17 2.73,0.8 5.23,1.85 7.46,3.14 2.25,1.28 4.06,3.04 5.45,5.25 1.38,2.21 2.07,5.02 2.07,8.39 0,3.44 -0.94,6.63 -2.81,9.55 -1.87,2.92 -4.76,5.25 -8.62,7 -3.87,1.75 -8.77,2.63 -14.67,2.63z"/>
   <path id="_6" class="fil0" d="M1182.89 456.19c-5.04,0 -9.87,-0.72 -14.48,-2.17 -4.6,-1.44 -8.26,-3.3 -10.97,-5.58l4.16 -9.31c2.58,2.04 5.78,3.72 9.58,5.07 3.81,1.35 7.72,2.02 11.71,2.02 3.38,0 6.12,-0.36 8.21,-1.11 2.1,-0.73 3.63,-1.73 4.61,-2.99 0.98,-1.26 1.47,-2.7 1.47,-4.29 0,-1.98 -0.71,-3.56 -2.12,-4.76 -1.41,-1.2 -3.24,-2.15 -5.49,-2.86 -2.25,-0.71 -4.73,-1.37 -7.48,-1.98 -2.73,-0.61 -5.46,-1.34 -8.21,-2.17 -2.73,-0.84 -5.23,-1.91 -7.46,-3.23 -2.25,-1.33 -4.07,-3.1 -5.49,-5.31 -1.41,-2.21 -2.12,-5.04 -2.12,-8.48 0,-3.51 0.93,-6.72 2.81,-9.64 1.87,-2.92 4.73,-5.25 8.57,-7 3.84,-1.75 8.71,-2.63 14.62,-2.63 3.87,0 7.71,0.48 11.53,1.47 3.8,0.98 7.12,2.4 9.96,4.24l-3.79 9.31c-2.88,-1.72 -5.86,-2.99 -8.94,-3.83 -3.07,-0.82 -6.03,-1.24 -8.85,-1.24 -3.32,0 -6.02,0.39 -8.08,1.19 -2.06,0.8 -3.57,1.85 -4.51,3.14 -0.95,1.28 -1.44,2.77 -1.44,4.43 0,1.97 0.69,3.54 2.07,4.74 1.39,1.2 3.2,2.14 5.44,2.81 2.25,0.67 4.76,1.34 7.52,1.98 2.77,0.65 5.52,1.38 8.25,2.17 2.73,0.8 5.23,1.85 7.46,3.14 2.25,1.28 4.06,3.04 5.45,5.25 1.38,2.21 2.07,5.02 2.07,8.39 0,3.44 -0.94,6.63 -2.81,9.55 -1.87,2.92 -4.76,5.25 -8.62,7 -3.87,1.75 -8.77,2.63 -14.67,2.63z"/>
  </g>
 </g>
</svg>
