<?xml version="1.0" encoding="UTF-8"?>
<!DOCTYPE svg PUBLIC "-//W3C//DTD SVG 1.1//EN" "http://www.w3.org/Graphics/SVG/1.1/DTD/svg11.dtd">
<!-- Creator: CorelDRAW -->
<svg xmlns="http://www.w3.org/2000/svg" xml:space="preserve" width="11.9609mm" height="4.441mm" version="1.1" style="shape-rendering:geometricPrecision; text-rendering:geometricPrecision; image-rendering:optimizeQuality; fill-rule:evenodd; clip-rule:evenodd"
viewBox="0 0 267.56 99.34"
 xmlns:xlink="http://www.w3.org/1999/xlink"
 xmlns:xodm="http://www.corel.com/coreldraw/odm/2003">
 <defs>
  <style type="text/css">
   <![CDATA[
    .fil1 {fill:black}
    .fil0 {fill:black;fill-rule:nonzero}
   ]]>
  </style>
 </defs>
 <g id="Camada_x0020_1">
  <metadata id="CorelCorpID_0Corel-Layer"/>
  <g id="_1735350099616">
   <path class="fil0" d="M75.18 70.05c7.05,0 9.76,-0.29 16.81,-0.29 10.63,0 27.44,0.29 37.97,0.29 0.48,-6.47 0.96,-12.37 2.51,-22.32l-2.32 -0.29c-4.83,15.36 -10.53,20.29 -19.81,20.29 -8.21,0 -11.11,-3 -11.11,-12.08l0 -40.77c0,-7.44 3,-9.47 9.18,-10.14l0 -2.32c-6.28,0.19 -11.31,0.19 -16.43,0.19 -4.35,0 -9.76,0 -16.81,-0.19l0 2.32c6.47,0.39 9.18,3.87 9.18,12.08l0 40.77c0,7.05 -2.51,9.28 -9.18,10.14l0 2.32z"/>
   <path id="_1" class="fil0" d="M167.21 71.02c16.42,0 24.15,-8.89 24.15,-29.66l0 -26.47c0,-7.44 3,-9.47 8.21,-10.14l0 -2.32c-5.89,0.19 -12.08,0.19 -21.26,0l0 2.32c7.44,0.39 10.14,3.87 10.14,12.08l0 26.47c0,15.46 -6.86,24.83 -17.29,24.83 -11.88,0 -17.68,-8.99 -17.68,-26.67l0 -26.57c0,-7.44 3,-9.47 9.18,-10.14l0 -2.32c-6.28,0.19 -11.31,0.19 -16.43,0.19 -4.35,0 -9.76,0 -16.81,-0.19l0 2.32c6.47,0.39 9.18,3.87 9.18,12.08l0 28.21c0,17.39 9.86,25.99 28.6,25.99z"/>
   <path id="_2" class="fil0" d="M197.03 70.05c12.56,-0.29 11.11,-0.29 23.58,0l0 -2.32c-7.73,-0.97 -8.41,-4.73 -3.38,-12.08l10.05 -14.69 10.24 16.62c4.44,7.25 3.57,9.28 -4.64,10.14l0 2.32c14.78,-0.29 24.54,-0.29 34.69,0l0 -2.32c-4.93,-0.68 -8.21,-2.51 -14.11,-12.08l-15.75 -25.7 10.24 -15.07c5.02,-7.34 7.63,-9.37 15.07,-10.14l0 -2.32c-11.98,0.29 -10.53,0.29 -23,0l0 2.32c7.73,0.97 8.41,4.74 3.38,12.08l-7.25 10.63 -7.73 -12.56c-4.44,-7.25 -3.57,-9.27 2.8,-10.14l0 -2.32c-12.95,0.29 -22.61,0.29 -32.75,0l0 2.32c4.93,0.68 8.21,2.61 14.01,12.08l13.24 21.64 -13.04 19.13c-5.02,7.34 -7.63,9.37 -15.65,10.14l0 2.32z"/>
   <path class="fil0" d="M82.69 90.81l0 8.32 -1.35 0 0 -23.98 6.29 0c1.83,0.25 3.38,1.02 4.66,2.3 1.53,1.53 2.29,3.37 2.29,5.53 0,2.17 -0.76,4.02 -2.29,5.55 -1.53,1.53 -3.37,2.29 -5.53,2.29l-4.08 0zm0 -14.3l0 12.93 4.08 0c1.78,0 3.3,-0.63 4.56,-1.89 1.26,-1.26 1.9,-2.79 1.9,-4.58 0,-1.79 -0.64,-3.32 -1.9,-4.57 -1.26,-1.26 -2.78,-1.89 -4.56,-1.89l-4.08 0z"/>
   <path id="_1_0" class="fil0" d="M122.2 88.59l-3.65 -10.05 -3.66 10.05 7.31 0zm0.5 1.35l-8.3 0 -3.34 9.19 -1.44 0 8.93 -24.53 8.92 24.53 -1.43 0 -3.34 -9.19z"/>
   <path id="_2_1" class="fil0" d="M147.22 76.51l0 12.93 4.08 0c1.78,0 3.3,-0.63 4.56,-1.89 1.26,-1.26 1.9,-2.79 1.9,-4.58 0,-1.79 -0.64,-3.32 -1.9,-4.57 -1.26,-1.26 -2.78,-1.89 -4.56,-1.89l-4.08 0zm4.48 14.28c-0.13,0.01 -0.27,0.02 -0.4,0.02l-4.08 0 0 8.32 -1.35 0 0 -23.98 6.29 0c1.83,0.25 3.38,1.02 4.66,2.3 1.53,1.53 2.29,3.37 2.29,5.53 0,2.17 -0.76,4.02 -2.29,5.55 -1.06,1.06 -2.27,1.75 -3.64,2.08l5.53 8.53 -1.66 0 -5.35 -8.33z"/>
   <polygon id="_3" class="fil0" points="188.1,75.15 188.1,76.5 178.96,76.5 178.96,86.46 188.1,86.46 188.1,87.82 178.96,87.82 178.96,99.13 177.61,99.13 177.61,75.15 "/>
   <path id="_4" class="fil0" d="M221.93 75.15l1.37 0 0 17.24c-0.25,1.83 -1.01,3.38 -2.29,4.66 -1.53,1.53 -3.37,2.29 -5.53,2.29 -2.17,0 -4.02,-0.76 -5.55,-2.29 -1.53,-1.53 -2.29,-3.37 -2.29,-5.53l0 -16.37 1.36 0 0 16.37c0,1.78 0.63,3.3 1.9,4.56 1.26,1.26 2.79,1.89 4.58,1.89 1.79,0 3.31,-0.63 4.57,-1.89 1.26,-1.26 1.89,-2.79 1.89,-4.56l0 -16.37z"/>
   <polygon id="_5" class="fil0" points="244.75,75.15 253.76,90.74 262.76,75.15 264.3,75.15 264.24,75.26 264.24,99.13 262.89,99.13 262.89,77.59 253.76,93.39 244.62,77.59 244.62,99.13 243.27,99.13 243.27,75.26 243.21,75.15 "/>
   <path class="fil1" d="M15.23 74.19l12.76 -12.16 0 -15.69 -14.3 -14.1 -7.1 7.1 -0.19 0.19c-4.22,4.28 -6.37,8.67 -6.4,12.97 -0.04,4.28 2.02,8.61 6.22,12.82l0.18 0.18 8.83 8.69z"/>
   <path class="fil1" d="M40.29 46.34l0 15.69 12.76 12.16c2.93,-2.89 6.23,-5.9 9,-8.88 4.2,-4.2 6.26,-8.54 6.23,-12.82 -0.04,-4.3 -2.19,-8.69 -6.4,-12.97l-0.19 -0.19 -7.1 -7.1 -14.3 14.1z"/>
   <path class="fil1" d="M26.54 7.61l15.21 0 0 -7.61 -15.21 0 0 7.61zm-8.32 69.52l15.93 15.68 15.92 -15.68 -13.21 -12.59c-0.47,-0.38 -0.76,-0.97 -0.76,-1.62l0 -17.45 0 0c0,-0.54 0.21,-1.08 0.63,-1.49l14.9 -14.7 -4.49 -4.49 -25.99 0 -4.49 4.49 14.9 14.7c0.42,0.41 0.62,0.95 0.62,1.49l0.01 0 0 17.45c0,0.65 -0.3,1.23 -0.76,1.62l-13.21 12.59zm10.51 -57.87l10.83 0 0 -6.11 -10.83 0 0 6.11z"/>
  </g>
 </g>
</svg>
