<?xml version="1.0" encoding="UTF-8"?>
<!DOCTYPE svg PUBLIC "-//W3C//DTD SVG 1.1//EN" "http://www.w3.org/Graphics/SVG/1.1/DTD/svg11.dtd">
<!-- Creator: CorelDRAW -->
<svg xmlns="http://www.w3.org/2000/svg" xml:space="preserve" width="13.9639mm" height="2.9476mm" version="1.1" style="shape-rendering:geometricPrecision; text-rendering:geometricPrecision; image-rendering:optimizeQuality; fill-rule:evenodd; clip-rule:evenodd"
viewBox="0 0 200.25 42.27"
 xmlns:xlink="http://www.w3.org/1999/xlink"
 xmlns:xodm="http://www.corel.com/coreldraw/odm/2003">
 <defs>
  <style type="text/css">
   <![CDATA[
    .fil0 {fill:black}
    .fil1 {fill:black;fill-rule:nonzero}
   ]]>
  </style>
 </defs>
 <g id="Camada_x0020_1">
  <metadata id="CorelCorpID_0Corel-Layer"/>
  <g id="_1735422674640">
   <polygon class="fil0" points="-0,0 12.54,16.91 12.54,25.36 -0,42.27 "/>
   <polygon class="fil0" points="46.43,16.7 58.97,0 58.97,25.39 46.43,42.27 "/>
   <polygon class="fil0" points="4.29,0 23.11,0 29.54,8.43 35.85,0 54.73,0 29.46,33.85 "/>
   <path class="fil1" d="M62.91 17.59l0 -16.83 7.62 0 4.5 11.48 4.45 -11.48 7.63 0 0 16.83 -4.7 0 -0.02 -13.25 -4.95 13.25 -4.89 0 -4.93 -13.25 -0.02 13.25 -4.7 0zm37.7 -12.9l0 8.96 2.52 0c0.94,0 1.62,-0.04 2.04,-0.13 0.55,-0.11 1.01,-0.3 1.37,-0.56 0.36,-0.26 0.66,-0.7 0.88,-1.3 0.23,-0.61 0.34,-1.43 0.34,-2.48 0,-1.05 -0.11,-1.85 -0.34,-2.41 -0.23,-0.56 -0.55,-1 -0.96,-1.31 -0.41,-0.31 -0.93,-0.53 -1.56,-0.64 -0.47,-0.08 -1.4,-0.13 -2.77,-0.13l-1.52 0zm-6.86 -3.94l9.25 0c2.09,0 3.68,0.11 4.77,0.32 1.47,0.29 2.73,0.81 3.78,1.55 1.05,0.74 1.85,1.65 2.4,2.73 0.54,1.07 0.82,2.4 0.82,3.98 0,1.39 -0.26,2.58 -0.77,3.58 -0.63,1.23 -1.52,2.22 -2.68,2.97 -0.88,0.58 -2.06,1.02 -3.56,1.34 -1.12,0.24 -2.61,0.36 -4.48,0.36l-9.52 0 0 -16.83z"/>
   <path class="fil1" d="M127.84 17.59l0 -16.83 6.36 0c1.12,0 1.97,0.05 2.56,0.16 0.83,0.14 1.52,0.4 2.08,0.78 0.56,0.39 1.01,0.93 1.35,1.62 0.34,0.69 0.51,1.46 0.51,2.29 0,1.43 -0.45,2.64 -1.37,3.63 -0.91,0.99 -2.56,1.48 -4.94,1.48l-4.32 0 0 6.86 -2.23 0zm2.23 -8.84l4.35 0c1.44,0 2.46,-0.27 3.07,-0.8 0.6,-0.54 0.9,-1.29 0.9,-2.26 0,-0.7 -0.18,-1.31 -0.53,-1.81 -0.36,-0.5 -0.83,-0.83 -1.41,-1 -0.38,-0.1 -1.07,-0.15 -2.08,-0.15l-4.31 0 0 6.02z"/>
   <path id="_1" class="fil1" d="M144.61 17.59l0 -16.83 7.46 0c1.5,0 2.64,0.15 3.42,0.45 0.78,0.3 1.4,0.83 1.87,1.6 0.47,0.76 0.7,1.61 0.7,2.54 0,1.19 -0.39,2.2 -1.16,3.02 -0.77,0.82 -1.96,1.34 -3.58,1.56 0.59,0.28 1.04,0.56 1.34,0.84 0.65,0.6 1.26,1.34 1.84,2.24l2.91 4.58 -2.78 0 -2.23 -3.5c-0.65,-1.01 -1.18,-1.79 -1.6,-2.32 -0.42,-0.54 -0.8,-0.91 -1.13,-1.12 -0.33,-0.21 -0.67,-0.36 -1.01,-0.45 -0.25,-0.05 -0.66,-0.08 -1.24,-0.08l-2.58 0 0 7.48 -2.23 0zm2.23 -9.4l4.78 0c1.02,0 1.81,-0.11 2.38,-0.32 0.57,-0.21 1.01,-0.54 1.3,-1.01 0.3,-0.46 0.45,-0.97 0.45,-1.51 0,-0.8 -0.29,-1.45 -0.86,-1.97 -0.58,-0.51 -1.48,-0.77 -2.73,-0.77l-5.32 0 0 5.57z"/>
   <polygon id="_2" class="fil1" points="162.97,17.59 162.97,0.76 165.2,0.76 165.2,17.59 "/>
   <polygon id="_3" class="fil1" points="170.15,17.59 170.15,0.76 172.43,0.76 181.26,13.97 181.26,0.76 183.4,0.76 183.4,17.59 181.12,17.59 172.28,4.38 172.28,17.59 "/>
   <polygon id="_4" class="fil1" points="192.47,17.59 192.47,2.73 186.92,2.73 186.92,0.76 200.25,0.76 200.25,2.73 194.7,2.73 194.7,17.59 "/>
   <path class="fil1" d="M78.83 30.59l1.09 -0.1c0.05,0.44 0.17,0.8 0.36,1.09 0.19,0.28 0.48,0.51 0.88,0.69 0.4,0.17 0.85,0.26 1.35,0.26 0.44,0 0.83,-0.07 1.17,-0.2 0.34,-0.13 0.59,-0.32 0.76,-0.55 0.17,-0.23 0.25,-0.48 0.25,-0.75 0,-0.27 -0.08,-0.51 -0.24,-0.72 -0.16,-0.2 -0.42,-0.38 -0.79,-0.52 -0.24,-0.09 -0.76,-0.23 -1.56,-0.43 -0.81,-0.19 -1.37,-0.38 -1.7,-0.55 -0.42,-0.22 -0.73,-0.49 -0.94,-0.82 -0.21,-0.32 -0.31,-0.69 -0.31,-1.09 0,-0.44 0.13,-0.86 0.38,-1.24 0.25,-0.39 0.62,-0.68 1.1,-0.88 0.48,-0.2 1.02,-0.3 1.61,-0.3 0.65,0 1.22,0.1 1.72,0.32 0.5,0.21 0.88,0.52 1.15,0.93 0.27,0.41 0.41,0.87 0.43,1.38l-1.12 0.09c-0.06,-0.55 -0.26,-0.97 -0.61,-1.25 -0.35,-0.29 -0.86,-0.43 -1.53,-0.43 -0.7,0 -1.22,0.13 -1.54,0.39 -0.32,0.26 -0.48,0.57 -0.48,0.93 0,0.31 0.11,0.57 0.34,0.78 0.23,0.2 0.81,0.41 1.75,0.63 0.95,0.22 1.59,0.4 1.95,0.56 0.51,0.24 0.89,0.53 1.13,0.89 0.24,0.36 0.36,0.78 0.36,1.25 0,0.47 -0.13,0.9 -0.4,1.32 -0.27,0.41 -0.65,0.73 -1.15,0.96 -0.5,0.23 -1.06,0.34 -1.69,0.34 -0.79,0 -1.46,-0.12 -1.99,-0.35 -0.54,-0.23 -0.96,-0.58 -1.26,-1.04 -0.31,-0.46 -0.47,-0.99 -0.48,-1.58z"/>
   <path id="_1_0" class="fil1" d="M90.67 29.14c0,-1.46 0.39,-2.6 1.18,-3.42 0.78,-0.82 1.79,-1.24 3.03,-1.24 0.81,0 1.54,0.2 2.19,0.58 0.65,0.39 1.15,0.93 1.49,1.62 0.34,0.69 0.51,1.48 0.51,2.35 0,0.89 -0.18,1.69 -0.54,2.39 -0.36,0.7 -0.87,1.23 -1.53,1.59 -0.66,0.36 -1.37,0.54 -2.14,0.54 -0.83,0 -1.57,-0.2 -2.22,-0.6 -0.65,-0.4 -1.15,-0.94 -1.48,-1.63 -0.33,-0.69 -0.5,-1.42 -0.5,-2.19zm1.2 0.02c0,1.06 0.28,1.89 0.85,2.5 0.57,0.61 1.28,0.91 2.14,0.91 0.87,0 1.59,-0.31 2.16,-0.92 0.56,-0.61 0.85,-1.48 0.85,-2.61 0,-0.71 -0.12,-1.34 -0.36,-1.87 -0.24,-0.53 -0.6,-0.95 -1.06,-1.24 -0.47,-0.29 -0.99,-0.44 -1.57,-0.44 -0.82,0 -1.53,0.28 -2.12,0.85 -0.59,0.57 -0.89,1.51 -0.89,2.82z"/>
   <polygon id="_2_1" class="fil1" points="104.16,33.41 104.16,24.63 105.32,24.63 105.32,32.38 109.64,32.38 109.64,33.41 "/>
   <path id="_3_2" class="fil1" d="M120.42 24.63l1.16 0 0 5.07c0,0.88 -0.1,1.58 -0.3,2.1 -0.2,0.52 -0.56,0.94 -1.08,1.27 -0.52,0.33 -1.2,0.49 -2.05,0.49 -0.82,0 -1.49,-0.14 -2.01,-0.43 -0.52,-0.28 -0.9,-0.69 -1.12,-1.23 -0.22,-0.54 -0.34,-1.27 -0.34,-2.2l0 -5.07 1.17 0 0 5.07c0,0.76 0.07,1.33 0.21,1.69 0.14,0.36 0.38,0.64 0.73,0.84 0.34,0.2 0.76,0.29 1.26,0.29 0.85,0 1.46,-0.19 1.82,-0.58 0.36,-0.39 0.54,-1.13 0.54,-2.24l0 -5.07z"/>
   <polygon id="_4_3" class="fil1" points="129.39,33.41 129.39,25.66 126.5,25.66 126.5,24.63 133.45,24.63 133.45,25.66 130.56,25.66 130.56,33.41 "/>
   <polygon id="_5" class="fil1" points="138.49,33.41 138.49,24.63 139.65,24.63 139.65,33.41 "/>
   <path id="_6" class="fil1" d="M144.98 29.14c0,-1.46 0.39,-2.6 1.18,-3.42 0.78,-0.82 1.79,-1.24 3.03,-1.24 0.81,0 1.54,0.2 2.19,0.58 0.65,0.39 1.15,0.93 1.49,1.62 0.34,0.69 0.51,1.48 0.51,2.35 0,0.89 -0.18,1.69 -0.54,2.39 -0.36,0.7 -0.87,1.23 -1.53,1.59 -0.66,0.36 -1.37,0.54 -2.14,0.54 -0.83,0 -1.57,-0.2 -2.22,-0.6 -0.65,-0.4 -1.15,-0.94 -1.48,-1.63 -0.33,-0.69 -0.5,-1.42 -0.5,-2.19zm1.2 0.02c0,1.06 0.28,1.89 0.85,2.5 0.57,0.61 1.28,0.91 2.14,0.91 0.87,0 1.59,-0.31 2.16,-0.92 0.56,-0.61 0.85,-1.48 0.85,-2.61 0,-0.71 -0.12,-1.34 -0.36,-1.87 -0.24,-0.53 -0.6,-0.95 -1.06,-1.24 -0.47,-0.29 -0.99,-0.44 -1.57,-0.44 -0.82,0 -1.53,0.28 -2.12,0.85 -0.59,0.57 -0.89,1.51 -0.89,2.82z"/>
   <polygon id="_7" class="fil1" points="158.5,33.41 158.5,24.63 159.69,24.63 164.3,31.52 164.3,24.63 165.42,24.63 165.42,33.41 164.22,33.41 159.61,26.52 159.61,33.41 "/>
   <path id="_8" class="fil1" d="M170.62 30.59l1.09 -0.1c0.05,0.44 0.17,0.8 0.36,1.09 0.19,0.28 0.48,0.51 0.88,0.69 0.4,0.17 0.85,0.26 1.35,0.26 0.44,0 0.83,-0.07 1.17,-0.2 0.34,-0.13 0.59,-0.32 0.76,-0.55 0.17,-0.23 0.25,-0.48 0.25,-0.75 0,-0.27 -0.08,-0.51 -0.24,-0.72 -0.16,-0.2 -0.42,-0.38 -0.79,-0.52 -0.24,-0.09 -0.76,-0.23 -1.56,-0.43 -0.81,-0.19 -1.37,-0.38 -1.7,-0.55 -0.42,-0.22 -0.73,-0.49 -0.94,-0.82 -0.21,-0.32 -0.31,-0.69 -0.31,-1.09 0,-0.44 0.13,-0.86 0.38,-1.24 0.25,-0.39 0.62,-0.68 1.1,-0.88 0.48,-0.2 1.02,-0.3 1.61,-0.3 0.65,0 1.22,0.1 1.72,0.32 0.5,0.21 0.88,0.52 1.15,0.93 0.27,0.41 0.41,0.87 0.43,1.38l-1.12 0.09c-0.06,-0.55 -0.26,-0.97 -0.61,-1.25 -0.35,-0.29 -0.86,-0.43 -1.53,-0.43 -0.7,0 -1.22,0.13 -1.54,0.39 -0.32,0.26 -0.48,0.57 -0.48,0.93 0,0.31 0.11,0.57 0.34,0.78 0.23,0.2 0.81,0.41 1.75,0.63 0.95,0.22 1.59,0.4 1.95,0.56 0.51,0.24 0.89,0.53 1.13,0.89 0.24,0.36 0.36,0.78 0.36,1.25 0,0.47 -0.13,0.9 -0.4,1.32 -0.27,0.41 -0.65,0.73 -1.15,0.96 -0.5,0.23 -1.06,0.34 -1.69,0.34 -0.79,0 -1.46,-0.12 -1.99,-0.35 -0.54,-0.23 -0.96,-0.58 -1.26,-1.04 -0.31,-0.46 -0.47,-0.99 -0.48,-1.58z"/>
  </g>
 </g>
</svg>
