<?xml version="1.0" encoding="UTF-8"?>
<!DOCTYPE svg PUBLIC "-//W3C//DTD SVG 1.1//EN" "http://www.w3.org/Graphics/SVG/1.1/DTD/svg11.dtd">
<!-- Creator: CorelDRAW -->
<svg xmlns="http://www.w3.org/2000/svg" xml:space="preserve" width="14.1447mm" height="4.6851mm" version="1.1" style="shape-rendering:geometricPrecision; text-rendering:geometricPrecision; image-rendering:optimizeQuality; fill-rule:evenodd; clip-rule:evenodd"
viewBox="0 0 390.11 129.21"
 xmlns:xlink="http://www.w3.org/1999/xlink"
 xmlns:xodm="http://www.corel.com/coreldraw/odm/2003">
 <defs>
  <style type="text/css">
   <![CDATA[
    .fil1 {fill:black}
    .fil0 {fill:black;fill-rule:nonzero}
   ]]>
  </style>
 </defs>
 <g id="Camada_x0020_1">
  <metadata id="CorelCorpID_0Corel-Layer"/>
  <g id="_1735420912496">
   <polygon class="fil0" points="65.76,119.26 65.76,129.21 69.05,129.21 69.05,126.17 74.8,126.17 74.8,123.26 69.05,123.26 69.05,122.29 76.4,122.29 76.4,119.26 "/>
   <polygon id="_1" class="fil0" points="105.79,129.21 109.08,129.21 109.08,119.28 105.79,119.28 "/>
   <polygon id="_2" class="fil0" points="138.45,119.27 138.45,122.56 143.37,122.56 143.37,129.21 146.66,129.21 146.66,122.56 151.58,122.56 151.58,119.27 "/>
   <polygon id="_3" class="fil0" points="200.23,119.27 196.75,119.27 194.46,124.84 192.11,119.27 188.95,119.27 186.64,124.9 184.31,119.27 180.84,119.27 185.05,129.21 188.24,129.21 190.55,123.92 192.91,129.17 192.89,129.21 196.08,129.21 196.06,129.17 "/>
   <polygon id="_4" class="fil0" points="229.13,119.28 229.13,129.21 240.1,129.21 240.1,126.46 232.43,126.46 232.43,125.56 239.61,125.56 239.61,122.92 232.43,122.92 232.43,122.04 240.1,122.04 240.1,119.28 "/>
   <path id="_5" class="fil0" d="M279.1 119.3l-5.13 0 -4.45 9.91 3.8 0 0.75 -1.66 4.91 0 0.75 1.66 3.82 0 -4.45 -9.91zm-3.86 5.37l1.28 -2.6 1.28 2.6 -2.56 0z"/>
   <path id="_6" class="fil0" d="M312.51 119.27l0 9.95 3.29 0 0 -2.35c0.56,0 2.04,0 2.99,0l1.69 2.33 3.81 0.02 -2.03 -2.93c0.97,-0.53 1.82,-1.51 1.82,-3.36 0,-3.52 -3.34,-3.65 -4.28,-3.65l-7.29 0zm6.99 4.69c-0.48,0 -3.69,0 -3.69,0l0 -1.78c0,0 3.2,0 3.64,0 0.44,0 1.28,0.03 1.28,0.86 0,0.83 -0.76,0.92 -1.23,0.92l0 0z"/>
   <path class="fil1" d="M325.62 74.26c2.74,-4.21 7.86,-7.68 13.34,-7.68 6.21,0 9.32,1.83 9.32,4.2 0,2.01 -5.85,4.57 -18.09,4.57 -1.83,0 -3.29,-0.36 -4.57,-1.09zm-151.58 5.23c0.6,-0.49 1.18,-0.97 1.74,-1.43 3.22,-5.23 8.62,-9.78 16.06,-11.48 -0.18,-0.91 -0.36,-2.01 -0.36,-3.11 0,-5.66 6.21,-8.96 12.98,-8.96 10.97,0 15.35,4.75 15.35,11.15 -0.37,1.1 -1.64,8.77 -4.2,13.16 2.56,0.37 5.12,0.73 7.86,0.73 7.96,0 15.75,-1.88 19.39,-5.15 0.31,-7.91 4.49,-13.49 7.66,-13.49 2.01,0 3.65,2.19 3.65,7.49 0,14.26 3.84,25.04 6.03,25.04 1.83,0 13.16,-9.5 19.01,-17.91 -1.83,-2.92 -2.92,-6.21 -2.92,-10.05 0,-5.48 2.38,-8.77 4.93,-8.77 7.49,0 10.42,3.65 10.42,8.96 0,3.29 -1.46,6.76 -3.47,10.42 1.83,2.38 4.21,3.47 7.13,3.47 7.57,0 14.98,-1.7 18.82,-4.68 3.38,-8.26 12.46,-15.61 24.86,-15.61 12.06,0 17.91,5.48 17.91,11.33 0,5.66 -7.68,11.88 -22.84,11.88 -3.47,0 -7.49,-1.09 -10.6,-3.11 -0.18,0.55 -0.18,1.1 -0.18,1.64 0,12.3 34.98,8.19 44.14,7.01 4.76,-0.62 7.84,-1.44 10.26,-2.38 2.42,-0.94 4.2,-2 5.26,-2.63 1.06,-0.62 1.4,-0.81 2.01,-0.91 0.61,-0.09 1.48,-0.09 2.34,0.22 0.86,0.32 1.7,0.94 2.2,1.77 0.51,0.82 0.68,1.85 0.64,2.72 -0.04,0.87 -0.29,1.59 -1.22,2.55 -0.94,0.96 -2.57,2.16 -5.06,3.28 -2.49,1.12 -5.84,2.17 -8.56,2.89 -2.71,0.72 -4.79,1.12 -7.76,1.49 -14.53,1.78 -51.42,5.5 -54.61,-12.33 -4.03,1.5 -8.57,2.17 -13.22,2.17 -5.3,0 -10.78,-2.01 -15.17,-5.48 -8.41,10.78 -22.3,20.47 -27.41,20.47 -4.61,0 -11.55,-5.04 -13.64,-18.17 -4.57,2.21 -10.01,3.19 -15.6,3.19 -5.48,0 -10.97,-0.91 -16.08,-2.56 -6.94,8.22 -17.54,14.8 -28.88,14.8 -5.68,0 -10.07,-2.11 -10.55,-8.32 -2.1,1.59 -5.63,3.51 -8.25,4.97 -3.09,1.73 -5.28,2.7 -7.29,3.3 -2.01,0.59 -3.84,0.81 -5.55,0.65 -1.71,-0.16 -3.29,-0.68 -4.84,-1.71 -1.55,-1.02 -3.07,-2.55 -4.18,-4.41 -1.11,-1.86 -1.81,-4.07 -2.19,-6.71 -0.37,-2.64 -0.41,-5.73 -0.28,-9.07 0.13,-3.34 0.42,-6.93 0.95,-10.73 0.54,-3.8 1.32,-7.82 1.76,-10.12 0.44,-2.29 0.54,-2.86 0.54,-3.14 0,-0.28 -0.1,-0.28 -0.48,0.04 -0.38,0.32 -1.04,0.97 -2.49,2.56 -1.45,1.59 -3.67,4.13 -7.84,9.07 -4.18,4.94 -10.31,12.28 -14.87,17.71 -5.18,6.16 -6.64,11.31 -11.33,3.45 -1.11,-1.86 -1.81,-4.07 -2.19,-6.71 -0.37,-2.64 -0.41,-5.73 -0.28,-9.07 0.13,-3.34 0.42,-6.93 0.95,-10.73 0.54,-3.81 1.32,-7.82 1.76,-10.12 0.44,-2.29 0.54,-2.86 0.54,-3.14 0,-0.28 -0.1,-0.28 -0.48,0.04 -0.38,0.32 -1.05,0.97 -2.49,2.56 -1.44,1.59 -3.67,4.13 -7.84,9.07 -4.18,4.94 -10.3,12.28 -14.87,17.71 -4.57,5.43 -7.57,8.97 -9.91,11.55 -2.34,2.58 -4.02,4.23 -5.39,5.06 -1.38,0.84 -2.45,0.88 -3.27,0.65 -0.82,-0.23 -1.38,-0.71 -1.67,-1.58 -0.28,-0.87 -0.28,-2.12 0.03,-3.84 0.31,-1.72 0.94,-3.9 2.31,-8.6 1.38,-4.71 3.51,-11.93 5.54,-19.6 2.03,-7.68 3.96,-15.82 5.39,-22.91 1.43,-7.09 2.37,-13.14 2.92,-17.42 0.55,-4.27 0.7,-6.77 0.77,-8.5 0.07,-1.73 0.05,-2.68 -0.05,-3.21 -0.1,-0.53 -0.27,-0.62 -0.96,-0.08 -0.68,0.55 -1.87,1.74 -3.33,3.33 -1.46,1.59 -3.17,3.58 -5.77,6.89 -2.6,3.31 -6.07,7.93 -9.93,13.47 -3.86,5.53 -8.12,11.97 -12.49,18.7 -4.37,6.72 -8.86,13.73 -13.17,20.72 -4.31,6.99 -8.45,13.95 -11.91,20.35 -3.46,6.4 -6.26,12.24 -8.04,16.7 -1.78,4.46 -2.56,7.54 -2.93,10.12 -0.36,2.58 -0.3,4.64 -0.27,5.87 0.03,1.23 0.03,1.62 -0.18,2.2 -0.22,0.58 -0.65,1.34 -1.34,1.93 -0.69,0.6 -1.65,1.03 -2.61,1.06 -0.97,0.04 -1.94,-0.31 -2.68,-0.77 -0.74,-0.46 -1.25,-1.03 -1.63,-2.31 -0.38,-1.29 -0.63,-3.3 -0.4,-6.02 0.23,-2.72 0.96,-6.16 1.65,-8.88 0.69,-2.72 1.36,-4.73 2.49,-7.5 1.13,-2.77 2.73,-6.3 5.38,-11.23 2.64,-4.93 6.33,-11.25 10.71,-18.34 4.38,-7.09 9.46,-14.96 13.25,-20.73 3.79,-5.77 6.31,-9.44 8.55,-12.69 2.24,-3.26 4.19,-6.11 6.02,-8.7 1.83,-2.6 3.55,-4.94 5.71,-7.82 2.16,-2.88 4.75,-6.29 7.4,-9.53 2.64,-3.24 5.34,-6.3 7.36,-8.39 2.02,-2.09 3.36,-3.2 4.68,-4.08 1.32,-0.88 2.61,-1.52 3.96,-1.85 1.36,-0.33 2.78,-0.35 3.93,0.14 1.15,0.49 2.03,1.48 2.66,2.98 0.63,1.49 1.03,3.48 1.1,6 0.08,2.52 -0.16,5.56 -0.62,9.34 -0.46,3.78 -1.14,8.28 -2.2,14.14 -1.05,5.86 -2.48,13.06 -3.88,19.26 -1.41,6.21 -2.79,11.42 -3.77,14.85 -0.98,3.43 -1.54,5.09 -1.83,5.96 -0.28,0.87 -0.28,0.95 -0.06,0.76 0.23,-0.18 0.67,-0.63 2.41,-2.77 1.74,-2.14 4.76,-5.96 7.83,-9.76 3.06,-3.8 6.17,-7.56 8.68,-10.53 2.52,-2.96 4.45,-5.13 6.36,-7.17 1.91,-2.04 3.81,-3.95 5.46,-5.35 1.65,-1.4 3.05,-2.28 4.12,-2.86 1.06,-0.58 1.79,-0.88 2.59,-0.82 0.8,0.06 1.68,0.47 2.4,1.4 0.72,0.93 1.29,2.37 1.52,4.24 0.23,1.87 0.14,4.18 -0.26,7.55 -0.4,3.38 -1.1,7.83 -1.66,11.88 -0.56,4.05 -0.97,7.7 -1.08,11.08 -0.09,2.71 0,5.24 0.23,7.34l0.05 -0.06c1.74,-2.14 4.76,-5.96 7.82,-9.76 3.06,-3.8 6.17,-7.56 8.68,-10.53 2.52,-2.96 4.45,-5.13 6.36,-7.17 1.91,-2.04 3.81,-3.95 5.46,-5.35 1.65,-1.4 3.05,-2.27 4.12,-2.86 1.06,-0.58 1.78,-0.88 2.59,-0.82 0.8,0.06 1.68,0.47 2.4,1.4 0.72,0.93 1.29,2.37 1.52,4.24 0.23,1.87 0.14,4.18 -0.26,7.55 -0.4,3.38 -1.1,7.82 -1.66,11.87 -0.56,4.05 -0.97,7.7 -1.08,11.09 -0.12,3.38 0.06,6.51 0.44,8.83 0.38,2.32 0.97,3.84 1.53,4.79 0.57,0.95 1.11,1.32 2.17,1.42 1.05,0.11 2.61,-0.05 4.57,-0.73 1.95,-0.68 4.29,-1.89 8.05,-4.56 3.48,-2.47 6.81,-5.1 10.11,-7.79zm21.08 -6.14c2.19,2.74 4.93,5.3 8.59,7.31 -4.94,5.66 -11.51,10.78 -18.1,10.78 -1.64,0 -2.74,-1.09 -2.74,-3.47 0,-4.93 2.92,-13.16 12.25,-14.62zm12.06 2.92c-4.21,-2.19 -7.13,-5.48 -7.13,-10.05 0,-1.83 2.38,-3.29 4.93,-3.29 4.2,0 5.85,1.83 5.85,4.57 0,2.01 -1.28,5.3 -3.65,8.77z"/>
  </g>
 </g>
</svg>
