<?xml version="1.0" encoding="UTF-8"?>
<!DOCTYPE svg PUBLIC "-//W3C//DTD SVG 1.1//EN" "http://www.w3.org/Graphics/SVG/1.1/DTD/svg11.dtd">
<!-- Creator: CorelDRAW -->
<svg xmlns="http://www.w3.org/2000/svg" xml:space="preserve" width="17.4558mm" height="2.6542mm" version="1.1" style="shape-rendering:geometricPrecision; text-rendering:geometricPrecision; image-rendering:optimizeQuality; fill-rule:evenodd; clip-rule:evenodd"
viewBox="0 0 324.57 49.35"
 xmlns:xlink="http://www.w3.org/1999/xlink"
 xmlns:xodm="http://www.corel.com/coreldraw/odm/2003">
 <defs>
  <style type="text/css">
   <![CDATA[
    .fil0 {fill:black}
   ]]>
  </style>
 </defs>
 <g id="Camada_x0020_1">
  <metadata id="CorelCorpID_0Corel-Layer"/>
  <g id="_1735357976208">
   <path class="fil0" d="M50.03 21.19l0.45 0c0.82,1.22 2.79,3.31 3.58,4.51l-9.41 0 -23.43 0 -5.06 -5.09c-0.27,-0.27 -0.49,-0.66 -0.9,-0.73l-15.25 -0.01c0.06,0.23 1.14,1.39 1.41,1.67l11.98 12.9c0.57,0.68 1.97,2.24 2.59,2.76 0.5,0.23 32.39,0.08 35.98,0.08l12.45 0c0.66,-1.24 1.31,-2.92 1.95,-4.2l0.64 -1.41c0.32,-0.74 2.35,-5.34 2.63,-5.66 -0.59,-0.88 -1.52,-1.74 -2.17,-2.55 -0.22,-0.28 -0.26,-0.33 -0.52,-0.6l-10.6 -12.13c-0.73,-0.78 -0.37,-0.91 -1.45,-0.9l-7.27 0 -15.69 0c-3.73,0 -2.73,0.21 -3.74,-0.85l-7.82 -8.35c-0.35,-0.44 -0.43,-0.59 -0.66,-0.63l-14.99 0c0.14,0.21 0.5,0.65 0.69,0.85 0.14,0.15 0.23,0.21 0.36,0.36l5.58 6.29c0.18,0.19 0.17,0.22 0.32,0.4 0.98,1.23 3.61,3.99 4.86,5.49l5.17 5.79c0.3,0.3 0.45,0.54 0.77,0.87 0.28,0.29 0.41,0.52 0.71,0.83 0.45,0.46 0.47,0.33 1.31,0.33l9.5 0 16.06 0zm-1.6 23.14l0 0.82c0,2.02 2.18,4.2 4.2,4.2l0.82 0c2.05,0 4.2,-2.14 4.2,-4.2l0 -0.82c0,-2.06 -2.14,-4.2 -4.2,-4.2 -1.51,0 -2.55,0.19 -3.69,1.33 -0.56,0.56 -1.33,1.77 -1.33,2.87zm-21.71 0.41c0,2.39 2.08,4.61 4.3,4.61l0.09 0c0.94,0 1.41,-0.01 2.33,-0.44 3.36,-1.57 3.43,-6.58 0.14,-8.27 -3.18,-1.63 -6.86,0.68 -6.86,4.1z"/>
   <path class="fil0" d="M216.55 19.04c0,10.22 19.35,6 19.35,11.26 0,0.83 -0.06,1.55 -1.02,2.15 -1.08,0.67 -2.81,1.01 -4.2,1.02 -0.58,0 -0.68,0.13 -1.22,0.11 -0.46,-0.02 -0.64,-0.1 -1.23,-0.1 -2.29,-0.02 -5.1,-0.95 -5.65,-3.46 -0.09,-0.4 0.05,-0.95 -0.38,-0.95l-6.25 0c0,3.03 1.36,5.37 3.77,6.88 3.86,2.41 10.81,2.56 15.48,1.61 1.4,-0.28 2.56,-0.76 3.69,-1.32 4.39,-2.17 5.46,-8.27 1.24,-11.38 -1.34,-0.99 -3.54,-1.77 -5.49,-2.19 -2.15,-0.47 -4.25,-0.79 -6.45,-1.23 -1.72,-0.34 -4.87,-0.95 -4.87,-2.81 0,-0.81 0.04,-1.07 0.79,-1.67 2.02,-1.63 11.4,-2.42 11.4,3l6.25 0c0.82,0 -0.41,-3.27 -0.82,-3.99 -1.29,-2.26 -4.2,-3.57 -6.71,-4.14 -1.79,-0.41 -4.23,-0.7 -6.1,-0.49 -1.28,0.14 -1.36,-0.05 -3.51,0.38 -1.92,0.38 -3.97,1.11 -5.44,2.23 -0.59,0.44 -0.83,0.74 -1.29,1.27 -0.67,0.76 -1.31,2.4 -1.31,3.81zm66.14 -5.43c0,1.01 -0.03,1.82 0.84,2.64 1.72,1.62 5.71,1.01 5.71,-2.23 0,-1.66 -1.31,-3.07 -2.97,-3.07 -0.98,0 -1.84,0 -2.69,0.79 -0.47,0.44 -0.89,1.2 -0.89,1.87zm0.2 6.25l0 17.2c0,0.24 0.07,0.31 0.31,0.31l5.43 0c0.24,0 0.31,-0.07 0.31,-0.31l0 -17.2c0,-0.24 -0.07,-0.31 -0.31,-0.31l-5.43 0c-0.23,0 -0.31,0.07 -0.31,0.31zm-170.78 17.51l3.38 0 0 -7.37c0,-9.76 9.7,-8.35 12.01,-5.97 0.56,0.58 0.93,1.36 1.19,2.19 0.52,1.65 0.32,9.06 0.32,11.15l3.17 0c0.24,0 0.31,-0.07 0.31,-0.31l0 -8.7c0,-2.6 -0.49,-4.84 -2.23,-6.58 -0.89,-0.89 -1.37,-1.24 -2.66,-1.75 -3.23,-1.27 -8.15,-0.83 -10.7,1.44 -0.25,0.22 -0.48,0.46 -0.72,0.71l-0.69 0.85 0 -10.96 -3.38 0 0 25.29zm27.34 -8.7c0,-4.38 3.95,-6.35 7.88,-6.35 2.58,0 4.6,0.26 6.51,1.58 4,2.78 3.71,11.12 -6,11.12 -4.41,0 -8.4,-2.01 -8.4,-6.35zm-3.58 -0.51c0,1.81 0.18,3.28 1.07,4.77 1.95,3.29 5.83,4.96 9.99,4.96 3.63,0 6.67,-0.25 9.42,-2.25 1.97,-1.42 3.48,-3.82 3.48,-6.45 0,-2 -0.1,-3.27 -1.14,-5 -4.15,-6.88 -18.42,-6.07 -21.65,0.01 -0.57,1.08 -1.16,2.37 -1.16,3.96zm176.41 -8.6l-3.07 0c-0.24,0 -0.31,0.07 -0.31,0.31l0 4.2 3.38 0c0,2.67 -0.28,7.67 0.48,9.86 0.34,0.99 0.73,1.43 1.39,2.1 1.99,2.01 6.31,2.02 9.08,1.45 0.33,-0.07 0.75,-0.19 1.13,-0.2l0 -4.61c-0.65,0.01 -1.21,0.31 -3.28,0.31 -1.55,0 -2.76,-1.21 -2.76,-2.76l0 -6.14 6.25 0 0 -4.51 -6.25 0 0 -4.1c0,-0.24 -0.07,-0.31 -0.31,-0.31l-5.73 0 0 4.4zm-17.2 -1.74l0 1.74 -3.48 0 0 4.51 3.48 0 0 13.31 5.94 0 0 -13.31 6.14 0 0 -4.51 -6.14 0c0,-1.12 0.12,-1.9 0.69,-2.49 1,-1.04 3.21,-1.03 4.54,-0.79 0.41,0.07 0.53,0.18 0.92,0.21l0 -4.71c-0.78,-0.02 -2.88,-0.58 -4.26,-0.37 -2.23,0.34 -4.76,0.07 -6.71,2.7 -0.59,0.8 -1.11,2.33 -1.11,3.7zm-128.19 10.96c0,-2.44 0.94,-3.89 2.35,-4.92 2.72,-1.97 8.37,-2.08 11.43,-0.05 3.21,2.13 3.79,8.58 -1.81,10.59 -2.84,1.02 -7.59,0.69 -9.83,-1.1 -1.18,-0.94 -2.13,-2.43 -2.13,-4.52zm0 -6.04c0,-0.95 0.21,-2.76 -0.31,-2.76l-3.07 0 0 24.68 3.38 0 0 -10.03c0.37,0.25 0.69,0.72 1.48,1.29 3.95,2.85 11.51,2.6 15.08,-0.3 0.89,-0.73 1.64,-1.49 2.18,-2.53 1.05,-2.03 1.02,-2.92 1.02,-5.12 0,-5.43 -5.37,-8.6 -10.75,-8.6 -2.84,0 -5.29,0.5 -7.46,1.96 -0.81,0.54 -1.38,1.3 -1.55,1.41zm25.8 5.84c0,-2.12 0.88,-3.51 2.02,-4.53 2.55,-2.28 8.85,-2.31 11.71,-0.2 2.02,1.49 2.24,2.93 2.24,5.24 0,2.06 -1.24,3.44 -2.46,4.3 -3.54,2.51 -13.52,2.2 -13.52,-4.81zm-3.58 -0.51c0,4.44 1.95,7.5 6.16,8.9 4.22,1.4 10.29,1.04 13.4,-2.55 0,2.55 0.13,4.52 -1.61,6.27 -1.12,1.12 -2.44,1.52 -4.08,1.76 -2.93,0.43 -7.91,-0.04 -9.12,-3.16 -0.51,-1.31 1.03,-1.09 -3.83,-1.09 0,3.19 2.34,5.27 5.16,6.21 4.75,1.58 13.91,1.57 16.33,-4.48 0.51,-1.28 0.73,-2.82 0.73,-4.59l0 -15.05c0,-0.24 -0.07,-0.31 -0.31,-0.31l-3.17 0 0 2.76c-0.89,-0.59 -1.14,-1.51 -3.42,-2.42 -4.98,-1.99 -12.74,-1 -15.18,3.88 -0.53,1.06 -1.06,2.32 -1.06,3.86zm-106.69 -9.42c0,2.92 1.08,4.13 3.62,5.39 4.53,2.27 13.23,1.72 16.64,3.94 3.08,2 1.94,7.05 -6.54,7.05 -1.91,0 -3.29,0.04 -5.14,-0.39 -1.91,-0.44 -3.83,-1.23 -4.86,-2.92 -0.54,-0.88 -0.85,-1.95 -0.85,-3.04l-3.69 0c0,7.88 7.64,9.32 14.23,9.32 3.56,0 7.07,-0.69 9.57,-2.42 3.2,-2.21 4.13,-7.92 -0.76,-10.49 -5.21,-2.73 -15.61,-2.07 -17.85,-4.88 -0.29,-0.36 -0.58,-0.97 -0.58,-1.57 0,-4.83 10.92,-5.22 14.46,-2.99 3.36,2.11 2.1,4.63 2.95,4.63l3.38 0c0,-1.91 -0.22,-2.84 -1.21,-4.42 -1.86,-2.97 -6.67,-4.38 -10.26,-4.38 -2.81,0 -5.94,0.13 -8.4,1.33 -0.28,0.14 -0.56,0.22 -0.84,0.39 -1.98,1.15 -3.87,2.84 -3.87,5.45zm169.35 18.74l6.14 0 4.61 -11.06c0.14,0.59 0.8,2.05 1.07,2.72l2.79 6.93c0.2,0.47 0.42,0.89 0.54,1.4l6.14 0 7.78 -17.81 -6.55 0c-0.04,0.41 -3.44,8.96 -3.85,9.98 -0.14,0.35 -0.39,1.19 -0.66,1.39l-2.22 -5.66c-0.39,-0.97 -0.8,-1.92 -1.14,-2.85l-1.14 -2.85 -5.84 0c-0.27,1.16 -4.12,10.14 -4.4,11.36 -0.35,-0.26 -2.14,-5.14 -2.34,-5.65 -0.39,-0.97 -0.76,-1.9 -1.14,-2.85 -0.19,-0.46 -0.34,-0.91 -0.54,-1.41 -0.2,-0.49 -0.38,-1.03 -0.58,-1.46l-6.45 0c0.15,0.64 2.49,5.8 2.87,6.66 0.86,1.95 4.31,10.01 4.92,11.16z"/>
  </g>
 </g>
</svg>
