<?xml version="1.0" encoding="UTF-8"?>
<!DOCTYPE svg PUBLIC "-//W3C//DTD SVG 1.1//EN" "http://www.w3.org/Graphics/SVG/1.1/DTD/svg11.dtd">
<!-- Creator: CorelDRAW -->
<svg xmlns="http://www.w3.org/2000/svg" xml:space="preserve" width="13.0922mm" height="4.1796mm" version="1.1" style="shape-rendering:geometricPrecision; text-rendering:geometricPrecision; image-rendering:optimizeQuality; fill-rule:evenodd; clip-rule:evenodd"
viewBox="0 0 2664.39 850.59"
 xmlns:xlink="http://www.w3.org/1999/xlink"
 xmlns:xodm="http://www.corel.com/coreldraw/odm/2003">
 <defs>
  <style type="text/css">
   <![CDATA[
    .fil1 {fill:black}
    .fil0 {fill:black;fill-rule:nonzero}
   ]]>
  </style>
 </defs>
 <g id="Camada_x0020_1">
  <metadata id="CorelCorpID_0Corel-Layer"/>
  <g id="_1735344325136">
   <polygon class="fil0" points="785.04,142.84 987.06,419.8 987.06,263.26 1116.17,142.84 1116.17,611.12 987.74,611.12 987.74,609.78 785.04,332.17 785.04,611.12 655.93,611.12 655.93,142.84 "/>
   <polygon class="fil0" points="1586.46,142.84 1586.46,254.57 1318.22,254.57 1318.22,314.1 1586.46,314.1 1466.72,425.82 1318.89,425.82 1318.89,499.41 1586.46,499.41 1586.46,611.12 1189.78,611.12 1189.78,142.84 "/>
   <polygon class="fil0" points="1745.93,366.28 1890.42,366.28 1808.12,247.41 1886.23,102.08 2101.61,611.12 1930.35,477.98 1803.91,477.98 1766.45,611.12 1633.31,611.12 "/>
   <polygon class="fil0" points="2161.8,611.12 2161.8,142.84 2290.91,142.84 2290.91,340.86 2451.46,142.84 2595.28,142.84 2444.09,329.48 2620.7,611.12 2489.6,611.12 2369.85,420.47 2290.91,518.14 2290.91,611.12 "/>
   <path class="fil1" d="M1887.09 792.39l0 56.82 -54.83 0 0 -56.54 52.26 -47.97 63.96 0c7.43,0 13.37,-2.24 17.85,-6.72 4.48,-4.48 6.72,-10.42 6.72,-17.85 0,-7.43 -2.24,-13.13 -6.72,-17.14 -4.48,-3.99 -10.42,-6 -17.85,-6l-76.23 0 -39.99 -47.68 124.51 0c10.66,0 20.37,1.71 29.12,5.15 8.75,3.42 16.24,8.28 22.43,14.55 6.19,6.29 10.99,13.8 14.41,22.57 3.44,8.75 5.15,18.46 5.15,29.12 0,10.85 -1.71,20.7 -5.15,29.55 -3.42,8.85 -8.22,16.38 -14.41,22.57 -6.19,6.19 -13.68,10.99 -22.43,14.41 -8.75,3.44 -18.46,5.15 -29.12,5.15l-69.68 0zm405.35 -46.32l61.68 0 -35.13 -50.74 33.33 -62.03 91.95 217.29 -73.1 -56.84 -53.99 0 -16 56.84 -56.82 0 48.07 -104.52zm176.06 103.14l0 -199.89 55.11 0 0 84.52 68.54 -84.52 61.4 0 -64.53 79.67 75.38 120.21 -55.97 0 -51.12 -81.38 -33.7 41.7 0 39.68 -55.11 0zm-245.58 -199.89l0 47.68 -114.52 0 0 25.42 114.52 0 -51.12 47.68 -63.11 0 0 31.42 114.23 0 0 47.68 -169.34 0 0 -199.89 169.34 0z"/>
   <polygon class="fil0" points="157.78,370.14 244.94,203.59 354.37,0 517.06,370.94 358.87,237.58 289.9,352.46 599.89,592.74 656.12,713.2 186.52,713.2 -0,713.2 96.81,525.58 436.22,590.44 "/>
  </g>
 </g>
</svg>
