<?xml version="1.0" encoding="UTF-8"?>
<!DOCTYPE svg PUBLIC "-//W3C//DTD SVG 1.1//EN" "http://www.w3.org/Graphics/SVG/1.1/DTD/svg11.dtd">
<!-- Creator: CorelDRAW -->
<svg xmlns="http://www.w3.org/2000/svg" xml:space="preserve" width="10.6931mm" height="4.2581mm" version="1.1" style="shape-rendering:geometricPrecision; text-rendering:geometricPrecision; image-rendering:optimizeQuality; fill-rule:evenodd; clip-rule:evenodd"
viewBox="0 0 208.89 83.18"
 xmlns:xlink="http://www.w3.org/1999/xlink"
 xmlns:xodm="http://www.corel.com/coreldraw/odm/2003">
 <defs>
  <style type="text/css">
   <![CDATA[
    .fil0 {fill:black}
   ]]>
  </style>
 </defs>
 <g id="Camada_x0020_1">
  <metadata id="CorelCorpID_0Corel-Layer"/>
  <path class="fil0" d="M160.8 29.31c3.6,-0.81 6.52,0.45 7.4,3.24 0.88,2.79 0.49,7.23 -0.14,10.05 -1.37,6.19 -4.47,10.22 -10.58,11.52 -7.83,1.67 -8.96,-6.68 -7.16,-13.07 0.65,-2.31 2.27,-6.25 3.5,-7.56 1.73,-1.85 3.78,-3.47 6.97,-4.18zm-40.04 -12.22c-3.57,0.9 -3.01,5.43 0.69,4.78 3.5,-0.62 2.57,-5.6 -0.69,-4.78zm1.88 14.83c1.3,-5.35 -3.96,-5.7 -4.58,-5.38 -1,0.52 -1.47,7.28 -1.7,8.96 -0.68,5.03 -2.49,14.13 -1.81,18.93 0.65,4.54 3.8,4.86 5.58,2.8 2.82,-3.27 -0.21,-6.05 -0.63,-7.76 -0.89,-3.65 2.25,-13.9 3.14,-17.55zm-91.58 -10.06c-1.25,-0.33 -7.22,0.8 -9.04,1.03 -2.9,0.36 -6.7,0.7 -9.69,0.75 -3.33,0.05 -9.18,-0.14 -11.15,2.07 -1.04,1.16 -1.65,5.14 -0.66,6.2 1.47,1.56 14.7,-2.34 17.15,-2.92 2.55,-0.61 10.71,-2.22 12.23,-3.57 0.84,-0.75 1.64,-2.28 1.17,-3.54zm152.83 16.14c-0.89,-1.72 1.39,-8.57 1.91,-10.63 0.45,-1.77 1.26,-3.66 0.3,-5.22 -0.46,-0.75 -2.86,-3.31 -3.86,-1.5 -2.14,3.86 -6.71,37.32 -7.92,44.21 -0.63,3.61 -1.55,7.42 -1.84,11.16 -0.33,4.26 2.68,7.7 5.46,7.02 0.98,-1.8 1.03,-9.64 1.29,-12.47 0.38,-4.14 1.02,-7.86 1.97,-11.68 2.73,-10.91 5.38,-15.32 11.07,-23.28 1.89,-2.64 4.34,-6.08 8.15,-5.7 1.88,0.19 3.1,1.53 3.55,3.2 1.19,4.43 -2.31,7.4 -4,9.41 -1.81,2.13 -4.61,4.48 -7.28,6.34 -1.21,0.84 -7.74,4.97 -7.98,5.84 -0.52,1.8 1.64,2.31 4.31,0.94 2.99,-1.53 5.65,-3.42 8.17,-5.45 3.72,-2.99 7.53,-6.05 9.8,-10.73 4.97,-10.27 -0.36,-16.37 -8.45,-14.18 -5.62,1.52 -7.77,5.77 -10.91,9.82 -0.77,1 -2.09,3.25 -3.73,2.89zm-96.57 0.03c-0.7,-2.2 1.32,-8.27 1.96,-10.67 0.46,-1.74 1.24,-3.68 0.31,-5.2 -0.99,-1.61 -3.11,-2.9 -3.87,-1.53 -1.36,2.47 -3.75,17.63 -4.42,21.63 -1.26,7.55 -2.21,15.06 -3.49,22.56 -0.63,3.69 -1.54,7.41 -1.85,11.23 -0.44,5.45 4.15,7.65 5.25,7.02 1.12,-1.01 0.95,-4.12 1.06,-5.92 0.12,-2.12 0.24,-4.31 0.43,-6.4 0.37,-4.09 1.02,-8.09 1.98,-11.88 2.04,-8.04 4.28,-13.21 8.19,-19.26 1,-1.54 4.86,-6.86 6,-7.82 2.78,-2.33 7.32,-3.18 8.57,1.32 1.19,4.28 -2.32,7.45 -3.99,9.37 -4.65,5.33 -14.92,11.06 -15.25,12.21 -0.34,1.15 0.6,1.79 1.71,1.77 3.16,-0.07 12.43,-7.29 14.51,-9.45 0.6,-0.63 1.22,-1.06 1.86,-1.69 1.76,-1.76 3.07,-3.57 4.19,-5.89 4.85,-10.06 -0.13,-16.35 -8.44,-14.15 -8.73,2.31 -10.91,13.26 -14.69,12.74zm-22.81 -8.81c3.69,-0.72 6.58,0.78 7.31,3.81 1.24,5.17 -0.24,15.03 -5.53,18.72 -4.22,2.94 -10.56,4.42 -12.71,-1.48 -1.76,-4.85 1.16,-14.31 3.95,-16.96 2.07,-1.97 3.73,-3.45 6.99,-4.09zm-25.72 -29.21c-1.03,1.87 -2.63,13.54 -3.08,16.63 -0.83,5.7 -1.89,11.25 -2.86,16.87 -1.43,8.24 -6.57,32.33 8.38,21.22 1.96,-1.46 4.13,-4.46 6.18,-3.24 0.84,0.5 1.48,1.97 2.02,2.91 4.13,7.22 17.11,4.64 23.68,-2.15 1.58,-1.64 2.56,-3.75 3.4,-6.46 1.35,-4.36 1.5,-12.95 -0.7,-16.98 -2.36,-4.32 -8.42,-5.71 -14.03,-3.07 -7.26,3.41 -10.12,9.15 -14.13,15.47 -1.8,2.84 -6.69,9.41 -9.6,10.16 -2.75,0.71 -2.91,-4.34 -2.92,-6.62 -0.02,-5.06 1.84,-12.17 3.4,-16.42 2.7,-7.37 9.64,-2.05 11.45,-8.3 1.77,-6.11 -11.64,6.31 -9.55,-6.4 0.44,-2.69 1.16,-5.46 1.69,-8.18 0.4,-2.03 0.79,-2.37 -0.45,-3.67 -0.58,-0.62 -1.57,-1.76 -2.88,-1.79zm96.57 0.02c-1.02,1.46 -2.7,13.75 -3.13,16.62 -0.86,5.75 -1.83,11.19 -2.86,16.87 -0.74,4.1 -4.98,22.59 1.31,23.91 2.48,0.52 5.45,-1.46 6.85,-2.52 3.89,-2.94 5.35,-6.37 8.29,-0.78 3.34,6.35 12.3,4.99 17.84,2.42 4.68,-2.16 7.63,-5.13 9.28,-10.46 1.46,-4.74 1.61,-12.73 -0.46,-17.04 -2.09,-4.37 -8.38,-5.92 -13.9,-3.43 -9.19,4.14 -11.59,12.59 -18.42,21.05 -0.94,1.17 -3.68,3.99 -5.28,4.6 -2.99,1.13 -3.16,-3.79 -3.21,-6.12 -0.11,-4.92 1.72,-12.31 3.28,-16.51 1.13,-3.05 1.85,-3.81 5.21,-4.65 3.43,-0.86 5.06,-0.46 6.24,-3.64 0.84,-2.27 0,-2.3 -2.02,-1.83 -4.75,1.11 -8.69,3.04 -7.43,-4.86 0.43,-2.73 1.17,-5.5 1.7,-8.19 0.4,-2.06 0.78,-2.36 -0.45,-3.69 -0.55,-0.6 -1.69,-1.79 -2.84,-1.75z"/>
 </g>
</svg>
