<?xml version="1.0" encoding="UTF-8"?>
<!DOCTYPE svg PUBLIC "-//W3C//DTD SVG 1.1//EN" "http://www.w3.org/Graphics/SVG/1.1/DTD/svg11.dtd">
<!-- Creator: CorelDRAW -->
<svg xmlns="http://www.w3.org/2000/svg" xml:space="preserve" width="14.8156mm" height="3.2131mm" version="1.1" style="shape-rendering:geometricPrecision; text-rendering:geometricPrecision; image-rendering:optimizeQuality; fill-rule:evenodd; clip-rule:evenodd"
viewBox="0 0 4660.54 1010.74"
 xmlns:xlink="http://www.w3.org/1999/xlink"
 xmlns:xodm="http://www.corel.com/coreldraw/odm/2003">
 <defs>
  <style type="text/css">
   <![CDATA[
    .fil0 {fill:black}
   ]]>
  </style>
 </defs>
 <g id="Camada_x0020_1">
  <metadata id="CorelCorpID_0Corel-Layer"/>
  <g id="_1735356614656">
   <g>
    <path class="fil0" d="M879.54 239.54l-148.6 2.04c74.9,208.62 149.74,392.17 217.65,542.88 41.9,0.06 87.54,0.28 136.96,0.63 75.34,-181.44 146.68,-363.2 213.97,-545.27 -42.12,0.28 -90.75,0.19 -145.9,-0.28 -39.04,95.88 -80.18,203.05 -123.44,321.52 -11.48,0.5 -21.86,0.66 -31.11,0.5 -41.96,-105.85 -81.82,-213.22 -119.54,-322.02z"/>
    <rect class="fil0" x="1337.55" y="239.37" width="141.03" height="546.1"/>
    <path class="fil0" d="M1559.92 338.89c-0.5,86.48 -0.5,254.39 -0.16,340.99 0.31,86.63 0.98,91.98 6.17,95.98 5.16,4 14.82,6.67 36.96,7.33 22.18,0.66 56.81,-0.69 77.13,-3.52 20.32,-2.83 26.33,-7.14 29.48,-10.98 3.18,-3.84 3.52,-7.17 4.53,-63.98 0.98,-56.78 2.64,-167.07 6.64,-226.55 4,-59.45 10.35,-68.14 19.85,-76.94 9.47,-8.84 22.15,-17.84 37.97,-23.5 15.82,-5.66 34.82,-7.99 51.46,-6.32 16.67,1.67 30.99,7.33 42.31,14.82 11.32,7.52 19.66,16.83 26.49,29.16 6.83,12.33 12.17,27.65 15.16,41.3 3.02,13.65 3.68,25.67 4,77.29 0.35,51.65 0.35,142.94 2.17,190.76 1.82,47.81 5.5,52.12 11.01,55.3 5.47,3.18 12.8,5.16 34.63,5.66 21.83,0.5 58.13,-0.5 78.3,-5.32 20.16,-4.84 24.16,-13.5 25.48,-39.32 1.35,-25.83 0,-68.8 -0.98,-133.09 -1.01,-64.3 -1.67,-149.96 -9.5,-207.08 -7.83,-57.13 -22.84,-85.78 -43,-108.78 -20.13,-23 -45.46,-40.3 -79.46,-51.15 -33.97,-10.82 -76.63,-15.16 -106.76,-12.49 -30.17,2.67 -47.81,12.33 -61.15,22.15 -13.31,9.85 -22.3,19.85 -28.31,25.51 -5.98,5.66 -9,6.98 -14,4.15 -5,-2.83 -11.99,-9.81 -18.31,-17.33 -6.32,-7.49 -12.02,-15.48 -34.67,-19.31 -22.65,-3.84 -62.28,-3.49 -83.61,-2.99 -21.33,0.5 -24.32,1.16 -26.33,4 -1.98,2.83 -2.99,7.83 -3.49,94.28z"/>
    <path class="fil0" d="M2333.6 566.85c55.74,0 162.26,0.75 221.08,-0.98 58.82,-1.73 69.93,-5.95 77.6,-14.56 7.64,-8.62 11.86,-21.64 13.59,-45.58 1.73,-23.97 0.94,-58.82 -10.35,-94.84 -11.29,-36.02 -33.16,-73.17 -65.34,-105.19 -32.18,-31.99 -74.71,-58.79 -121.46,-71.63 -114.5,-31.46 -235.24,20.38 -299.06,119.54 -15.89,24.73 -25.86,54.23 -31.02,88.33 -5.19,34.1 -5.57,72.79 -1.35,109.38 4.22,36.58 13.02,71.09 27.97,100.57 14.94,29.51 36.02,54.04 62.47,76.06 26.42,22.05 58.23,41.59 93.87,54.61 35.64,13.02 75.09,19.53 117.43,16.11 42.34,-3.46 87.54,-16.86 118.4,-29.32 30.83,-12.46 47.31,-23.94 57.66,-33.16 10.35,-9.19 14.56,-16.07 16.67,-20.51 2.11,-4.4 2.11,-6.29 -7.49,-18.94 -9.56,-12.65 -28.72,-36.02 -39.64,-48.66 -10.92,-12.65 -13.62,-14.56 -27.78,-10.73 -14.19,3.84 -39.86,13.4 -68.99,20.48 -29.1,7.11 -61.69,11.7 -90.22,8.43 -28.56,-3.24 -53.07,-14.38 -70.12,-24.91 -17.05,-10.51 -26.64,-20.48 -32.59,-29.1 -5.91,-8.62 -8.24,-15.92 -8.81,-23 -0.57,-7.08 0.57,-14 3.65,-17.8 3.05,-3.84 8.05,-4.59 63.79,-4.59zm-22.81 -112.18c36.46,0.25 106.51,1.07 142.88,0.5 36.36,-0.6 39.01,-2.58 41.02,-7.8 1.98,-5.22 3.3,-13.65 0.47,-23.53 -2.8,-9.85 -9.75,-21.11 -21.52,-33.38 -11.73,-12.24 -28.25,-25.51 -50.3,-33.12 -22.05,-7.61 -49.61,-9.59 -71.56,-4.88 -21.99,4.72 -38.35,16.14 -51.27,27.65 -12.9,11.51 -22.33,23.12 -27.97,33.78 -5.63,10.7 -7.46,20.48 -7.46,27.18 0,6.7 1.82,10.35 4.12,12.02 2.33,1.64 5.16,1.32 41.59,1.57z"/>
    <path class="fil0" d="M2698.38 343.57c-0.5,92.86 -1.82,274.21 -2.99,370.56 -1.16,96.35 -2.17,107.68 -7.52,118.18 -5.32,10.51 -15,20.16 -27.15,25.17 -12.17,5 -26.86,5.35 -41.18,5 -14.34,-0.31 -28.34,-1.32 -35.86,-1.16 -7.49,0.16 -8.49,1.51 -9.5,21.83 -0.98,20.35 -1.98,59.67 -0.98,82.51 0.98,22.84 4,29.19 17.84,35.17 13.81,6.01 38.5,11.67 72.16,9.34 33.66,-2.33 76.35,-12.68 105.19,-27.49 28.85,-14.85 43.85,-34.19 55.68,-52.85 11.83,-18.65 20.51,-36.68 24.5,-50.17 4,-13.5 3.33,-22.49 2.99,-125.36 -0.31,-102.86 -0.31,-299.53 -1.67,-399.41 -1.32,-99.84 -4,-102.83 -7.01,-105.66 -2.99,-2.83 -6.32,-5.5 -30.48,-6.67 -24.19,-1.16 -69.17,-0.85 -91.51,1.51 -22.37,2.33 -22.02,6.64 -22.52,99.5z"/>
    <path class="fil0" d="M4347.54 566.85c55.77,0 162.29,0.75 221.11,-0.98 58.79,-1.73 69.93,-5.95 77.57,-14.56 7.68,-8.62 11.89,-21.64 13.59,-45.58 1.73,-23.97 0.98,-58.82 -10.35,-94.84 -11.29,-36.02 -33.12,-73.17 -65.3,-105.19 -32.18,-31.99 -74.71,-58.79 -121.46,-71.63 -114.53,-31.46 -235.24,20.38 -299.06,119.54 -15.92,24.73 -25.86,54.23 -31.05,88.33 -5.16,34.1 -5.54,72.79 -1.32,109.38 4.22,36.58 13.02,71.09 27.97,100.57 14.94,29.51 36.02,54.04 62.44,76.06 26.46,22.05 58.26,41.59 93.87,54.61 35.64,13.02 75.12,19.53 117.46,16.11 42.34,-3.46 87.54,-16.86 118.37,-29.32 30.86,-12.46 47.34,-23.94 57.69,-33.16 10.32,-9.19 14.56,-16.07 16.64,-20.51 2.11,-4.4 2.11,-6.29 -7.46,-18.94 -9.59,-12.65 -28.75,-36.02 -39.67,-48.66 -10.92,-12.65 -13.59,-14.56 -27.78,-10.73 -14.19,3.84 -39.86,13.4 -68.95,20.48 -29.13,7.11 -61.69,11.7 -90.25,8.43 -28.53,-3.24 -53.07,-14.38 -70.12,-24.91 -17.05,-10.51 -26.61,-20.48 -32.56,-29.1 -5.95,-8.62 -8.24,-15.92 -8.81,-23 -0.6,-7.08 0.57,-14 3.62,-17.8 3.08,-3.84 8.05,-4.59 63.79,-4.59zm-22.77 -112.18c36.43,0.25 106.51,1.07 142.88,0.5 36.36,-0.6 39.01,-2.58 40.99,-7.8 1.98,-5.22 3.3,-13.65 0.5,-23.53 -2.83,-9.85 -9.78,-21.11 -21.52,-33.38 -11.73,-12.24 -28.25,-25.51 -50.3,-33.12 -22.05,-7.61 -49.61,-9.59 -71.6,-4.88 -21.96,4.72 -38.35,16.14 -51.24,27.65 -12.93,11.51 -22.37,23.12 -28,33.78 -5.63,10.7 -7.46,20.48 -7.46,27.18 0,6.7 1.82,10.35 4.15,12.02 2.3,1.64 5.13,1.32 41.59,1.57z"/>
    <path class="fil0" d="M3282.66 267.92c-18.09,-9.91 -49.39,-28.44 -86.41,-36.62 -37.06,-8.15 -79.81,-5.95 -116.64,3.33 -36.8,9.25 -67.7,25.57 -93.05,48.07 -25.35,22.46 -45.2,51.15 -60.18,79.81 -15,28.66 -25.13,57.31 -29.98,89.5 -4.88,32.21 -4.44,67.92 -0.66,101.86 3.74,33.97 10.79,66.15 25.1,96.79 14.34,30.67 35.96,59.77 63.07,84.68 27.12,24.91 59.74,45.64 100.32,54.23 40.58,8.59 89.09,5.06 120.17,-1.32 31.08,-6.39 44.76,-15.67 54.01,-23.37 9.28,-7.71 14.12,-13.87 17.21,-17.65 3.08,-3.74 4.4,-5.06 11.23,-5.73 6.86,-0.66 19.19,-0.66 25.57,-0.66 6.42,0 6.86,0 9.06,6.61 2.2,6.64 6.17,19.85 9.25,26.9 3.08,7.08 5.28,7.96 26.46,8.4 21.17,0.44 61.31,0.44 83.36,-2.86 22.02,-3.3 26.01,-9.94 27.56,-97.45 1.54,-87.54 0.66,-256 -1.7,-342.72 -2.33,-86.7 -6.17,-91.73 -8.43,-94.72 -2.26,-2.96 -2.99,-3.93 -22.71,-4.53 -19.69,-0.57 -58.35,-0.79 -78.36,-0.88 -20.01,-0.09 -21.33,-0.09 -25.95,6.73 -4.62,6.83 -12.55,20.51 -18.97,26.68 -6.39,6.17 -11.23,4.84 -29.32,-5.06zm-101.83 107.36c74.68,0 135.2,60.52 135.2,135.2 0,74.65 -60.52,135.2 -135.2,135.2 -74.68,0 -135.2,-60.55 -135.2,-135.2 0,-74.68 60.52,-135.2 135.2,-135.2z"/>
    <path class="fil0" d="M3890.06 267.92c-18.09,-9.91 -49.39,-28.44 -86.41,-36.62 -37.06,-8.15 -79.84,-5.95 -116.64,3.33 -36.84,9.25 -67.7,25.57 -93.05,48.07 -25.35,22.46 -45.2,51.15 -60.21,79.81 -14.97,28.66 -25.1,57.31 -29.98,89.5 -4.84,32.21 -4.4,67.92 -0.66,101.86 3.77,33.97 10.82,66.15 25.13,96.79 14.34,30.67 35.96,59.77 63.07,84.68 27.12,24.91 59.74,45.64 100.32,54.23 40.58,8.59 89.09,5.06 120.17,-1.32 31.08,-6.39 44.29,-16.26 54.01,-23.37l32.27 -23.62 21.74 -0.41c6.39,-0.13 6.76,0.03 9.06,6.61l9.5 27.46c2.99,6.54 5.32,7.39 26.2,7.83 20.89,0.41 61.28,0.44 83.33,-2.86 4.09,-0.63 7.55,-1.35 10.48,-2.67l1.51 0c7.68,0 13.94,-6.29 13.94,-13.97l0 -32.4c0.82,-12.49 1.29,-28.31 1.64,-48.41 1.54,-86.98 0.69,-253.83 -1.64,-341.02l0 -327.47c0,-7.68 -6.26,-13.94 -13.94,-13.94l-113.87 0c-7.68,0 -13.97,6.26 -13.97,13.94l0 242.09c-4.03,6.26 -8.65,13.09 -12.68,16.96 -6.39,6.17 -11.23,4.84 -29.32,-5.06zm-101.83 107.36c74.65,0 135.2,60.52 135.2,135.2 0,74.65 -60.55,135.2 -135.2,135.2 -74.68,0 -135.2,-60.55 -135.2,-135.2 0,-74.68 60.52,-135.2 135.2,-135.2z"/>
   </g>
   <g>
    <path class="fil0" d="M2.14 205.73c-2.3,5.44 -2.23,5.38 -2.04,5.22 0.19,-0.13 0.53,-0.41 15.6,-12.33 15.04,-11.95 44.83,-35.58 78.45,-54.14 33.6,-18.59 71.06,-32.09 108.78,-34.95 37.72,-2.86 75.69,4.94 112.65,25.48 36.93,20.54 72.82,53.85 99.09,89.75 26.27,35.89 42.91,74.4 55.14,115.23 12.24,40.83 20.04,84.02 18.47,121.74 -1.57,37.72 -12.49,69.96 -26.52,94.69 -14.06,24.69 -31.24,41.87 -52.03,59.04 -20.82,17.14 -45.27,34.32 -62.95,49.67 -17.71,15.35 -28.63,28.88 -34.6,47.09 -5.98,18.21 -7.01,41.08 -1.04,58.01 5.98,16.89 19,27.81 39.01,34.32 20.04,6.51 47.09,8.59 72.57,1.82 25.51,-6.76 49.42,-22.37 77.01,-49.17 27.56,-26.77 58.79,-64.77 83.24,-114.19 24.44,-49.42 42.15,-110.29 41.62,-180.5 -0.53,-70.24 -19.25,-149.83 -46.02,-207.84 -26.8,-58.01 -61.66,-94.43 -99.91,-125.89 -38.22,-31.43 -79.84,-57.88 -119.66,-71.12 -39.79,-13.24 -77.76,-13.24 -105.13,-12.11 -27.4,1.16 -44.17,3.43 -68.73,10.1 -24.57,6.67 -56.94,17.71 -82.61,32.9 -25.7,15.23 -44.7,34.6 -58.38,50.3 -13.65,15.67 -21.99,27.62 -28.5,39.07 -6.48,11.45 -11.17,22.37 -13.5,27.81z"/>
    <path class="fil0" d="M301.99 941.13c2.45,0.82 2.23,0.47 -9.37,-18.62 -11.61,-19.09 -34.6,-56.87 -42.56,-97.42 -7.96,-40.55 -0.88,-83.8 14.06,-116.26 14.97,-32.46 37.78,-54.11 59.42,-73.17 21.61,-19.09 42.09,-35.61 58.2,-49.58 16.14,-13.97 27.93,-25.35 36.62,-37.97 8.65,-12.58 14.16,-26.33 14.16,-42.09 0,-15.73 -5.5,-33.44 -16.74,-44.23 -11.2,-10.82 -28.12,-14.78 -42.69,-16.33 -14.53,-1.57 -26.74,-0.79 -42.47,5.5 -15.73,6.29 -35.01,18.09 -53.89,33.63 -18.91,15.54 -37.37,34.79 -52.53,53.89 -15.13,19.09 -26.96,37.97 -36.77,60.96 -9.85,23.03 -17.71,50.17 -22.62,80.28 -4.91,30.07 -6.89,63.13 0.38,93.8 7.3,30.67 23.81,59.01 37.78,79.05 13.97,20.07 25.35,31.9 36.58,42.69 11.2,10.82 22.21,20.67 30.48,27.34 8.27,6.7 13.78,10.25 19.09,12.99 5.28,2.77 10.41,4.72 12.87,5.54z"/>
   </g>
  </g>
 </g>
</svg>
