<?xml version="1.0" encoding="UTF-8"?>
<!DOCTYPE svg PUBLIC "-//W3C//DTD SVG 1.1//EN" "http://www.w3.org/Graphics/SVG/1.1/DTD/svg11.dtd">
<!-- Creator: CorelDRAW -->
<svg xmlns="http://www.w3.org/2000/svg" xml:space="preserve" width="19.631mm" height="4.2492mm" version="1.1" style="shape-rendering:geometricPrecision; text-rendering:geometricPrecision; image-rendering:optimizeQuality; fill-rule:evenodd; clip-rule:evenodd"
viewBox="0 0 841.43 182.13"
 xmlns:xlink="http://www.w3.org/1999/xlink"
 xmlns:xodm="http://www.corel.com/coreldraw/odm/2003">
 <defs>
  <style type="text/css">
   <![CDATA[
    .fil0 {fill:black}
    .fil1 {fill:black;fill-rule:nonzero}
   ]]>
  </style>
 </defs>
 <g id="Camada_x0020_1">
  <metadata id="CorelCorpID_0Corel-Layer"/>
  <g id="_1735419380400">
   <path class="fil0" d="M72.94 50.81c-1.2,0.48 -3.32,1.6 -5.02,3.14 -1.7,1.54 -2.99,3.51 -3.74,5.5 -0.75,2 -0.96,4.02 -0.71,6.2 0.24,2.17 0.94,4.5 2.55,6.76 1.61,2.26 4.11,4.46 6.94,6.13 2.83,1.67 5.99,2.81 9.41,3.18 3.41,0.37 7.09,-0.04 10.19,-0.75 3.1,-0.71 5.64,-1.73 8.73,-3.6 3.09,-1.86 6.76,-4.58 9.88,-6.97 3.12,-2.38 5.7,-4.44 9.26,-7.17 3.56,-2.73 8.09,-6.15 12.28,-8.72 4.2,-2.58 8.05,-4.31 12.13,-5.73 4.08,-1.42 8.38,-2.52 13.09,-2.91 4.71,-0.39 9.83,-0.06 14.55,0.42 4.72,0.48 9.03,1.09 13.29,2.1 4.26,1.01 8.46,2.41 12.55,3.46 4.09,1.06 8.07,1.77 12.13,2.23 4.05,0.46 8.18,0.67 11.87,0.63 3.69,-0.03 6.93,-0.32 10.45,-1.42 3.52,-1.11 7.32,-3.03 10.02,-4.78 2.7,-1.74 4.31,-3.31 5.43,-4.5 1.13,-1.2 1.77,-2.03 2.25,-2.58 0.49,-0.55 0.84,-0.81 1.33,-0.78 0.49,0.03 1.13,0.35 2.07,1.16 0.94,0.81 2.18,2.11 3,3.4 0.82,1.29 1.23,2.57 1.47,3.48 0.24,0.91 0.32,1.45 0.42,1.05 0.11,-0.4 0.26,-1.74 0.11,-3.26 -0.15,-1.53 -0.59,-3.23 -1.34,-4.77 -0.75,-1.53 -1.81,-2.9 -3.41,-4.23 -1.6,-1.32 -3.75,-2.61 -5.85,-3.12 -2.1,-0.51 -4.14,-0.24 -5.69,0.01 -1.55,0.25 -2.62,0.48 -3.51,0.63 -0.88,0.14 -1.59,0.19 -2.32,0.07 -0.74,-0.12 -1.51,-0.4 -2.18,-0.9 -0.67,-0.5 -1.23,-1.21 -1.68,-2.37 -0.45,-1.16 -0.78,-2.75 -0.99,-3.67 -0.2,-0.91 -0.27,-1.15 -0.88,-1.77 -0.61,-0.63 -1.75,-1.65 -2.65,-3.15 -0.9,-1.5 -1.57,-3.5 -1.9,-4.89 -0.33,-1.4 -0.33,-2.19 -0.21,-2.83 0.12,-0.64 0.35,-1.12 0.61,-1.44 0.27,-0.32 0.56,-0.48 1.71,-1.1 1.15,-0.62 3.17,-1.7 4.82,-2.65 1.65,-0.95 2.92,-1.77 4.14,-2.7 1.22,-0.92 2.39,-1.94 3.73,-2.89 1.34,-0.95 2.85,-1.82 4.85,-2.48 2.01,-0.66 4.5,-1.12 6.84,-1.08 2.34,0.03 4.53,0.57 6.53,1.2 2.01,0.63 3.82,1.37 6.3,1.53 2.47,0.15 5.61,-0.28 7.36,-0.51 1.75,-0.23 2.12,-0.25 2.4,-0.18 0.27,0.07 0.46,0.23 0.58,0.49 0.12,0.26 0.18,0.63 0.16,1.06 -0.02,0.43 -0.12,0.92 -0.5,1.49 -0.39,0.57 -1.06,1.22 -1.84,1.95 -0.78,0.73 -1.66,1.54 -2.2,2.02 -0.54,0.48 -0.72,0.63 -0.83,0.72 -0.11,0.09 -0.15,0.11 0.31,0.47 0.46,0.36 1.42,1.04 3,2.38 1.58,1.34 3.78,3.33 6.07,6.2 2.3,2.87 4.69,6.62 6.56,10.34 1.87,3.72 3.21,7.42 4.08,11.56 0.87,4.14 1.29,8.71 0.73,13.62 -0.56,4.91 -2.08,10.17 -3.98,14.97 -1.89,4.8 -4.15,9.13 -6.73,12.91 -2.58,3.78 -5.47,7 -8.18,9.66 -2.7,2.66 -5.22,4.75 -7.78,6.56 -2.57,1.81 -5.18,3.33 -6.86,4.18 -1.68,0.84 -2.43,1.02 -2.86,1.17 -0.43,0.15 -0.54,0.3 -1.51,1.34 -0.97,1.04 -2.79,2.97 -4.23,4.93 -1.44,1.96 -2.5,3.93 -3.42,6.01 -0.92,2.08 -1.7,4.26 -2.4,6.37 -0.71,2.11 -1.34,4.16 -1.75,5.55 -0.41,1.39 -0.59,2.13 -0.69,2.59 -0.1,0.47 -0.12,0.66 -0.09,0.76 0.03,0.1 0.1,0.1 -0.05,0.65 -0.15,0.55 -0.53,1.66 -3.29,2.12 -2.76,0.46 -7.92,0.27 -10.52,-0.17 -2.6,-0.44 -2.63,-1.13 -2.65,-1.58 -0.02,-0.45 -0.02,-0.65 -0.09,-2.23 -0.07,-1.58 -0.22,-4.53 -0.22,-9.15 0,-4.62 0.15,-10.9 0.47,-14.93 0.32,-4.04 0.81,-5.83 1.05,-6.97 0.24,-1.13 0.24,-1.6 0.29,-2.25 0.05,-0.66 0.14,-1.5 0.23,-2.31 0.09,-0.81 0.19,-1.6 0.24,-2.04 0.05,-0.44 0.05,-0.53 -0.74,0.47 -0.79,1 -2.36,3.09 -3.48,5.02 -1.12,1.92 -1.8,3.68 -2.25,4.77 -0.45,1.08 -0.67,1.5 -0.83,2.1 -0.16,0.61 -0.25,1.41 -0.37,1.83 -0.12,0.41 -0.27,0.43 -1.47,0.42 -1.21,-0.01 -3.47,-0.05 -6.49,-0.43 -3.02,-0.38 -6.79,-1.11 -10.76,-2.21 -3.97,-1.11 -8.14,-2.58 -11.65,-3.99 -3.51,-1.41 -6.34,-2.76 -8.28,-3.8 -1.93,-1.04 -2.96,-1.77 -3.53,-2.16 -0.57,-0.39 -0.68,-0.45 -0.51,-0.89 0.17,-0.44 0.62,-1.26 0.9,-2.25 0.28,-0.99 0.39,-2.15 0.48,-3.37 0.08,-1.23 0.14,-2.51 0.06,-3.89 -0.08,-1.37 -0.28,-2.83 -0.6,-4.04 -0.32,-1.2 -0.75,-2.16 -1.01,-2.67 -0.26,-0.51 -0.36,-0.59 -0.34,0.48 0.02,1.06 0.15,3.27 -0.4,5.75 -0.55,2.47 -1.79,5.22 -2.93,7.25 -1.14,2.03 -2.19,3.33 -4.05,5.13 -1.87,1.79 -4.56,4.07 -7.75,6 -3.18,1.92 -6.87,3.5 -10.18,4.81 -3.31,1.32 -6.24,2.38 -8.86,3.36 -2.61,0.98 -4.92,1.88 -6.91,2.97 -2,1.1 -3.7,2.38 -4.99,3.68 -1.29,1.3 -2.16,2.61 -3.02,4.35 -0.85,1.74 -1.67,3.91 -2.13,5.74 -0.46,1.83 -0.55,3.33 -0.6,4.26 -0.05,0.93 -0.05,1.31 -0.08,1.51 -0.03,0.21 -0.08,0.24 -2.45,0.15 -2.37,-0.09 -7.04,-0.32 -9.41,-0.6 -2.37,-0.29 -2.45,-0.65 -2.73,-2.31 -0.28,-1.66 -0.77,-4.63 -1.11,-8.08 -0.34,-3.45 -0.55,-7.37 -0.35,-10.21 0.21,-2.84 0.82,-4.6 2.05,-6.26 1.23,-1.66 3.06,-3.23 4.69,-4.76 1.63,-1.52 3.07,-3 4.34,-4.55 1.27,-1.55 2.37,-3.18 3.3,-4.94 0.93,-1.75 1.67,-3.64 2.42,-5.72 0.75,-2.07 1.5,-4.34 2,-6.27 0.51,-1.93 0.77,-3.54 1.17,-4.89 0.4,-1.36 0.94,-2.46 1.62,-3.75 0.67,-1.29 1.48,-2.76 1.99,-3.73 0.51,-0.96 0.74,-1.41 0.88,-1.69 0.14,-0.28 0.2,-0.39 -0.52,0.31 -0.72,0.7 -2.21,2.21 -4.84,4.53 -2.63,2.32 -6.38,5.44 -10.11,8.03 -3.73,2.59 -7.43,4.65 -11.08,6.45 -3.66,1.8 -7.26,3.36 -10.88,4.45 -3.62,1.09 -7.24,1.73 -10.79,1.84 -3.55,0.11 -7.03,-0.3 -10.52,-1.39 -3.5,-1.09 -7.01,-2.87 -9.82,-5 -2.81,-2.13 -4.92,-4.62 -6.61,-7.4 -1.68,-2.79 -2.94,-5.87 -3.66,-8.4 -0.72,-2.53 -0.9,-4.52 -0.72,-6.9 0.19,-2.38 0.75,-5.16 1.77,-7.63 1.02,-2.46 2.5,-4.62 4.13,-6.51 1.64,-1.9 3.43,-3.54 5.34,-4.96 1.91,-1.42 3.93,-2.62 5.89,-3.39 1.96,-0.76 3.87,-1.1 5.46,-0.97 1.6,0.13 2.89,0.73 3.75,1.77 0.86,1.05 1.29,2.54 1.24,3.86 -0.04,1.32 -0.57,2.46 -1.32,3.33 -0.75,0.87 -1.72,1.47 -2.47,1.82 -0.75,0.36 -1.27,0.47 -1.68,0.45 -0.41,-0.02 -0.7,-0.18 -1.91,0.31zm103.41 51.08c1.75,0.96 4.84,2.7 7.67,4.14 2.82,1.44 5.4,2.58 6.99,3.24 1.59,0.67 2.21,0.86 2.45,1.06 0.24,0.19 0.09,0.39 -1.16,1.14 -1.25,0.75 -3.61,2.07 -5.82,3.4 -2.21,1.32 -4.27,2.66 -5.42,3.84 -1.14,1.18 -1.37,2.22 -1.23,3.41 0.15,1.19 0.67,2.52 1.6,4.38 0.93,1.86 2.28,4.25 3.22,5.77 0.94,1.52 1.48,2.17 -1.17,2.39 -2.66,0.22 -8.51,0.01 -11.47,-0.21 -2.96,-0.21 -3.02,-0.42 -3.03,-0.66 -0.01,-0.24 0.04,-0.5 -0.02,-0.86 -0.06,-0.37 -0.22,-0.84 -1.42,-2.49 -1.2,-1.65 -3.45,-4.47 -4.93,-6.91 -1.49,-2.44 -2.22,-4.49 -2.6,-5.8 -0.38,-1.32 -0.42,-1.9 -0.15,-2.59 0.26,-0.69 0.81,-1.49 1.97,-2.74 1.16,-1.25 2.94,-2.96 4.52,-4.35 1.58,-1.4 2.98,-2.49 4.03,-3.54 1.05,-1.05 1.75,-2.08 2.22,-2.76 0.47,-0.67 0.72,-1 0.87,-1.14 0.16,-0.14 0.22,-0.09 0.47,0.03 0.24,0.11 0.66,0.29 2.42,1.25zm101.92 -3.99c0.28,2.37 0.82,7.03 2.31,11.75 1.5,4.72 3.94,9.49 6.27,13.27 2.32,3.77 4.51,6.55 6.05,8.42 1.53,1.87 2.42,2.84 -0.63,3.08 -3.05,0.25 -10.04,-0.22 -13.55,-0.51 -3.51,-0.29 -3.56,-0.4 -3.84,-0.78 -0.28,-0.37 -0.79,-1.02 -2.45,-2.79 -1.65,-1.77 -4.45,-4.68 -6.93,-7.91 -2.48,-3.24 -4.65,-6.81 -5.87,-8.8 -1.22,-1.99 -1.47,-2.4 -1.66,-2.71 -0.18,-0.31 -0.29,-0.53 -0.31,-0.63 -0.02,-0.11 0.04,-0.11 1.38,-0.64 1.35,-0.54 3.97,-1.61 6.64,-3.18 2.67,-1.57 5.37,-3.63 7.19,-5.24 1.82,-1.6 2.74,-2.74 3.38,-3.56 0.63,-0.82 0.98,-1.32 1.19,-1.63 0.21,-0.3 0.28,-0.42 0.34,-0.49 0.06,-0.07 0.11,-0.1 0.15,-0.09 0.03,0.01 0.06,0.08 0.35,2.44z"/>
   <path class="fil0" d="M390.95 134.6c-106.4,3.92 -235.96,3.92 -388.71,0 139.35,-3.21 268.92,-3.21 388.71,0z"/>
   <path class="fil0" d="M70.7 49.65c-1.2,0.48 -3.32,1.6 -5.02,3.14 -1.7,1.54 -2.99,3.51 -3.74,5.5 -0.75,2 -0.96,4.02 -0.71,6.2 0.25,2.18 0.95,4.5 2.55,6.76 1.6,2.26 4.11,4.46 6.94,6.13 2.83,1.67 5.99,2.82 9.4,3.18 3.42,0.37 7.09,-0.04 10.19,-0.75 3.1,-0.71 5.63,-1.73 8.73,-3.6 3.09,-1.87 6.76,-4.58 9.88,-6.97 3.12,-2.38 5.7,-4.44 9.26,-7.17 3.56,-2.73 8.09,-6.15 12.29,-8.72 4.2,-2.58 8.05,-4.31 12.13,-5.73 4.08,-1.42 8.38,-2.52 13.09,-2.91 4.71,-0.39 9.84,-0.06 14.56,0.42 4.72,0.47 9.03,1.09 13.29,2.1 4.26,1.01 8.46,2.41 12.55,3.46 4.09,1.06 8.08,1.77 12.13,2.23 4.05,0.46 8.18,0.67 11.87,0.63 3.69,-0.04 6.93,-0.32 10.45,-1.42 3.52,-1.11 7.32,-3.04 10.02,-4.78 2.7,-1.74 4.32,-3.3 5.44,-4.5 1.12,-1.2 1.76,-2.04 2.25,-2.58 0.49,-0.55 0.84,-0.81 1.33,-0.78 0.49,0.03 1.13,0.35 2.07,1.16 0.94,0.81 2.18,2.11 3,3.4 0.83,1.29 1.23,2.57 1.47,3.48 0.24,0.91 0.31,1.45 0.42,1.05 0.11,-0.4 0.26,-1.74 0.11,-3.27 -0.15,-1.52 -0.59,-3.23 -1.34,-4.77 -0.75,-1.53 -1.8,-2.9 -3.41,-4.23 -1.6,-1.32 -3.75,-2.62 -5.85,-3.12 -2.09,-0.51 -4.13,-0.24 -5.69,0.01 -1.56,0.25 -2.62,0.49 -3.51,0.63 -0.89,0.14 -1.59,0.19 -2.32,0.07 -0.74,-0.12 -1.51,-0.4 -2.18,-0.9 -0.67,-0.5 -1.23,-1.21 -1.68,-2.37 -0.45,-1.16 -0.78,-2.75 -0.98,-3.67 -0.2,-0.92 -0.28,-1.15 -0.88,-1.77 -0.61,-0.63 -1.75,-1.65 -2.66,-3.15 -0.9,-1.51 -1.56,-3.5 -1.9,-4.89 -0.33,-1.4 -0.33,-2.19 -0.21,-2.83 0.12,-0.64 0.35,-1.12 0.62,-1.44 0.26,-0.32 0.56,-0.48 1.71,-1.1 1.15,-0.62 3.17,-1.7 4.81,-2.65 1.65,-0.95 2.92,-1.77 4.15,-2.7 1.22,-0.92 2.39,-1.94 3.73,-2.89 1.34,-0.95 2.85,-1.82 4.85,-2.48 2,-0.66 4.5,-1.12 6.84,-1.08 2.34,0.03 4.53,0.56 6.53,1.2 2,0.63 3.82,1.37 6.3,1.53 2.48,0.15 5.61,-0.28 7.36,-0.51 1.75,-0.23 2.12,-0.25 2.4,-0.18 0.28,0.07 0.46,0.23 0.58,0.49 0.12,0.26 0.18,0.63 0.17,1.06 -0.02,0.43 -0.12,0.92 -0.51,1.49 -0.39,0.57 -1.06,1.22 -1.84,1.95 -0.78,0.73 -1.66,1.54 -2.2,2.02 -0.53,0.48 -0.72,0.63 -0.83,0.72 -0.11,0.09 -0.15,0.11 0.31,0.46 0.46,0.36 1.42,1.05 3,2.39 1.58,1.34 3.78,3.33 6.08,6.2 2.3,2.87 4.69,6.61 6.56,10.34 1.86,3.72 3.21,7.42 4.08,11.56 0.88,4.13 1.29,8.71 0.73,13.62 -0.56,4.91 -2.08,10.17 -3.98,14.97 -1.89,4.8 -4.15,9.13 -6.73,12.91 -2.58,3.78 -5.48,7 -8.18,9.66 -2.7,2.65 -5.22,4.74 -7.79,6.55 -2.56,1.81 -5.18,3.34 -6.86,4.18 -1.68,0.85 -2.43,1.02 -2.86,1.17 -0.43,0.15 -0.54,0.3 -1.51,1.34 -0.96,1.04 -2.79,2.97 -4.23,4.93 -1.44,1.96 -2.5,3.93 -3.42,6.01 -0.92,2.08 -1.7,4.25 -2.4,6.37 -0.71,2.11 -1.35,4.16 -1.75,5.55 -0.41,1.39 -0.6,2.13 -0.69,2.59 -0.1,0.47 -0.11,0.66 -0.09,0.76 0.03,0.1 0.1,0.1 -0.05,0.65 -0.15,0.55 -0.52,1.66 -3.29,2.12 -2.76,0.46 -7.93,0.27 -10.52,-0.17 -2.6,-0.44 -2.64,-1.13 -2.65,-1.58 -0.02,-0.45 -0.02,-0.65 -0.09,-2.23 -0.07,-1.58 -0.22,-4.53 -0.22,-9.15 0,-4.62 0.15,-10.9 0.47,-14.94 0.32,-4.04 0.8,-5.83 1.05,-6.96 0.24,-1.13 0.24,-1.6 0.29,-2.25 0.05,-0.66 0.14,-1.5 0.24,-2.31 0.09,-0.81 0.19,-1.6 0.23,-2.04 0.05,-0.44 0.05,-0.54 -0.74,0.47 -0.78,1 -2.35,3.09 -3.48,5.02 -1.12,1.92 -1.8,3.68 -2.24,4.77 -0.45,1.08 -0.67,1.49 -0.83,2.1 -0.16,0.61 -0.25,1.41 -0.37,1.82 -0.12,0.41 -0.27,0.43 -1.48,0.42 -1.2,-0.01 -3.47,-0.04 -6.49,-0.43 -3.02,-0.38 -6.79,-1.11 -10.77,-2.22 -3.97,-1.1 -8.14,-2.58 -11.64,-3.99 -3.51,-1.41 -6.35,-2.76 -8.28,-3.79 -1.94,-1.04 -2.96,-1.77 -3.53,-2.16 -0.57,-0.39 -0.69,-0.45 -0.51,-0.89 0.17,-0.44 0.62,-1.26 0.9,-2.25 0.28,-0.99 0.39,-2.15 0.48,-3.37 0.09,-1.23 0.14,-2.52 0.06,-3.89 -0.07,-1.38 -0.28,-2.83 -0.6,-4.04 -0.32,-1.2 -0.75,-2.16 -1.01,-2.67 -0.26,-0.51 -0.35,-0.59 -0.33,0.48 0.02,1.06 0.15,3.27 -0.4,5.74 -0.55,2.48 -1.78,5.22 -2.92,7.25 -1.14,2.03 -2.19,3.34 -4.06,5.13 -1.87,1.8 -4.56,4.08 -7.75,6 -3.18,1.92 -6.87,3.5 -10.18,4.81 -3.31,1.32 -6.25,2.38 -8.86,3.36 -2.62,0.98 -4.92,1.88 -6.92,2.97 -2,1.09 -3.7,2.38 -4.99,3.68 -1.29,1.3 -2.17,2.61 -3.02,4.35 -0.85,1.74 -1.67,3.91 -2.13,5.74 -0.46,1.83 -0.55,3.33 -0.6,4.26 -0.05,0.93 -0.05,1.31 -0.07,1.51 -0.03,0.21 -0.09,0.24 -2.45,0.15 -2.36,-0.09 -7.03,-0.32 -9.41,-0.61 -2.37,-0.29 -2.45,-0.64 -2.73,-2.31 -0.28,-1.66 -0.77,-4.64 -1.11,-8.08 -0.35,-3.45 -0.55,-7.37 -0.35,-10.21 0.21,-2.84 0.82,-4.6 2.05,-6.26 1.22,-1.66 3.06,-3.23 4.69,-4.76 1.64,-1.52 3.07,-3 4.35,-4.55 1.27,-1.55 2.37,-3.18 3.3,-4.93 0.92,-1.76 1.67,-3.64 2.42,-5.72 0.75,-2.07 1.5,-4.34 2,-6.27 0.51,-1.93 0.77,-3.54 1.17,-4.9 0.4,-1.35 0.95,-2.46 1.62,-3.75 0.67,-1.29 1.47,-2.76 1.99,-3.73 0.51,-0.96 0.74,-1.41 0.88,-1.69 0.14,-0.28 0.2,-0.39 -0.52,0.31 -0.72,0.7 -2.22,2.21 -4.84,4.53 -2.62,2.32 -6.38,5.44 -10.11,8.03 -3.73,2.59 -7.43,4.64 -11.08,6.45 -3.65,1.8 -7.26,3.36 -10.87,4.45 -3.62,1.09 -7.24,1.73 -10.8,1.84 -3.55,0.11 -7.03,-0.3 -10.52,-1.39 -3.49,-1.09 -7.01,-2.87 -9.82,-5 -2.81,-2.13 -4.92,-4.62 -6.61,-7.4 -1.68,-2.78 -2.93,-5.87 -3.65,-8.4 -0.72,-2.53 -0.91,-4.51 -0.72,-6.9 0.19,-2.38 0.75,-5.16 1.77,-7.63 1.02,-2.47 2.49,-4.62 4.13,-6.52 1.63,-1.89 3.43,-3.54 5.34,-4.96 1.9,-1.42 3.92,-2.62 5.89,-3.39 1.96,-0.76 3.87,-1.1 5.47,-0.97 1.6,0.13 2.88,0.73 3.75,1.77 0.86,1.05 1.29,2.54 1.24,3.86 -0.05,1.32 -0.57,2.46 -1.32,3.33 -0.75,0.87 -1.72,1.47 -2.47,1.83 -0.75,0.35 -1.27,0.47 -1.68,0.45 -0.41,-0.02 -0.71,-0.18 -1.91,0.31zm103.41 51.08c1.76,0.96 4.84,2.7 7.67,4.14 2.83,1.44 5.4,2.58 6.99,3.24 1.59,0.67 2.21,0.86 2.45,1.06 0.24,0.19 0.09,0.39 -1.17,1.14 -1.25,0.75 -3.6,2.07 -5.82,3.4 -2.21,1.32 -4.28,2.66 -5.42,3.84 -1.14,1.19 -1.37,2.23 -1.23,3.42 0.15,1.19 0.66,2.52 1.6,4.38 0.93,1.86 2.28,4.25 3.23,5.77 0.94,1.52 1.48,2.17 -1.18,2.39 -2.66,0.22 -8.51,0.01 -11.47,-0.2 -2.96,-0.21 -3.03,-0.42 -3.03,-0.66 -0,-0.24 0.04,-0.49 -0.01,-0.86 -0.06,-0.37 -0.22,-0.84 -1.42,-2.49 -1.2,-1.65 -3.45,-4.47 -4.93,-6.91 -1.49,-2.44 -2.22,-4.49 -2.6,-5.8 -0.38,-1.32 -0.42,-1.9 -0.15,-2.59 0.26,-0.69 0.81,-1.49 1.98,-2.74 1.16,-1.25 2.93,-2.96 4.52,-4.35 1.59,-1.4 2.98,-2.49 4.03,-3.54 1.05,-1.05 1.74,-2.08 2.22,-2.76 0.47,-0.67 0.72,-1 0.87,-1.14 0.15,-0.14 0.22,-0.09 0.46,0.03 0.24,0.11 0.67,0.29 2.42,1.25zm101.92 -3.99c0.28,2.37 0.82,7.03 2.31,11.75 1.5,4.72 3.95,9.49 6.27,13.27 2.32,3.77 4.52,6.55 6.05,8.41 1.54,1.87 2.42,2.84 -0.63,3.09 -3.05,0.25 -10.04,-0.23 -13.55,-0.51 -3.51,-0.29 -3.56,-0.4 -3.84,-0.78 -0.28,-0.38 -0.8,-1.02 -2.45,-2.79 -1.65,-1.77 -4.45,-4.68 -6.93,-7.91 -2.49,-3.23 -4.65,-6.8 -5.87,-8.79 -1.21,-1.99 -1.47,-2.4 -1.65,-2.71 -0.18,-0.31 -0.29,-0.53 -0.31,-0.63 -0.02,-0.11 0.04,-0.11 1.39,-0.64 1.34,-0.54 3.96,-1.62 6.63,-3.18 2.67,-1.57 5.37,-3.63 7.19,-5.23 1.82,-1.6 2.74,-2.74 3.37,-3.56 0.63,-0.82 0.98,-1.32 1.19,-1.62 0.21,-0.3 0.29,-0.42 0.35,-0.49 0.06,-0.07 0.11,-0.1 0.15,-0.09 0.04,0.01 0.07,0.08 0.35,2.44z"/>
   <path class="fil0" d="M388.7 133.44c-106.39,3.92 -235.96,3.92 -388.7,0 139.35,-3.21 268.92,-3.21 388.7,0z"/>
   <path class="fil0" d="M841.43 134.6c-228.99,3.92 -507.86,3.92 -836.6,0 299.92,-3.21 578.79,-3.21 836.6,0z"/>
   <path class="fil0" d="M836.6 133.44c-228.99,3.92 -507.86,3.92 -836.6,0 299.93,-3.21 578.79,-3.21 836.6,0z"/>
   <path class="fil1" d="M387.39 100.26l12.07 -27.35 0.75 1.41 -16.22 36.12 -2.55 0 -28.48 -61.58c-0.5,-1.2 -1.08,-2.07 -1.74,-2.64 -0.66,-0.57 -1.68,-0.85 -3.06,-0.85l0 -0.94 13.58 0 25.65 55.83zm382.99 -1c-0.81,-1.56 -1.81,-3.01 -3,-4.33 -1.19,-1.32 -2.51,-2.47 -3.96,-3.44 -1.46,-0.97 -3.02,-1.73 -4.7,-2.27 -1.67,-0.54 -3.4,-0.81 -5.18,-0.81 -2.43,0 -4.83,0.51 -7.21,1.54 -2.37,1.02 -4.67,2.75 -6.88,5.18l0.57 -1.45c2.05,-2.27 4.43,-3.93 7.13,-4.98 2.7,-1.05 5.45,-1.58 8.26,-1.58 4.05,0 7.75,1 11.09,3l-12.79 -29.96 -17.08 38.13c-0.48,1.13 -0.86,2.34 -1.13,3.6 -0.27,1.26 -0.34,2.44 -0.2,3.52 0.13,1.08 0.47,1.98 1.01,2.71 0.54,0.73 1.38,1.09 2.51,1.09l0 0.81 -8.66 0 23.15 -50.84c0.54,-1.24 0.84,-2.2 0.89,-2.88 0.05,-0.67 -0.06,-1.16 -0.33,-1.46 -0.27,-0.3 -0.62,-0.47 -1.05,-0.52 -0.43,-0.06 -0.84,-0.08 -1.22,-0.08l0.08 -0.89 7.93 0 24.69 56.67 -9.31 0 -4.62 -10.77zm-151.42 -38.94l0 39.12c0,1.31 0.23,2.56 0.69,3.75 0.46,1.2 1.03,2.26 1.71,3.18 0.68,0.93 1.4,1.66 2.16,2.21 0.76,0.54 1.44,0.81 2.04,0.81l0 0.82 -7.6 0 0 -51.45c0,-0.71 -0.01,-1.37 -0.04,-2 -0.03,-0.63 -0.12,-1.16 -0.29,-1.59 -0.16,-0.44 -0.45,-0.78 -0.86,-1.02 -0.41,-0.24 -1.02,-0.37 -1.83,-0.37l0 -0.73 8.25 0 38.38 43.85 0 -33.07c0,-1.31 -0.23,-2.56 -0.69,-3.76 -0.46,-1.2 -1.03,-2.26 -1.71,-3.18 -0.68,-0.93 -1.4,-1.66 -2.16,-2.2 -0.76,-0.54 -1.44,-0.82 -2.04,-0.82l0 -0.81 7.51 0 0 57.16 -0.9 0 -42.63 -49.9zm-21.24 38.94c-0.81,-1.56 -1.81,-3.01 -3,-4.33 -1.19,-1.32 -2.51,-2.47 -3.96,-3.44 -1.46,-0.97 -3.02,-1.73 -4.7,-2.27 -1.67,-0.54 -3.4,-0.81 -5.18,-0.81 -2.43,0 -4.83,0.51 -7.21,1.54 -2.37,1.02 -4.67,2.75 -6.88,5.18l0.57 -1.45c2.05,-2.27 4.43,-3.93 7.12,-4.98 2.7,-1.05 5.45,-1.58 8.26,-1.58 4.05,0 7.75,1 11.09,3l-12.79 -29.96 -17.08 38.13c-0.48,1.13 -0.86,2.34 -1.13,3.6 -0.27,1.26 -0.34,2.44 -0.2,3.52 0.13,1.08 0.47,1.98 1.01,2.71 0.54,0.73 1.38,1.09 2.51,1.09l0 0.81 -8.66 0 23.15 -50.84c0.54,-1.24 0.84,-2.2 0.89,-2.88 0.05,-0.67 -0.06,-1.16 -0.33,-1.46 -0.27,-0.3 -0.62,-0.47 -1.05,-0.52 -0.43,-0.06 -0.84,-0.08 -1.22,-0.08l0.08 -0.89 7.93 0 24.69 56.67 -9.31 0 -4.61 -10.77zm76 -41.71c-0.06,-1.2 -0.23,-2.16 -0.54,-2.88 -0.3,-0.71 -1.16,-1.07 -2.58,-1.07l0 -0.74 22.58 0c5.47,0 10.24,0.93 14.29,2.79 4.05,1.86 7.42,4.31 10.1,7.35 2.68,3.04 4.69,6.46 6.04,10.26 1.34,3.81 2.01,7.63 2.01,11.45 0,3.39 -0.51,6.68 -1.52,9.85 -1.02,3.17 -2.53,5.99 -4.56,8.46 -2.03,2.46 -4.54,4.43 -7.56,5.91 -3.01,1.47 -6.51,2.22 -10.51,2.22 -3.78,0 -7.27,-1.03 -10.47,-3.08 -3.2,-2.05 -5.52,-5.16 -6.94,-9.32l0 -2.38c0.39,1.53 1.05,2.91 2.01,4.14 0.96,1.23 2.08,2.3 3.37,3.2 1.29,0.9 2.68,1.6 4.19,2.1 1.5,0.49 3.05,0.74 4.64,0.74 3.12,0 5.86,-0.66 8.21,-1.97 2.35,-1.32 4.32,-3.08 5.91,-5.3 1.59,-2.22 2.78,-4.75 3.57,-7.6 0.8,-2.85 1.19,-5.8 1.19,-8.86 0,-3.45 -0.53,-6.9 -1.6,-10.35 -1.07,-3.45 -2.68,-6.52 -4.84,-9.23 -2.16,-2.71 -4.89,-4.93 -8.17,-6.65 -3.28,-1.72 -7.15,-2.58 -11.58,-2.58l-9.03 -0.08 0 56.4 -8.21 0 0 -52.79zm-173.07 -4.84l0 45.09c0,1.5 0.27,2.95 0.8,4.33 0.53,1.38 1.19,2.61 1.98,3.67 0.78,1.07 1.62,1.91 2.49,2.54 0.88,0.63 1.66,0.94 2.35,0.94l0 0.94 -8.75 0 0 -59.3c0,-0.81 -0.02,-1.58 -0.05,-2.31 -0.03,-0.72 -0.14,-1.33 -0.33,-1.83 -0.19,-0.5 -0.52,-0.89 -0.99,-1.17 -0.47,-0.28 -1.17,-0.42 -2.12,-0.42l0 -0.85 9.51 0 44.24 50.55 0 -38.12c0,-1.5 -0.27,-2.95 -0.8,-4.33 -0.53,-1.38 -1.19,-2.61 -1.98,-3.67 -0.78,-1.07 -1.62,-1.91 -2.49,-2.54 -0.88,-0.63 -1.66,-0.94 -2.35,-0.94l0 -0.94 8.66 0 0 65.89 -1.04 0 -49.14 -57.51zm-22.99 46.55c-0.81,-1.56 -1.81,-3.01 -3,-4.33 -1.19,-1.32 -2.51,-2.47 -3.97,-3.44 -1.46,-0.97 -3.02,-1.73 -4.69,-2.27 -1.67,-0.54 -3.4,-0.81 -5.18,-0.81 -2.43,0 -4.83,0.51 -7.21,1.54 -2.37,1.02 -4.67,2.75 -6.88,5.18l0.57 -1.45c2.05,-2.27 4.42,-3.93 7.12,-4.98 2.7,-1.05 5.45,-1.58 8.26,-1.58 4.05,0 7.75,1 11.09,3l-12.79 -29.96 -17.08 38.13c-0.49,1.13 -0.87,2.34 -1.14,3.6 -0.27,1.26 -0.33,2.44 -0.2,3.52 0.14,1.08 0.47,1.98 1.01,2.71 0.54,0.73 1.38,1.09 2.51,1.09l0 0.81 -8.66 0 23.15 -50.84c0.54,-1.24 0.84,-2.2 0.89,-2.88 0.06,-0.67 -0.05,-1.16 -0.32,-1.46 -0.27,-0.3 -0.62,-0.47 -1.05,-0.52 -0.43,-0.06 -0.84,-0.08 -1.21,-0.08l0.08 -0.89 7.93 0 24.69 56.67 -9.31 0 -4.61 -10.77zm-52.74 1l18.67 -42.53c0.5,-1.32 0.87,-2.7 1.08,-4.15 0.22,-1.45 0.24,-2.78 0.05,-4.01 -0.19,-1.23 -0.61,-2.23 -1.27,-3.02 -0.66,-0.79 -1.59,-1.18 -2.78,-1.18l0 -0.94 10.09 0 -29.24 66.01 -2.55 0 -30.46 -66.01 10.75 0 25.65 55.83z"/>
   <path class="fil1" d="M127.97 165.98l0 13.72 1.86 0 0 -5.25 2.56 0c1.49,0 2.62,-0.41 3.42,-1.23 0.8,-0.84 1.19,-1.84 1.19,-3.01 0,-1.15 -0.37,-2.13 -1.13,-2.97 -0.76,-0.84 -1.86,-1.26 -3.3,-1.26l-4.58 0zm1.86 6.74l0 -4.99 2.84 0c1.58,0 2.47,1.11 2.47,2.45 0,1.39 -0.93,2.54 -2.71,2.54l-2.6 0z"/>
   <path id="_1" class="fil1" d="M156.04 172.93c0,1.97 0.67,3.62 2.02,4.97 1.35,1.35 3.03,2.02 5.01,2.02 1.98,0 3.67,-0.69 5.07,-2.06 1.39,-1.39 2.1,-3.06 2.1,-5.01 0,-1.95 -0.7,-3.62 -2.1,-5.01 -1.39,-1.39 -3.06,-2.1 -5.01,-2.1 -1.95,0 -3.62,0.7 -5.01,2.1 -1.39,1.39 -2.08,3.1 -2.08,5.09zm12.27 -0.06c0,1.5 -0.5,2.74 -1.5,3.75 -0.98,1 -2.21,1.5 -3.67,1.5 -1.47,0 -2.69,-0.5 -3.67,-1.5 -0.99,-1.02 -1.49,-2.26 -1.49,-3.75 0,-1.5 0.5,-2.75 1.5,-3.77 1,-1.02 2.23,-1.54 3.66,-1.54 1.45,0 2.67,0.5 3.67,1.52 1,1.02 1.5,2.28 1.5,3.79z"/>
   <path id="_2" class="fil1" d="M195.39 179.7c2.02,0 3.6,-0.61 4.75,-1.84 1.17,-1.22 1.74,-2.89 1.74,-4.99 0,-2.12 -0.58,-3.79 -1.71,-5.03 -1.13,-1.24 -2.65,-1.86 -4.6,-1.86l-5.1 0 0 13.72 4.92 0zm-3.06 -11.95l3.13 0c1.41,0 2.51,0.48 3.3,1.43 0.8,0.95 1.19,2.15 1.19,3.64 0,1.5 -0.39,2.73 -1.19,3.69 -0.8,0.95 -1.89,1.43 -3.3,1.43l-3.13 0 0 -10.19z"/>
   <polygon id="_3" class="fil1" points="230.75,179.7 230.75,177.94 224.08,177.94 224.08,173.61 230.26,173.61 230.26,171.85 224.08,171.85 224.08,167.75 230.75,167.75 230.75,165.98 222.22,165.98 222.22,179.7 "/>
   <path id="_4" class="fil1" d="M260.79 179.7l-3.82 -5.72c2.06,-0.46 3.19,-2.11 3.19,-3.91 0,-1.1 -0.37,-2.06 -1.13,-2.86 -0.74,-0.82 -1.8,-1.23 -3.17,-1.23l-4.66 0 0 13.72 1.86 0 0 -5.57 1.89 0 3.57 5.57 2.28 0zm-4.92 -11.95c1.54,0 2.39,0.99 2.39,2.3 0,1.32 -0.91,2.34 -2.76,2.34l-2.45 0 0 -4.64 2.82 0z"/>
   <path id="_5" class="fil1" d="M281.25 177.69c-0.65,0 -1.2,0.54 -1.2,1.15 0,0.57 0.46,1.06 1.04,1.06l0.08 0c-0.04,0.07 -0.08,0.15 -0.13,0.2 -0.17,0.26 -0.63,0.67 -1.37,1.23l0.57 0.8c1.54,-0.98 2.3,-2 2.3,-3.06 0,-0.8 -0.54,-1.38 -1.28,-1.38z"/>
   <path class="fil1" d="M308.47 180.59c2.47,0 4.55,-0.97 6.22,-2.9l0 -5.25 -6.33 0 0 1.71 4.58 0 0 2.73c-1.13,1.19 -2.76,1.93 -4.4,1.93 -1.47,0 -2.69,-0.5 -3.69,-1.48 -1,-1 -1.5,-2.27 -1.5,-3.77 0,-1.54 0.5,-2.82 1.5,-3.82 1.02,-1 2.26,-1.5 3.75,-1.5 1.77,0 3.23,0.65 4.38,1.93l1.32 -1.2c-1.25,-1.5 -3.42,-2.52 -5.72,-2.52 -1.98,0 -3.66,0.67 -5.05,2.02 -1.39,1.34 -2.08,3.03 -2.08,5.08 0,2.02 0.67,3.71 1.98,5.05 1.34,1.34 3.01,2.01 5.03,2.01z"/>
   <path id="_1_0" class="fil1" d="M345.13 180.38l-5.49 -13.72 -1 0 -5.55 13.72 2.02 0 1.39 -3.56 5.21 0 1.39 3.56 2.02 0zm-4.05 -5.31l-3.95 0 1.98 -5.18 1.97 5.18z"/>
   <path id="_2_1" class="fil1" d="M374.26 180.38l-3.82 -5.72c2.06,-0.46 3.19,-2.11 3.19,-3.91 0,-1.1 -0.37,-2.06 -1.13,-2.86 -0.74,-0.82 -1.8,-1.23 -3.17,-1.23l-4.66 0 0 13.72 1.86 0 0 -5.57 1.89 0 3.57 5.57 2.28 0zm-4.92 -11.95c1.54,0 2.39,0.99 2.39,2.3 0,1.32 -0.91,2.34 -2.76,2.34l-2.45 0 0 -4.64 2.82 0z"/>
   <path id="_3_2" class="fil1" d="M403.73 180.38l-3.82 -5.72c2.06,-0.46 3.19,-2.11 3.19,-3.91 0,-1.1 -0.37,-2.06 -1.13,-2.86 -0.74,-0.82 -1.8,-1.23 -3.17,-1.23l-4.66 0 0 13.72 1.86 0 0 -5.57 1.89 0 3.57 5.57 2.28 0zm-4.92 -11.95c1.54,0 2.39,0.99 2.39,2.3 0,1.32 -0.91,2.34 -2.76,2.34l-2.45 0 0 -4.64 2.82 0z"/>
   <path id="_4_3" class="fil1" d="M434.15 180.38l-5.49 -13.72 -1 0 -5.55 13.72 2.02 0 1.39 -3.56 5.21 0 1.39 3.56 2.02 0zm-4.05 -5.31l-3.95 0 1.98 -5.18 1.97 5.18z"/>
   <path class="fil1" d="M484.32 177.08c0.52,-0.65 0.98,-1.32 1.37,-2l-1.19 -0.93c-0.46,0.76 -0.91,1.41 -1.34,1.93l-2.86 -2.5c-0.39,-0.33 -0.74,-0.65 -1.05,-0.95l0.3 -0.13c0.95,-0.45 1.59,-0.8 2.26,-1.32 0.69,-0.54 1.08,-1.28 1.08,-2.19 0,-0.81 -0.31,-1.5 -0.94,-2.04 -0.61,-0.54 -1.36,-0.82 -2.23,-0.82 -0.99,0 -1.84,0.36 -2.54,1.04 -0.71,0.69 -1.06,1.5 -1.06,2.47 0,0.93 0.28,1.78 0.81,2.56 -1.69,0.99 -2.52,2.32 -2.52,4.01 0,1.11 0.42,2.06 1.3,2.86 0.87,0.78 1.93,1.17 3.19,1.17 1.58,0 3.05,-0.69 4.42,-2.04l2.25 1.98 0.98 -1.15 -2.22 -1.95zm-4.64 -9.63c0.91,0 1.6,0.67 1.6,1.54 0,0.5 -0.26,0.96 -0.8,1.35 -0.31,0.24 -1.05,0.63 -2.22,1.17 -0.39,-0.56 -0.57,-1.19 -0.57,-1.89 0,-1.25 0.89,-2.17 2,-2.17zm-0.59 11.26c-0.84,0 -1.54,-0.24 -2.1,-0.74 -0.54,-0.5 -0.81,-1.11 -0.81,-1.86 0,-1.09 0.57,-2.02 1.73,-2.76 0.2,0.2 0.55,0.54 1.05,0.98l3.23 2.86c-1.04,1.02 -2.08,1.52 -3.1,1.52z"/>
   <path class="fil1" d="M535.31 179.87c2.52,0 4.73,-1.19 6.01,-2.97l-1.34 -1.13c-1.11,1.43 -2.75,2.32 -4.6,2.32 -1.48,0 -2.73,-0.48 -3.73,-1.47 -0.99,-0.99 -1.49,-2.23 -1.49,-3.75 0,-1.54 0.5,-2.82 1.52,-3.84 1.02,-1.02 2.25,-1.52 3.71,-1.52 1.84,0 3.34,0.78 4.51,2.36l1.38 -1.15c-0.6,-0.91 -1.41,-1.63 -2.47,-2.17 -1.06,-0.56 -2.21,-0.84 -3.45,-0.84 -1.97,0 -3.64,0.67 -5.03,2.02 -1.39,1.34 -2.08,3.04 -2.08,5.12 0,2.06 0.69,3.73 2.04,5.05 1.38,1.32 3.05,1.97 5.01,1.97z"/>
   <path id="_1_4" class="fil1" d="M560.23 172.89c0,1.97 0.67,3.62 2.02,4.97 1.35,1.35 3.03,2.02 5.01,2.02 1.98,0 3.67,-0.69 5.07,-2.06 1.39,-1.39 2.1,-3.06 2.1,-5.01 0,-1.95 -0.7,-3.62 -2.1,-5.01 -1.39,-1.39 -3.06,-2.1 -5.01,-2.1 -1.95,0 -3.62,0.7 -5.01,2.1 -1.39,1.39 -2.08,3.1 -2.08,5.09zm12.27 -0.06c0,1.5 -0.5,2.74 -1.5,3.75 -0.98,1 -2.21,1.5 -3.67,1.5 -1.47,0 -2.69,-0.5 -3.67,-1.5 -0.99,-1.02 -1.49,-2.26 -1.49,-3.75 0,-1.5 0.5,-2.75 1.5,-3.77 1,-1.02 2.23,-1.54 3.66,-1.54 1.45,0 2.67,0.5 3.67,1.52 1,1.02 1.5,2.28 1.5,3.79z"/>
   <path id="_2_5" class="fil1" d="M604.32 179.66l-3.82 -5.72c2.06,-0.46 3.19,-2.11 3.19,-3.91 0,-1.1 -0.37,-2.06 -1.13,-2.86 -0.74,-0.82 -1.8,-1.23 -3.17,-1.23l-4.66 0 0 13.72 1.86 0 0 -5.57 1.89 0 3.57 5.57 2.28 0zm-4.92 -11.95c1.54,0 2.39,0.99 2.39,2.3 0,1.32 -0.91,2.34 -2.76,2.34l-2.45 0 0 -4.64 2.82 0z"/>
   <path id="_3_6" class="fil1" d="M634.9 179.66l-5.49 -13.72 -1 0 -5.55 13.72 2.02 0 1.39 -3.56 5.21 0 1.39 3.56 2.02 0zm-4.05 -5.31l-3.95 0 1.98 -5.18 1.97 5.18z"/>
   <path id="_4_7" class="fil1" d="M660.28 179.87c2.47,0 4.55,-0.97 6.22,-2.9l0 -5.25 -6.33 0 0 1.71 4.58 0 0 2.73c-1.13,1.19 -2.76,1.93 -4.4,1.93 -1.47,0 -2.69,-0.5 -3.69,-1.48 -1,-1 -1.5,-2.27 -1.5,-3.77 0,-1.54 0.5,-2.82 1.5,-3.82 1.02,-1 2.26,-1.5 3.75,-1.5 1.77,0 3.23,0.65 4.38,1.93l1.32 -1.2c-1.25,-1.5 -3.42,-2.52 -5.72,-2.52 -1.98,0 -3.66,0.67 -5.05,2.02 -1.39,1.34 -2.08,3.03 -2.08,5.08 0,2.02 0.67,3.71 1.98,5.05 1.34,1.34 3.01,2.01 5.03,2.01z"/>
   <polygon id="_5_8" class="fil1" points="695.48,179.66 695.48,177.9 688.8,177.9 688.8,173.58 694.98,173.58 694.98,171.81 688.8,171.81 688.8,167.71 695.48,167.71 695.48,165.95 686.95,165.95 686.95,179.66 "/>
   <polygon id="_6" class="fil1" points="717.82,179.66 717.82,170.4 722.54,177.32 723.02,177.32 727.74,170.4 727.74,179.66 729.59,179.66 729.59,165.95 728.68,165.95 722.8,174.65 716.88,165.95 715.99,165.95 715.99,179.66 "/>
  </g>
 </g>
</svg>
