<svg width="754" height="126" viewBox="0 0 754 126" fill="none" xmlns="http://www.w3.org/2000/svg">
<g clip-path="url(#clip0_672_8114)">
<path d="M433.038 126H426.792V109.731H433.038C435.467 109.731 437.202 110.423 438.59 111.808C439.978 113.192 440.672 115.269 440.672 117.692C440.672 120.115 439.978 122.192 438.59 123.577C437.549 124.962 435.467 126 433.038 126ZM429.915 112.5V122.885H433.038C434.426 122.885 435.814 122.538 436.508 121.5C437.202 120.462 437.896 119.077 437.896 117.692C437.896 116.308 437.549 114.923 436.508 113.885C435.814 112.846 434.426 112.5 433.038 112.5H429.915Z" fill="#878787"/>
<path d="M450.734 126V109.731H453.857V126H450.734Z" fill="#878787"/>
<path d="M471.554 126C469.125 126 467.043 125.308 465.308 123.577C463.573 121.846 462.879 120.115 462.879 117.692C462.879 115.269 463.573 113.192 465.308 111.462C467.043 109.731 469.125 109.038 471.554 109.038C472.941 109.038 473.982 109.385 475.37 109.731C476.411 110.077 477.452 110.769 478.146 111.808L476.064 113.885C474.676 112.5 473.288 111.808 471.554 111.808C469.819 111.808 468.778 112.5 467.737 113.538C466.696 114.577 466.002 115.962 466.002 117.346C466.002 119.077 466.349 120.115 467.39 121.154C468.431 122.192 469.819 122.885 471.207 122.885C472.248 122.885 472.942 122.885 473.635 122.538C474.329 122.192 475.023 121.846 475.717 121.154V118.731H470.86V115.962H478.493V122.538C476.758 124.962 474.329 126 471.554 126Z" fill="#878787"/>
<path d="M488.556 126V109.731H491.679V126H488.556Z" fill="#878787"/>
<path d="M505.211 126V112.5H500.354V109.731H512.845V112.5H508.334V126H505.211Z" fill="#878787"/>
<path d="M533.317 126H530.194L528.806 122.192H522.907L521.519 126H518.396L524.642 109.731H527.071L533.317 126ZM528.112 119.423L526.03 113.885L523.948 119.423H528.112Z" fill="#878787"/>
<path d="M553.442 126H541.992V109.731H545.115V123.231H553.442V126Z" fill="#878787"/>
<path d="M581.201 126C578.772 126 576.69 125.308 575.302 123.577C573.567 121.846 572.874 120.115 572.874 117.692C572.874 115.269 573.567 113.192 575.302 111.462C577.037 109.731 579.119 109.038 581.201 109.038C582.589 109.038 583.977 109.385 585.365 110.077C586.753 110.769 587.447 111.462 588.488 112.5L586.406 114.577C585.018 112.846 583.63 112.154 581.548 112.154C580.16 112.154 578.772 112.846 577.731 113.885C576.69 114.923 575.996 116.308 575.996 118.038C575.996 119.769 576.343 120.808 577.384 121.846C578.425 122.885 579.813 123.231 581.201 123.231C583.283 123.231 585.018 122.538 586.059 120.808L588.141 122.538C587.447 123.577 586.406 124.269 585.018 124.962C583.977 125.654 582.589 126 581.201 126Z" fill="#878787"/>
<path d="M596.122 117.692C596.122 115.269 596.816 113.192 598.55 111.808C600.285 110.077 602.367 109.385 604.449 109.385C606.878 109.385 608.96 110.077 610.348 111.808C612.083 113.538 612.777 115.615 612.777 117.692C612.777 120.115 612.083 121.846 610.348 123.577C608.613 125.308 606.531 126 604.449 126C602.02 126 599.938 125.308 598.55 123.577C596.816 122.192 596.122 120.115 596.122 117.692ZM610.001 117.692C610.001 115.962 609.307 114.923 608.266 113.885C607.225 112.846 605.837 112.154 604.449 112.154C603.061 112.154 601.673 112.846 600.632 113.885C599.591 114.923 599.244 116.308 599.244 117.692C599.244 119.423 599.591 120.462 600.632 121.5C601.673 122.538 603.061 122.885 604.449 122.885C605.837 122.885 607.225 122.538 608.266 121.5C609.654 120.462 610.001 119.423 610.001 117.692Z" fill="#878787"/>
<path d="M625.615 126H622.492V109.731H624.227L630.82 119.077L637.413 109.731H639.495V126H636.372V116.308L631.514 123.577H630.473L625.615 116.308V126Z" fill="#878787"/>
<path d="M653.027 126H649.904V109.731H651.639L658.232 119.077L664.825 109.731H666.907V126H663.784V116.308L658.926 123.577H657.885L653.027 116.308V126Z" fill="#878787"/>
<path d="M688.073 126H677.316V109.731H688.073V112.5H680.092V116.308H687.379V119.077H680.092V123.231H688.073V126Z" fill="#878787"/>
<path d="M709.933 126H706.463L702.646 119.769H700.564V126H697.441V109.731H703.687C705.422 109.731 706.81 110.077 707.851 111.115C708.892 112.154 709.239 113.192 709.239 114.577C709.239 115.615 708.892 116.654 708.198 117.346C707.504 118.038 706.81 118.731 705.769 119.077L709.933 126ZM703.687 112.5H700.564V117.346H703.34C704.381 117.346 704.728 117 705.422 116.654C705.769 116.308 706.116 115.615 706.116 114.923C706.116 114.231 705.769 113.538 705.422 113.192C705.075 112.5 704.728 112.5 703.687 112.5Z" fill="#878787"/>
<path d="M726.588 126C724.159 126 722.077 125.308 720.689 123.577C718.954 121.846 718.26 120.115 718.26 117.692C718.26 115.269 718.954 113.192 720.689 111.462C722.424 109.731 724.506 109.038 726.588 109.038C727.976 109.038 729.364 109.385 730.752 110.077C732.14 110.769 732.834 111.462 733.875 112.5L731.793 114.577C730.405 112.846 729.017 112.154 726.935 112.154C725.547 112.154 724.159 112.846 723.118 113.885C722.077 114.923 721.383 116.308 721.383 118.038C721.383 119.769 721.73 120.808 722.771 121.846C723.812 122.885 725.2 123.231 726.588 123.231C728.67 123.231 730.405 122.538 731.446 120.808L733.528 122.538C732.834 123.577 731.793 124.269 730.405 124.962C729.364 125.654 727.976 126 726.588 126Z" fill="#878787"/>
<path d="M753.653 126H742.896V109.731H753.653V112.5H745.672V116.308H752.959V119.077H745.672V123.231H753.653V126Z" fill="#878787"/>
<path d="M305.695 34.2693L306.042 31.8462C306.735 28.0385 309.858 24.9231 314.022 24.9231H318.533V87.9231C318.533 89.3077 316.798 90 315.757 89.3077L305.695 81C299.796 87.9231 292.509 91.3847 283.487 91.3847C274.466 91.3847 266.138 87.9231 260.239 81.3462C253.994 74.7693 251.218 66.4616 251.218 56.7693C251.218 47.077 254.341 39.1154 260.239 32.5385C266.485 26.3077 274.119 22.8462 283.487 22.8462C292.509 23.8847 299.796 27.3462 305.695 34.2693ZM285.222 79.6154C291.121 79.6154 296.326 77.5385 300.49 73.3847C304.307 69.2308 306.389 64.0385 306.389 57.8077C306.389 51.577 304.307 46.7308 300.49 42.2308C296.326 38.077 291.468 36 285.222 36C278.977 36 274.119 38.077 269.955 42.2308C266.138 46.3847 264.056 51.577 264.056 57.8077C264.056 64.0385 266.138 69.2308 269.955 73.3847C274.119 77.5385 278.977 79.6154 285.222 79.6154Z" fill="#383838"/>
<path d="M466.349 34.2692L466.696 32.1923C467.39 28.3846 470.513 25.2692 474.677 25.2692H479.187V88.2692C479.187 89.6538 477.452 90.3461 476.411 89.6538L466.349 81.3461C460.45 88.2692 453.163 91.7307 444.142 91.7307C435.12 91.7307 426.792 88.2692 420.894 81.6923C414.648 75.1153 411.872 66.8076 411.872 57.1153C411.872 47.423 414.995 39.4615 420.894 32.8846C427.139 26.6538 434.773 23.1923 444.142 23.1923C453.163 23.8846 460.45 27.3461 466.349 34.2692ZM445.877 79.6153C451.775 79.6153 456.98 77.5384 461.144 73.3846C464.961 69.2307 467.043 64.0384 467.043 57.8076C467.043 51.5769 464.961 46.7307 461.144 42.2307C456.98 38.0769 452.122 36 445.877 36C439.631 36 434.773 38.0769 430.609 42.2307C426.792 46.3846 424.711 51.5769 424.711 57.8076C424.711 64.0384 426.792 69.2307 430.609 73.3846C434.773 77.5384 439.631 79.6153 445.877 79.6153Z" fill="#383838"/>
<path d="M560.035 57.8077C560.035 48.4615 563.158 40.5 569.751 33.5769C576.343 27 584.671 23.5385 594.387 23.5385C604.102 23.5385 612.43 27 619.023 33.5769C625.615 40.1538 628.738 48.1154 628.738 57.8077C628.738 67.5 625.615 75.4615 619.023 82.0385C612.777 88.6154 604.449 92.0769 594.387 92.0769C584.324 92.0769 575.997 88.6154 569.751 82.0385C563.505 75.4615 560.035 67.1538 560.035 57.8077ZM615.553 57.8077C615.553 51.9231 613.471 46.7308 609.307 42.5769C605.49 38.0769 600.286 36 594.387 36C588.488 36 583.63 38.0769 579.466 42.5769C575.303 46.7308 573.568 51.9231 573.568 57.8077C573.568 63.6923 575.65 68.8846 579.466 73.3846C583.63 77.5385 588.488 79.6154 594.387 79.6154C600.286 79.6154 605.143 77.5385 609.307 73.3846C613.471 68.8846 615.553 63.6923 615.553 57.8077Z" fill="#383838"/>
<path d="M740.468 34.2692V8.30769C740.468 3.80769 744.285 0 748.795 0H754V85.8461C754 88.2692 751.224 89.6538 749.489 87.9231L740.815 81C735.263 87.9231 727.976 91.7308 718.955 91.7308C709.933 91.7308 701.605 88.6154 695.706 82.0385C689.461 75.4615 686.338 67.1538 686.338 57.8077C686.338 48.4615 689.461 40.1538 695.706 33.5769C701.952 27 709.586 23.5385 718.955 23.5385C727.629 23.8846 734.916 27.3462 740.468 34.2692ZM741.509 57.8077C741.509 51.5769 739.427 46.7308 735.61 42.2308C731.793 38.0769 726.588 36 720.343 36C714.097 36 709.239 38.0769 705.075 42.2308C701.258 46.3846 699.176 51.5769 699.176 57.8077C699.176 64.0385 701.258 69.2308 705.075 73.3846C708.892 77.5385 714.097 79.6154 720.343 79.6154C726.588 79.6154 731.446 77.5385 735.61 73.3846C739.774 69.2308 741.509 64.0385 741.509 57.8077Z" fill="#383838"/>
<path d="M386.889 32.1923L386.542 34.6154C380.643 27.6923 373.357 23.8846 364.335 23.8846C355.313 23.8846 346.986 27 341.087 33.577C334.841 39.8077 332.065 48.1154 332.065 57.8077C332.065 67.5 335.188 75.8077 341.087 82.3846C347.333 88.9616 354.966 92.4231 364.335 92.4231C373.704 92.4231 380.643 88.9616 386.542 82.0385V90.6923C386.542 100.038 378.909 107.654 369.54 107.654H342.475C340.74 107.654 340.046 109.731 341.434 110.769L351.15 118.731C352.191 119.769 353.926 120.115 355.313 120.115H369.887C386.195 120.115 399.381 106.962 399.381 90.6923V25.2693H394.87C391.053 25.2693 387.583 28.3846 386.889 32.1923ZM381.337 73.3846C377.174 77.5385 372.316 79.6154 366.07 79.6154C359.824 79.6154 354.966 77.5385 350.803 73.3846C346.986 69.2308 344.904 64.0385 344.904 57.8077C344.904 51.577 346.986 46.3846 350.803 42.2308C354.62 38.0769 359.824 36 366.07 36C371.969 36 377.174 38.0769 381.337 42.2308C385.154 46.3846 387.236 51.577 387.236 57.8077C387.236 64.0385 385.154 69.2308 381.337 73.3846Z" fill="#383838"/>
<path d="M681.133 23.8846H663.784C651.639 23.8846 641.924 33.577 641.924 45.6923V91.7308H655.803L655.456 48.4616C655.456 42.2308 660.314 37.3846 666.213 37.3846L676.622 37.0385L683.215 28.3846C684.95 26.3077 683.562 23.8846 681.133 23.8846Z" fill="#383838"/>
<path d="M193.271 57.8077L152.674 27.3461C150.939 25.9615 148.163 27.3461 148.163 29.423V81C148.163 82.7307 149.204 84.4615 150.939 85.5L158.92 90C160.308 90.6923 162.043 89.6538 162.043 88.2692V51.2307L187.372 70.2692L193.271 74.7692L199.17 70.2692L224.5 51.2307V88.6153C224.5 90 226.235 91.0384 227.623 90.3461L235.603 85.8461C237.338 84.8077 238.379 83.0769 238.379 81.3461V29.423C238.379 27 235.603 25.9615 233.869 27.3461L193.271 57.8077Z" fill="#383838"/>
<path d="M558.647 25.2693H503.823C502.435 25.2693 501.394 25.9616 500.7 27.0001L494.455 35.3077C493.761 36.3462 494.455 38.077 495.843 38.077H532.623L491.679 92.077H546.502C547.89 92.077 548.931 91.3847 549.625 90.3462L555.871 82.0385C556.565 81.0001 555.871 79.2693 554.483 79.2693H517.356L558.647 25.2693Z" fill="#383838"/>
<path d="M77.7246 93.4615V105.923L54.4766 123.577V104.538L72.5198 91.0384C73.9078 90 75.9897 90.3461 77.0306 91.7307C77.3776 92.0769 77.7246 92.7692 77.7246 93.4615Z" fill="#1AAB75"/>
<path d="M54.4769 123.577L30.8818 105.923V93.4615C30.8818 91.7307 32.2698 90.3461 34.3517 90.3461C35.0457 90.3461 35.7396 90.6923 36.0866 91.0384L54.1299 104.538L54.4769 123.577Z" fill="#1D8F4E"/>
<path d="M93.339 6.23083V17.6539C93.339 18.0001 92.992 18.3462 92.992 18.6924L54.4766 47.4231V28.7308L87.4402 3.80775C88.8282 2.42313 90.9101 2.42313 92.298 3.80775C92.992 4.50006 93.339 5.19236 93.339 6.23083Z" fill="#EA589B"/>
<path d="M52.0479 65.7692C52.0479 65.0769 51.7009 64.3846 51.0069 64.0384L9.7156 32.8846C6.93971 31.1538 2.77589 31.8461 1.04096 34.9615C0.346986 36 0 37.0384 0 38.0769V83.0769L15.6144 94.5V60.2307C15.6144 59.1923 16.6553 58.5 17.6963 58.5C18.0433 58.5 18.3902 58.5 18.7372 58.8461L48.578 81.3461C49.619 82.0384 51.0069 82.0384 51.7009 81C52.0479 80.6538 52.0479 80.3077 52.0479 79.6154V65.7692Z" fill="url(#paint0_linear_672_8114)"/>
<path d="M98.5442 32.8847L57.2529 64.0385C56.5589 64.3847 56.2119 65.077 56.2119 65.7693V79.2693C56.2119 80.3077 57.2529 81.3462 58.2938 81.3462C58.6408 81.3462 59.3348 81.3462 59.6818 81L89.5225 58.5001C90.2165 57.8077 91.6045 58.1539 92.2984 58.8462C92.6454 59.1924 92.6454 59.5385 92.6454 59.8847V94.5L107.913 83.077V38.077C107.913 34.6154 104.79 31.8462 101.32 32.1924C100.626 32.1924 99.5851 32.5385 98.5442 32.8847Z" fill="url(#paint1_linear_672_8114)"/>
<path d="M21.166 3.4616C19.7781 2.42313 17.3492 2.76929 16.3082 4.1539C15.9612 4.84621 15.6143 5.53852 15.6143 6.23083V30.4616C15.6143 31.5001 15.9612 32.1924 16.6552 32.8847L27.4118 41.1924C28.4527 41.8847 29.4937 41.5385 30.1877 40.5001C30.1877 40.1539 30.5346 39.8077 30.5346 39.4616V32.5385C30.5346 31.8462 31.2286 31.1539 31.9226 31.1539C32.1539 31.1539 32.3852 31.2693 32.6166 31.5001L54.1297 47.4231V28.7308L21.166 3.4616Z" fill="#E62D47"/>
</g>
<defs>
<linearGradient id="paint0_linear_672_8114" x1="0.346986" y1="63.2423" x2="52.1173" y2="63.2423" gradientUnits="userSpaceOnUse">
<stop stop-color="#FDC41A"/>
<stop offset="1" stop-color="#F6A21A"/>
</linearGradient>
<linearGradient id="paint1_linear_672_8114" x1="56.4895" y1="63.3462" x2="108.26" y2="63.3462" gradientUnits="userSpaceOnUse">
<stop stop-color="#2C4B9B"/>
<stop offset="1" stop-color="#3352A0"/>
</linearGradient>
<clipPath id="clip0_672_8114">
<rect width="754" height="126" fill="white"/>
</clipPath>
</defs>
</svg>
